<svg xmlns="http://www.w3.org/2000/svg" xmlns:xlink="http://www.w3.org/1999/xlink" width="230" zoomAndPan="magnify" viewBox="0 0 172.5 153.749995" height="205" preserveAspectRatio="xMidYMid meet" version="1.0"><defs><g/><clipPath id="356a98b448"><path d="M 0 0.0976562 L 172 0.0976562 L 172 152.773438 L 0 152.773438 Z M 0 0.0976562 " clip-rule="nonzero"/></clipPath><clipPath id="c1c5822984"><path d="M 26.175781 0.0976562 L 145.828125 0.0976562 C 152.769531 0.0976562 159.425781 2.855469 164.335938 7.765625 C 169.242188 12.671875 172 19.328125 172 26.273438 L 172 126.597656 C 172 133.539062 169.242188 140.199219 164.335938 145.105469 C 159.425781 150.015625 152.769531 152.773438 145.828125 152.773438 L 26.175781 152.773438 C 19.230469 152.773438 12.574219 150.015625 7.667969 145.105469 C 2.757812 140.199219 0 133.539062 0 126.597656 L 0 26.273438 C 0 19.328125 2.757812 12.671875 7.667969 7.765625 C 12.574219 2.855469 19.230469 0.0976562 26.175781 0.0976562 Z M 26.175781 0.0976562 " clip-rule="nonzero"/></clipPath><clipPath id="8b990815d8"><path d="M 0 0.0976562 L 172 0.0976562 L 172 152.773438 L 0 152.773438 Z M 0 0.0976562 " clip-rule="nonzero"/></clipPath><clipPath id="eacf519fca"><path d="M 26.175781 0.0976562 L 145.828125 0.0976562 C 152.769531 0.0976562 159.425781 2.855469 164.335938 7.765625 C 169.242188 12.671875 172 19.328125 172 26.273438 L 172 126.597656 C 172 133.539062 169.242188 140.199219 164.335938 145.105469 C 159.425781 150.015625 152.769531 152.773438 145.828125 152.773438 L 26.175781 152.773438 C 19.230469 152.773438 12.574219 150.015625 7.667969 145.105469 C 2.757812 140.199219 0 133.539062 0 126.597656 L 0 26.273438 C 0 19.328125 2.757812 12.671875 7.667969 7.765625 C 12.574219 2.855469 19.230469 0.0976562 26.175781 0.0976562 Z M 26.175781 0.0976562 " clip-rule="nonzero"/></clipPath><clipPath id="0bac631ad0"><rect x="0" width="172" y="0" height="153"/></clipPath><clipPath id="0c7fd17258"><path d="M 54.285156 30.292969 L 117.851562 30.292969 L 117.851562 82 L 54.285156 82 Z M 54.285156 30.292969 " clip-rule="nonzero"/></clipPath><clipPath id="da9bc8cb18"><rect x="0" width="148" y="0" height="23"/></clipPath></defs><g clip-path="url(#356a98b448)"><g clip-path="url(#c1c5822984)"><g transform="matrix(1, 0, 0, 1, 0, -0.000000000000007841)"><g clip-path="url(#0bac631ad0)"><g clip-path="url(#8b990815d8)"><g clip-path="url(#eacf519fca)"><path fill="#ffffff" d="M 0 0.0976562 L 171.757812 0.0976562 L 171.757812 152.773438 L 0 152.773438 Z M 0 0.0976562 " fill-opacity="1" fill-rule="nonzero"/></g></g></g></g></g></g><g clip-path="url(#0c7fd17258)"><path fill="#222344" d="M 117.691406 50.921875 L 117.691406 67.183594 C 117.691406 67.320312 117.664062 67.449219 117.613281 67.574219 C 117.5625 67.699219 117.488281 67.808594 117.394531 67.902344 C 117.296875 68 117.1875 68.074219 117.0625 68.125 C 116.9375 68.175781 116.808594 68.203125 116.675781 68.203125 L 115.734375 68.203125 C 115.859375 69.007812 115.902344 69.816406 115.863281 70.628906 C 115.820312 71.441406 115.695312 72.242188 115.488281 73.03125 C 115.28125 73.816406 114.996094 74.574219 114.632812 75.304688 C 114.269531 76.03125 113.835938 76.714844 113.328125 77.351562 C 112.824219 77.992188 112.257812 78.570312 111.632812 79.09375 C 111.007812 79.613281 110.335938 80.066406 109.617188 80.449219 C 108.898438 80.832031 108.148438 81.136719 107.367188 81.363281 C 106.585938 81.589844 105.789062 81.734375 104.976562 81.796875 C 104.164062 81.859375 103.355469 81.839844 102.546875 81.734375 C 101.742188 81.628906 100.953125 81.441406 100.183594 81.171875 C 99.414062 80.90625 98.683594 80.5625 97.984375 80.140625 C 97.289062 79.722656 96.640625 79.234375 96.042969 78.679688 C 95.449219 78.125 94.914062 77.519531 94.441406 76.851562 C 93.972656 76.1875 93.574219 75.484375 93.25 74.738281 C 92.925781 73.992188 92.679688 73.21875 92.515625 72.421875 C 92.351562 71.625 92.269531 70.820312 92.269531 70.003906 C 92.269531 69.402344 92.316406 68.800781 92.410156 68.207031 L 55.304688 68.207031 C 55.167969 68.207031 55.039062 68.179688 54.914062 68.125 C 54.789062 68.074219 54.679688 68 54.585938 67.90625 C 54.488281 67.808594 54.414062 67.699219 54.363281 67.574219 C 54.3125 67.449219 54.285156 67.320312 54.285156 67.183594 L 54.285156 50.921875 C 54.285156 50.390625 54.347656 49.867188 54.476562 49.351562 C 54.777344 48.144531 55.367188 47.097656 56.242188 46.210938 C 57.285156 45.242188 58.507812 44.621094 59.90625 44.351562 C 60.164062 44.304688 60.425781 44.28125 60.425781 44.28125 C 60.613281 44.265625 60.796875 44.253906 60.945312 44.253906 L 62.609375 44.253906 C 62.046875 43.941406 61.535156 43.558594 61.070312 43.113281 L 61.015625 43.054688 C 60.867188 42.890625 60.660156 42.65625 60.417969 42.371094 C 60.023438 41.921875 59.96875 41.855469 59.90625 41.777344 C 59.648438 41.429688 59.449219 41.050781 59.304688 40.644531 C 59.007812 39.820312 58.859375 38.96875 58.863281 38.09375 C 58.796875 37.261719 58.882812 36.441406 59.117188 35.640625 C 59.367188 34.839844 59.761719 34.121094 60.308594 33.484375 C 60.503906 33.207031 60.722656 32.945312 60.960938 32.707031 L 61.015625 32.648438 C 61.238281 32.421875 61.472656 32.214844 61.726562 32.027344 C 61.976562 31.832031 62.242188 31.65625 62.515625 31.496094 C 63.796875 30.757812 65.179688 30.425781 66.660156 30.503906 C 66.691406 30.503906 66.722656 30.507812 66.753906 30.519531 C 67.351562 30.613281 67.542969 30.613281 67.929688 30.691406 C 67.992188 30.707031 68.046875 30.726562 68.109375 30.742188 C 68.488281 30.839844 68.855469 30.96875 69.214844 31.128906 C 69.261719 31.152344 69.316406 31.183594 69.363281 31.207031 C 69.722656 31.371094 70.066406 31.566406 70.390625 31.789062 C 70.421875 31.804688 70.453125 31.839844 70.484375 31.851562 C 70.816406 32.09375 71.128906 32.359375 71.425781 32.640625 L 71.480469 32.707031 C 71.5 32.726562 71.519531 32.746094 71.535156 32.769531 C 71.675781 32.910156 71.8125 33.058594 71.9375 33.210938 C 71.976562 33.265625 72.007812 33.3125 72.046875 33.367188 C 72.148438 33.496094 72.253906 33.628906 72.347656 33.769531 C 72.394531 33.847656 72.433594 33.921875 72.488281 34 C 72.558594 34.125 72.640625 34.242188 72.710938 34.371094 C 72.757812 34.472656 72.804688 34.574219 72.851562 34.667969 C 72.90625 34.78125 72.960938 34.890625 73.011719 35.007812 C 73.058594 35.125 73.097656 35.246094 73.144531 35.371094 C 73.183594 35.476562 73.222656 35.570312 73.253906 35.679688 C 73.300781 35.816406 73.335938 35.957031 73.363281 36.097656 C 73.390625 36.191406 73.414062 36.28125 73.4375 36.375 C 73.46875 36.546875 73.492188 36.714844 73.515625 36.886719 C 73.523438 36.957031 73.539062 37.027344 73.546875 37.101562 C 73.570312 37.34375 73.585938 37.597656 73.585938 37.847656 C 73.585938 38.007812 73.578125 38.164062 73.570312 38.332031 C 73.421875 39.007812 73.269531 39.6875 73.128906 40.375 C 72.757812 41.394531 72.191406 42.289062 71.425781 43.054688 L 71.417969 43.054688 C 70.941406 43.527344 70.414062 43.925781 69.832031 44.253906 L 71.488281 44.253906 C 72.398438 44.261719 73.265625 44.449219 74.097656 44.816406 C 74.863281 45.136719 75.542969 45.589844 76.132812 46.175781 C 76.425781 46.453125 76.683594 46.757812 76.90625 47.089844 C 77.136719 47.421875 77.339844 47.769531 77.507812 48.132812 C 78.957031 48.28125 80.195312 48.867188 81.230469 49.890625 L 81.285156 49.957031 C 81.570312 50.246094 81.824219 50.5625 82.046875 50.902344 C 82.269531 51.242188 82.457031 51.597656 82.609375 51.976562 C 82.761719 52.351562 82.875 52.738281 82.953125 53.136719 C 83.027344 53.539062 83.066406 53.941406 83.0625 54.347656 C 83.058594 54.753906 83.019531 55.152344 82.9375 55.550781 C 82.855469 55.949219 82.734375 56.335938 82.578125 56.710938 C 82.421875 57.085938 82.230469 57.441406 82.003906 57.777344 C 81.777344 58.117188 81.519531 58.425781 81.230469 58.714844 C 80.972656 58.960938 80.699219 59.1875 80.402344 59.394531 L 80.703125 59.394531 C 81.109375 59.402344 81.511719 59.453125 81.910156 59.550781 C 82.339844 58.6875 82.9375 57.96875 83.710938 57.390625 C 84.78125 56.578125 85.988281 56.175781 87.332031 56.171875 L 88.425781 56.171875 C 87.847656 55.84375 87.316406 55.445312 86.839844 54.972656 C 86.5 54.632812 86.195312 54.261719 85.925781 53.859375 C 85.660156 53.457031 85.433594 53.03125 85.246094 52.585938 C 85.0625 52.140625 84.921875 51.679688 84.828125 51.207031 C 84.734375 50.730469 84.6875 50.253906 84.6875 49.769531 C 84.6875 49.289062 84.734375 48.808594 84.828125 48.335938 C 84.921875 47.859375 85.0625 47.402344 85.246094 46.953125 C 85.433594 46.507812 85.660156 46.085938 85.925781 45.683594 C 86.195312 45.28125 86.5 44.910156 86.839844 44.566406 L 86.90625 44.511719 C 87.246094 44.175781 87.617188 43.875 88.019531 43.609375 C 88.421875 43.347656 88.84375 43.125 89.289062 42.945312 C 89.734375 42.765625 90.191406 42.628906 90.664062 42.539062 C 91.136719 42.445312 91.613281 42.402344 92.09375 42.40625 C 92.574219 42.410156 93.046875 42.457031 93.519531 42.554688 C 93.988281 42.648438 94.445312 42.789062 94.886719 42.976562 C 95.332031 43.160156 95.753906 43.386719 96.152344 43.65625 C 96.550781 43.921875 96.917969 44.226562 97.257812 44.566406 L 97.3125 44.621094 C 97.40625 44.726562 97.492188 44.835938 97.589844 44.9375 C 97.894531 44.785156 98.214844 44.660156 98.542969 44.558594 C 99.175781 44.359375 99.828125 44.257812 100.492188 44.257812 L 102.148438 44.257812 C 101.566406 43.929688 101.039062 43.53125 100.5625 43.058594 L 100.554688 43.058594 C 99.863281 42.367188 99.332031 41.574219 98.957031 40.671875 C 98.585938 39.765625 98.398438 38.828125 98.402344 37.851562 C 98.398438 37.292969 98.460938 36.738281 98.589844 36.195312 C 98.734375 35.582031 98.953125 34.996094 99.246094 34.4375 C 99.542969 33.878906 99.902344 33.367188 100.324219 32.902344 C 100.75 32.4375 101.226562 32.03125 101.753906 31.6875 C 102.28125 31.34375 102.84375 31.070312 103.441406 30.867188 C 104.054688 30.671875 104.683594 30.554688 105.328125 30.515625 C 106.796875 30.476562 108.175781 30.804688 109.46875 31.5 C 109.742188 31.660156 110.003906 31.835938 110.25 32.027344 C 110.503906 32.21875 110.738281 32.421875 110.960938 32.644531 L 111.015625 32.707031 C 111.105469 32.796875 111.222656 32.921875 111.355469 33.078125 C 112.484375 34.46875 113.074219 36.0625 113.125 37.851562 C 113.109375 39.285156 112.722656 40.605469 111.957031 41.8125 C 111.671875 42.265625 111.34375 42.679688 110.960938 43.050781 L 110.90625 43.105469 C 110.445312 43.558594 109.933594 43.941406 109.367188 44.257812 L 111.03125 44.257812 C 111.46875 44.261719 111.902344 44.304688 112.332031 44.390625 C 112.761719 44.476562 113.175781 44.605469 113.578125 44.773438 C 113.984375 44.941406 114.367188 45.144531 114.730469 45.390625 C 115.09375 45.632812 115.429688 45.910156 115.738281 46.21875 C 116.046875 46.527344 116.324219 46.863281 116.566406 47.226562 C 116.808594 47.589844 117.015625 47.976562 117.183594 48.378906 C 117.351562 48.78125 117.476562 49.199219 117.5625 49.628906 C 117.648438 50.054688 117.691406 50.488281 117.691406 50.925781 Z M 117.691406 50.921875 " fill-opacity="1" fill-rule="nonzero"/><path fill="#222344" d="M 109.445312 65.929688 C 109.316406 65.804688 109.167969 65.714844 109 65.652344 C 108.828125 65.589844 108.65625 65.5625 108.476562 65.574219 C 108.296875 65.582031 108.125 65.628906 107.964844 65.710938 C 107.804688 65.792969 107.667969 65.902344 107.554688 66.042969 L 105.691406 67.902344 C 104.554688 69.046875 103.417969 70.183594 102.226562 71.375 C 101.652344 70.792969 101.113281 70.238281 100.5625 69.695312 C 100.445312 69.558594 100.308594 69.453125 100.148438 69.375 C 99.988281 69.300781 99.820312 69.257812 99.644531 69.25 C 99.464844 69.242188 99.292969 69.269531 99.128906 69.335938 C 98.960938 69.398438 98.816406 69.496094 98.691406 69.621094 C 98.5625 69.746094 98.46875 69.890625 98.402344 70.054688 C 98.335938 70.21875 98.304688 70.390625 98.3125 70.570312 C 98.316406 70.746094 98.359375 70.914062 98.433594 71.074219 C 98.507812 71.238281 98.613281 71.375 98.746094 71.492188 C 99.59375 72.34375 100.429688 73.191406 101.28125 74.023438 C 101.402344 74.164062 101.542969 74.273438 101.710938 74.347656 C 101.878906 74.425781 102.054688 74.464844 102.238281 74.464844 C 102.421875 74.464844 102.597656 74.425781 102.765625 74.347656 C 102.933594 74.273438 103.078125 74.164062 103.199219 74.023438 C 105.257812 71.96875 107.3125 69.90625 109.367188 67.847656 C 109.507812 67.730469 109.617188 67.589844 109.699219 67.425781 C 109.777344 67.261719 109.820312 67.089844 109.828125 66.90625 C 109.835938 66.722656 109.808594 66.546875 109.742188 66.378906 C 109.675781 66.207031 109.578125 66.058594 109.445312 65.929688 Z M 109.445312 65.929688 C 109.316406 65.804688 109.167969 65.714844 109 65.652344 C 108.828125 65.589844 108.65625 65.5625 108.476562 65.574219 C 108.296875 65.582031 108.125 65.628906 107.964844 65.710938 C 107.804688 65.792969 107.667969 65.902344 107.554688 66.042969 L 105.691406 67.902344 C 104.554688 69.046875 103.417969 70.183594 102.226562 71.375 C 101.652344 70.792969 101.113281 70.238281 100.5625 69.695312 C 100.445312 69.558594 100.308594 69.453125 100.148438 69.375 C 99.988281 69.300781 99.820312 69.257812 99.644531 69.25 C 99.464844 69.242188 99.292969 69.269531 99.128906 69.335938 C 98.960938 69.398438 98.816406 69.496094 98.691406 69.621094 C 98.5625 69.746094 98.46875 69.890625 98.402344 70.054688 C 98.335938 70.21875 98.304688 70.390625 98.3125 70.570312 C 98.316406 70.746094 98.359375 70.914062 98.433594 71.074219 C 98.507812 71.238281 98.613281 71.375 98.746094 71.492188 C 99.59375 72.34375 100.429688 73.191406 101.28125 74.023438 C 101.402344 74.164062 101.542969 74.273438 101.710938 74.347656 C 101.878906 74.425781 102.054688 74.464844 102.238281 74.464844 C 102.421875 74.464844 102.597656 74.425781 102.765625 74.347656 C 102.933594 74.273438 103.078125 74.164062 103.199219 74.023438 C 105.257812 71.96875 107.3125 69.90625 109.367188 67.847656 C 109.507812 67.730469 109.617188 67.589844 109.699219 67.425781 C 109.777344 67.261719 109.820312 67.089844 109.828125 66.90625 C 109.835938 66.722656 109.808594 66.546875 109.742188 66.378906 C 109.675781 66.207031 109.578125 66.058594 109.445312 65.929688 Z M 109.445312 65.929688 C 109.316406 65.804688 109.167969 65.714844 109 65.652344 C 108.828125 65.589844 108.65625 65.5625 108.476562 65.574219 C 108.296875 65.582031 108.125 65.628906 107.964844 65.710938 C 107.804688 65.792969 107.667969 65.902344 107.554688 66.042969 L 105.691406 67.902344 C 104.554688 69.046875 103.417969 70.183594 102.226562 71.375 C 101.652344 70.792969 101.113281 70.238281 100.5625 69.695312 C 100.445312 69.558594 100.308594 69.453125 100.148438 69.375 C 99.988281 69.300781 99.820312 69.257812 99.644531 69.25 C 99.464844 69.242188 99.292969 69.269531 99.128906 69.335938 C 98.960938 69.398438 98.816406 69.496094 98.691406 69.621094 C 98.5625 69.746094 98.46875 69.890625 98.402344 70.054688 C 98.335938 70.21875 98.304688 70.390625 98.3125 70.570312 C 98.316406 70.746094 98.359375 70.914062 98.433594 71.074219 C 98.507812 71.238281 98.613281 71.375 98.746094 71.492188 C 99.59375 72.34375 100.429688 73.191406 101.28125 74.023438 C 101.402344 74.164062 101.542969 74.273438 101.710938 74.347656 C 101.878906 74.425781 102.054688 74.464844 102.238281 74.464844 C 102.421875 74.464844 102.597656 74.425781 102.765625 74.347656 C 102.933594 74.273438 103.078125 74.164062 103.199219 74.023438 C 105.257812 71.96875 107.3125 69.90625 109.367188 67.847656 C 109.507812 67.730469 109.617188 67.589844 109.699219 67.425781 C 109.777344 67.261719 109.820312 67.089844 109.828125 66.90625 C 109.835938 66.722656 109.808594 66.546875 109.742188 66.378906 C 109.675781 66.207031 109.578125 66.058594 109.445312 65.929688 Z M 109.445312 65.929688 C 109.316406 65.804688 109.167969 65.714844 109 65.652344 C 108.828125 65.589844 108.65625 65.5625 108.476562 65.574219 C 108.296875 65.582031 108.125 65.628906 107.964844 65.710938 C 107.804688 65.792969 107.667969 65.902344 107.554688 66.042969 L 105.691406 67.902344 C 104.554688 69.046875 103.417969 70.183594 102.226562 71.375 C 101.652344 70.792969 101.113281 70.238281 100.5625 69.695312 C 100.445312 69.558594 100.308594 69.453125 100.148438 69.375 C 99.988281 69.300781 99.820312 69.257812 99.644531 69.25 C 99.464844 69.242188 99.292969 69.269531 99.128906 69.335938 C 98.960938 69.398438 98.816406 69.496094 98.691406 69.621094 C 98.5625 69.746094 98.46875 69.890625 98.402344 70.054688 C 98.335938 70.21875 98.304688 70.390625 98.3125 70.570312 C 98.316406 70.746094 98.359375 70.914062 98.433594 71.074219 C 98.507812 71.238281 98.613281 71.375 98.746094 71.492188 C 99.59375 72.34375 100.429688 73.191406 101.28125 74.023438 C 101.402344 74.164062 101.542969 74.273438 101.710938 74.347656 C 101.878906 74.425781 102.054688 74.464844 102.238281 74.464844 C 102.421875 74.464844 102.597656 74.425781 102.765625 74.347656 C 102.933594 74.273438 103.078125 74.164062 103.199219 74.023438 C 105.257812 71.96875 107.3125 69.90625 109.367188 67.847656 C 109.507812 67.730469 109.617188 67.589844 109.699219 67.425781 C 109.777344 67.261719 109.820312 67.089844 109.828125 66.90625 C 109.835938 66.722656 109.808594 66.546875 109.742188 66.378906 C 109.675781 66.207031 109.578125 66.058594 109.445312 65.929688 Z M 109.445312 65.929688 C 109.316406 65.804688 109.167969 65.714844 109 65.652344 C 108.828125 65.589844 108.65625 65.5625 108.476562 65.574219 C 108.296875 65.582031 108.125 65.628906 107.964844 65.710938 C 107.804688 65.792969 107.667969 65.902344 107.554688 66.042969 L 105.691406 67.902344 C 104.554688 69.046875 103.417969 70.183594 102.226562 71.375 C 101.652344 70.792969 101.113281 70.238281 100.5625 69.695312 C 100.445312 69.558594 100.308594 69.453125 100.148438 69.375 C 99.988281 69.300781 99.820312 69.257812 99.644531 69.25 C 99.464844 69.242188 99.292969 69.269531 99.128906 69.335938 C 98.960938 69.398438 98.816406 69.496094 98.691406 69.621094 C 98.5625 69.746094 98.46875 69.890625 98.402344 70.054688 C 98.335938 70.21875 98.304688 70.390625 98.3125 70.570312 C 98.316406 70.746094 98.359375 70.914062 98.433594 71.074219 C 98.507812 71.238281 98.613281 71.375 98.746094 71.492188 C 99.59375 72.34375 100.429688 73.191406 101.28125 74.023438 C 101.402344 74.164062 101.542969 74.273438 101.710938 74.347656 C 101.878906 74.425781 102.054688 74.464844 102.238281 74.464844 C 102.421875 74.464844 102.597656 74.425781 102.765625 74.347656 C 102.933594 74.273438 103.078125 74.164062 103.199219 74.023438 C 105.257812 71.96875 107.3125 69.90625 109.367188 67.847656 C 109.507812 67.730469 109.617188 67.589844 109.699219 67.425781 C 109.777344 67.261719 109.820312 67.089844 109.828125 66.90625 C 109.835938 66.722656 109.808594 66.546875 109.742188 66.378906 C 109.675781 66.207031 109.578125 66.058594 109.445312 65.929688 Z M 109.445312 65.929688 C 109.316406 65.804688 109.167969 65.714844 109 65.652344 C 108.828125 65.589844 108.65625 65.5625 108.476562 65.574219 C 108.296875 65.582031 108.125 65.628906 107.964844 65.710938 C 107.804688 65.792969 107.667969 65.902344 107.554688 66.042969 L 105.691406 67.902344 C 104.554688 69.046875 103.417969 70.183594 102.226562 71.375 C 101.652344 70.792969 101.113281 70.238281 100.5625 69.695312 C 100.445312 69.558594 100.308594 69.453125 100.148438 69.375 C 99.988281 69.300781 99.820312 69.257812 99.644531 69.25 C 99.464844 69.242188 99.292969 69.269531 99.128906 69.335938 C 98.960938 69.398438 98.816406 69.496094 98.691406 69.621094 C 98.5625 69.746094 98.46875 69.890625 98.402344 70.054688 C 98.335938 70.21875 98.304688 70.390625 98.3125 70.570312 C 98.316406 70.746094 98.359375 70.914062 98.433594 71.074219 C 98.507812 71.238281 98.613281 71.375 98.746094 71.492188 C 99.59375 72.34375 100.429688 73.191406 101.28125 74.023438 C 101.402344 74.164062 101.542969 74.273438 101.710938 74.347656 C 101.878906 74.425781 102.054688 74.464844 102.238281 74.464844 C 102.421875 74.464844 102.597656 74.425781 102.765625 74.347656 C 102.933594 74.273438 103.078125 74.164062 103.199219 74.023438 C 105.257812 71.96875 107.3125 69.90625 109.367188 67.847656 C 109.507812 67.730469 109.617188 67.589844 109.699219 67.425781 C 109.777344 67.261719 109.820312 67.089844 109.828125 66.90625 C 109.835938 66.722656 109.808594 66.546875 109.742188 66.378906 C 109.675781 66.207031 109.578125 66.058594 109.445312 65.929688 Z M 109.445312 65.929688 C 109.316406 65.804688 109.167969 65.714844 109 65.652344 C 108.828125 65.589844 108.65625 65.5625 108.476562 65.574219 C 108.296875 65.582031 108.125 65.628906 107.964844 65.710938 C 107.804688 65.792969 107.667969 65.902344 107.554688 66.042969 L 105.691406 67.902344 C 104.554688 69.046875 103.417969 70.183594 102.226562 71.375 C 101.652344 70.792969 101.113281 70.238281 100.5625 69.695312 C 100.445312 69.558594 100.308594 69.453125 100.148438 69.375 C 99.988281 69.300781 99.820312 69.257812 99.644531 69.25 C 99.464844 69.242188 99.292969 69.269531 99.128906 69.335938 C 98.960938 69.398438 98.816406 69.496094 98.691406 69.621094 C 98.5625 69.746094 98.46875 69.890625 98.402344 70.054688 C 98.335938 70.21875 98.304688 70.390625 98.3125 70.570312 C 98.316406 70.746094 98.359375 70.914062 98.433594 71.074219 C 98.507812 71.238281 98.613281 71.375 98.746094 71.492188 C 99.59375 72.34375 100.429688 73.191406 101.28125 74.023438 C 101.402344 74.164062 101.542969 74.273438 101.710938 74.347656 C 101.878906 74.425781 102.054688 74.464844 102.238281 74.464844 C 102.421875 74.464844 102.597656 74.425781 102.765625 74.347656 C 102.933594 74.273438 103.078125 74.164062 103.199219 74.023438 C 105.257812 71.96875 107.3125 69.90625 109.367188 67.847656 C 109.507812 67.730469 109.617188 67.589844 109.699219 67.425781 C 109.777344 67.261719 109.820312 67.089844 109.828125 66.90625 C 109.835938 66.722656 109.808594 66.546875 109.742188 66.378906 C 109.675781 66.207031 109.578125 66.058594 109.445312 65.929688 Z M 109.445312 65.929688 C 109.316406 65.804688 109.167969 65.714844 109 65.652344 C 108.828125 65.589844 108.65625 65.5625 108.476562 65.574219 C 108.296875 65.582031 108.125 65.628906 107.964844 65.710938 C 107.804688 65.792969 107.667969 65.902344 107.554688 66.042969 L 105.691406 67.902344 C 104.554688 69.046875 103.417969 70.183594 102.226562 71.375 C 101.652344 70.792969 101.113281 70.238281 100.5625 69.695312 C 100.445312 69.558594 100.308594 69.453125 100.148438 69.375 C 99.988281 69.300781 99.820312 69.257812 99.644531 69.25 C 99.464844 69.242188 99.292969 69.269531 99.128906 69.335938 C 98.960938 69.398438 98.816406 69.496094 98.691406 69.621094 C 98.5625 69.746094 98.46875 69.890625 98.402344 70.054688 C 98.335938 70.21875 98.304688 70.390625 98.3125 70.570312 C 98.316406 70.746094 98.359375 70.914062 98.433594 71.074219 C 98.507812 71.238281 98.613281 71.375 98.746094 71.492188 C 99.59375 72.34375 100.429688 73.191406 101.28125 74.023438 C 101.402344 74.164062 101.542969 74.273438 101.710938 74.347656 C 101.878906 74.425781 102.054688 74.464844 102.238281 74.464844 C 102.421875 74.464844 102.597656 74.425781 102.765625 74.347656 C 102.933594 74.273438 103.078125 74.164062 103.199219 74.023438 C 105.257812 71.96875 107.3125 69.90625 109.367188 67.847656 C 109.507812 67.730469 109.617188 67.589844 109.699219 67.425781 C 109.777344 67.261719 109.820312 67.089844 109.828125 66.90625 C 109.835938 66.722656 109.808594 66.546875 109.742188 66.378906 C 109.675781 66.207031 109.578125 66.058594 109.445312 65.929688 Z M 109.445312 65.929688 C 109.316406 65.804688 109.167969 65.714844 109 65.652344 C 108.828125 65.589844 108.65625 65.5625 108.476562 65.574219 C 108.296875 65.582031 108.125 65.628906 107.964844 65.710938 C 107.804688 65.792969 107.667969 65.902344 107.554688 66.042969 L 105.691406 67.902344 C 104.554688 69.046875 103.417969 70.183594 102.226562 71.375 C 101.652344 70.792969 101.113281 70.238281 100.5625 69.695312 C 100.445312 69.558594 100.308594 69.453125 100.148438 69.375 C 99.988281 69.300781 99.820312 69.257812 99.644531 69.25 C 99.464844 69.242188 99.292969 69.269531 99.128906 69.335938 C 98.960938 69.398438 98.816406 69.496094 98.691406 69.621094 C 98.5625 69.746094 98.46875 69.890625 98.402344 70.054688 C 98.335938 70.21875 98.304688 70.390625 98.3125 70.570312 C 98.316406 70.746094 98.359375 70.914062 98.433594 71.074219 C 98.507812 71.238281 98.613281 71.375 98.746094 71.492188 C 99.59375 72.34375 100.429688 73.191406 101.28125 74.023438 C 101.402344 74.164062 101.542969 74.273438 101.710938 74.347656 C 101.878906 74.425781 102.054688 74.464844 102.238281 74.464844 C 102.421875 74.464844 102.597656 74.425781 102.765625 74.347656 C 102.933594 74.273438 103.078125 74.164062 103.199219 74.023438 C 105.257812 71.96875 107.3125 69.90625 109.367188 67.847656 C 109.507812 67.730469 109.617188 67.589844 109.699219 67.425781 C 109.777344 67.261719 109.820312 67.089844 109.828125 66.90625 C 109.835938 66.722656 109.808594 66.546875 109.742188 66.378906 C 109.675781 66.207031 109.578125 66.058594 109.445312 65.929688 Z M 109.445312 65.929688 C 109.316406 65.804688 109.167969 65.714844 109 65.652344 C 108.828125 65.589844 108.65625 65.5625 108.476562 65.574219 C 108.296875 65.582031 108.125 65.628906 107.964844 65.710938 C 107.804688 65.792969 107.667969 65.902344 107.554688 66.042969 L 105.691406 67.902344 C 104.554688 69.046875 103.417969 70.183594 102.226562 71.375 C 101.652344 70.792969 101.113281 70.238281 100.5625 69.695312 C 100.445312 69.558594 100.308594 69.453125 100.148438 69.375 C 99.988281 69.300781 99.820312 69.257812 99.644531 69.25 C 99.464844 69.242188 99.292969 69.269531 99.128906 69.335938 C 98.960938 69.398438 98.816406 69.496094 98.691406 69.621094 C 98.5625 69.746094 98.46875 69.890625 98.402344 70.054688 C 98.335938 70.21875 98.304688 70.390625 98.3125 70.570312 C 98.316406 70.746094 98.359375 70.914062 98.433594 71.074219 C 98.507812 71.238281 98.613281 71.375 98.746094 71.492188 C 99.59375 72.34375 100.429688 73.191406 101.28125 74.023438 C 101.402344 74.164062 101.542969 74.273438 101.710938 74.347656 C 101.878906 74.425781 102.054688 74.464844 102.238281 74.464844 C 102.421875 74.464844 102.597656 74.425781 102.765625 74.347656 C 102.933594 74.273438 103.078125 74.164062 103.199219 74.023438 C 105.257812 71.96875 107.3125 69.90625 109.367188 67.847656 C 109.507812 67.730469 109.617188 67.589844 109.699219 67.425781 C 109.777344 67.261719 109.820312 67.089844 109.828125 66.90625 C 109.835938 66.722656 109.808594 66.546875 109.742188 66.378906 C 109.675781 66.207031 109.578125 66.058594 109.445312 65.929688 Z M 115.734375 46.210938 C 115.113281 45.585938 114.394531 45.105469 113.578125 44.765625 C 112.765625 44.425781 111.914062 44.257812 111.03125 44.253906 L 109.367188 44.253906 C 109.933594 43.941406 110.445312 43.554688 110.90625 43.105469 L 110.960938 43.050781 C 111.34375 42.675781 111.671875 42.261719 111.957031 41.808594 C 112.722656 40.601562 113.109375 39.28125 113.125 37.847656 C 113.074219 36.058594 112.484375 34.46875 111.355469 33.078125 C 111.222656 32.921875 111.105469 32.796875 111.015625 32.707031 L 110.960938 32.644531 C 110.738281 32.421875 110.503906 32.21875 110.25 32.027344 C 110.003906 31.835938 109.742188 31.660156 109.46875 31.5 C 108.175781 30.804688 106.796875 30.476562 105.328125 30.511719 C 104.683594 30.550781 104.054688 30.671875 103.441406 30.867188 C 102.84375 31.070312 102.28125 31.34375 101.753906 31.6875 C 101.226562 32.03125 100.75 32.4375 100.324219 32.902344 C 99.898438 33.367188 99.539062 33.878906 99.246094 34.4375 C 98.953125 34.996094 98.734375 35.582031 98.589844 36.195312 C 98.460938 36.738281 98.398438 37.292969 98.402344 37.851562 C 98.398438 38.828125 98.585938 39.769531 98.957031 40.671875 C 99.332031 41.574219 99.863281 42.371094 100.554688 43.058594 L 100.5625 43.058594 C 101.039062 43.53125 101.566406 43.929688 102.148438 44.257812 L 100.492188 44.257812 C 99.828125 44.257812 99.175781 44.359375 98.542969 44.558594 C 98.214844 44.660156 97.894531 44.789062 97.589844 44.9375 C 97.492188 44.835938 97.40625 44.726562 97.3125 44.621094 L 97.257812 44.566406 C 96.917969 44.226562 96.550781 43.921875 96.152344 43.65625 C 95.753906 43.386719 95.332031 43.160156 94.886719 42.976562 C 94.445312 42.789062 93.988281 42.648438 93.519531 42.554688 C 93.046875 42.457031 92.574219 42.410156 92.09375 42.40625 C 91.613281 42.402344 91.136719 42.449219 90.664062 42.539062 C 90.191406 42.628906 89.734375 42.765625 89.289062 42.945312 C 88.84375 43.125 88.421875 43.347656 88.019531 43.613281 C 87.617188 43.875 87.246094 44.175781 86.90625 44.511719 L 86.839844 44.566406 C 86.5 44.910156 86.195312 45.28125 85.925781 45.683594 C 85.660156 46.085938 85.433594 46.507812 85.246094 46.957031 C 85.0625 47.402344 84.921875 47.863281 84.828125 48.335938 C 84.734375 48.808594 84.6875 49.289062 84.6875 49.769531 C 84.6875 50.253906 84.734375 50.734375 84.828125 51.207031 C 84.921875 51.679688 85.0625 52.140625 85.246094 52.585938 C 85.433594 53.035156 85.660156 53.457031 85.925781 53.859375 C 86.195312 54.261719 86.5 54.632812 86.839844 54.972656 C 87.316406 55.445312 87.847656 55.84375 88.425781 56.175781 L 87.332031 56.175781 C 85.988281 56.175781 84.78125 56.578125 83.710938 57.390625 C 82.9375 57.96875 82.339844 58.6875 81.910156 59.550781 C 81.511719 59.453125 81.109375 59.402344 80.703125 59.394531 L 80.402344 59.394531 C 80.699219 59.191406 80.972656 58.964844 81.230469 58.714844 C 81.519531 58.429688 81.777344 58.117188 82.003906 57.777344 C 82.230469 57.441406 82.421875 57.085938 82.578125 56.710938 C 82.734375 56.335938 82.855469 55.949219 82.9375 55.554688 C 83.019531 55.15625 83.058594 54.753906 83.0625 54.347656 C 83.066406 53.941406 83.027344 53.539062 82.953125 53.140625 C 82.875 52.738281 82.761719 52.351562 82.609375 51.976562 C 82.457031 51.597656 82.269531 51.242188 82.046875 50.902344 C 81.824219 50.5625 81.570312 50.246094 81.285156 49.957031 L 81.230469 49.894531 C 80.195312 48.867188 78.957031 48.28125 77.507812 48.132812 C 77.339844 47.769531 77.136719 47.421875 76.90625 47.09375 C 76.683594 46.761719 76.425781 46.453125 76.132812 46.175781 C 75.542969 45.59375 74.863281 45.140625 74.097656 44.820312 C 73.265625 44.453125 72.398438 44.265625 71.488281 44.257812 L 69.832031 44.257812 C 70.414062 43.929688 70.941406 43.53125 71.417969 43.058594 L 71.425781 43.058594 C 72.191406 42.292969 72.757812 41.398438 73.128906 40.375 C 73.269531 39.691406 73.421875 39.011719 73.570312 38.335938 C 73.578125 38.167969 73.585938 38.007812 73.585938 37.851562 C 73.585938 37.597656 73.570312 37.347656 73.546875 37.101562 C 73.539062 37.03125 73.523438 36.960938 73.515625 36.890625 C 73.492188 36.714844 73.46875 36.550781 73.4375 36.378906 C 73.414062 36.28125 73.390625 36.195312 73.363281 36.101562 C 73.335938 35.960938 73.300781 35.820312 73.253906 35.683594 C 73.222656 35.574219 73.183594 35.476562 73.144531 35.375 C 73.097656 35.25 73.058594 35.128906 73.011719 35.011719 C 72.960938 34.890625 72.90625 34.785156 72.851562 34.671875 C 72.804688 34.578125 72.757812 34.476562 72.710938 34.375 C 72.640625 34.246094 72.558594 34.128906 72.488281 34 C 72.433594 33.921875 72.394531 33.851562 72.347656 33.773438 C 72.253906 33.628906 72.148438 33.496094 72.046875 33.371094 C 72.007812 33.316406 71.976562 33.269531 71.9375 33.214844 C 71.8125 33.0625 71.675781 32.914062 71.535156 32.773438 C 71.519531 32.75 71.5 32.726562 71.480469 32.710938 L 71.425781 32.644531 C 71.128906 32.363281 70.816406 32.097656 70.484375 31.855469 C 70.453125 31.839844 70.421875 31.808594 70.390625 31.792969 C 70.066406 31.570312 69.722656 31.375 69.363281 31.210938 C 69.316406 31.1875 69.261719 31.15625 69.214844 31.128906 C 68.855469 30.972656 68.488281 30.84375 68.109375 30.742188 C 68.046875 30.726562 67.992188 30.710938 67.929688 30.695312 C 67.542969 30.617188 67.351562 30.617188 66.753906 30.523438 C 66.722656 30.511719 66.691406 30.507812 66.660156 30.507812 C 65.179688 30.429688 63.796875 30.757812 62.515625 31.5 C 62.242188 31.660156 61.976562 31.835938 61.726562 32.027344 C 61.472656 32.21875 61.238281 32.425781 61.015625 32.652344 L 60.960938 32.707031 C 60.722656 32.949219 60.503906 33.210938 60.308594 33.488281 C 59.761719 34.125 59.367188 34.84375 59.117188 35.640625 C 58.882812 36.441406 58.796875 37.261719 58.863281 38.09375 C 58.859375 38.96875 59.007812 39.820312 59.304688 40.644531 C 59.449219 41.050781 59.648438 41.429688 59.90625 41.777344 C 59.96875 41.859375 60.023438 41.921875 60.417969 42.371094 C 60.660156 42.65625 60.867188 42.890625 61.015625 43.054688 L 61.070312 43.113281 C 61.535156 43.558594 62.046875 43.941406 62.609375 44.253906 L 60.945312 44.253906 C 60.796875 44.253906 60.613281 44.265625 60.425781 44.28125 C 60.425781 44.28125 60.164062 44.304688 59.90625 44.351562 C 58.507812 44.621094 57.285156 45.242188 56.242188 46.210938 C 55.367188 47.097656 54.777344 48.144531 54.476562 49.351562 C 54.347656 49.867188 54.285156 50.390625 54.285156 50.921875 L 54.285156 67.183594 C 54.285156 67.320312 54.3125 67.449219 54.363281 67.574219 C 54.417969 67.699219 54.488281 67.808594 54.585938 67.902344 C 54.679688 68 54.789062 68.074219 54.914062 68.125 C 55.039062 68.175781 55.167969 68.203125 55.304688 68.203125 L 92.410156 68.203125 C 92.316406 68.800781 92.269531 69.398438 92.269531 70.003906 C 92.269531 70.816406 92.351562 71.621094 92.515625 72.417969 C 92.679688 73.214844 92.925781 73.988281 93.25 74.734375 C 93.574219 75.480469 93.972656 76.1875 94.441406 76.851562 C 94.914062 77.515625 95.445312 78.125 96.042969 78.679688 C 96.640625 79.234375 97.285156 79.71875 97.984375 80.140625 C 98.679688 80.558594 99.414062 80.90625 100.183594 81.171875 C 100.953125 81.441406 101.738281 81.628906 102.546875 81.734375 C 103.355469 81.839844 104.164062 81.859375 104.976562 81.796875 C 105.789062 81.734375 106.585938 81.589844 107.367188 81.363281 C 108.148438 81.136719 108.898438 80.832031 109.617188 80.449219 C 110.335938 80.066406 111.007812 79.613281 111.632812 79.09375 C 112.257812 78.574219 112.824219 77.992188 113.328125 77.355469 C 113.835938 76.714844 114.269531 76.03125 114.632812 75.304688 C 114.996094 74.574219 115.28125 73.816406 115.488281 73.03125 C 115.695312 72.242188 115.820312 71.441406 115.863281 70.628906 C 115.902344 69.816406 115.859375 69.007812 115.734375 68.203125 L 116.675781 68.203125 C 116.808594 68.203125 116.9375 68.175781 117.0625 68.125 C 117.1875 68.074219 117.296875 68 117.394531 67.902344 C 117.488281 67.808594 117.5625 67.699219 117.613281 67.574219 C 117.664062 67.449219 117.691406 67.320312 117.691406 67.183594 L 117.691406 50.921875 C 117.691406 50.039062 117.523438 49.1875 117.183594 48.371094 C 116.84375 47.554688 116.363281 46.835938 115.734375 46.210938 Z M 101.992188 41.613281 C 101.746094 41.367188 101.523438 41.097656 101.332031 40.804688 C 101.136719 40.515625 100.972656 40.207031 100.839844 39.886719 C 100.707031 39.5625 100.605469 39.230469 100.539062 38.886719 C 100.46875 38.542969 100.4375 38.199219 100.4375 37.847656 C 100.4375 37.5 100.46875 37.15625 100.539062 36.8125 C 100.605469 36.46875 100.707031 36.136719 100.839844 35.8125 C 100.972656 35.492188 101.136719 35.183594 101.332031 34.894531 C 101.523438 34.601562 101.746094 34.332031 101.992188 34.085938 L 102 34.085938 C 102.246094 33.839844 102.515625 33.621094 102.804688 33.425781 C 103.097656 33.230469 103.402344 33.070312 103.726562 32.933594 C 104.050781 32.800781 104.382812 32.703125 104.722656 32.632812 C 105.066406 32.566406 105.414062 32.53125 105.761719 32.53125 C 106.113281 32.53125 106.457031 32.566406 106.800781 32.632812 C 107.144531 32.703125 107.476562 32.800781 107.796875 32.933594 C 108.121094 33.070312 108.429688 33.230469 108.71875 33.425781 C 109.007812 33.621094 109.277344 33.839844 109.527344 34.085938 L 109.574219 34.132812 C 109.816406 34.382812 110.03125 34.652344 110.21875 34.941406 C 110.40625 35.234375 110.566406 35.539062 110.695312 35.859375 C 110.824219 36.179688 110.921875 36.511719 110.984375 36.851562 C 111.050781 37.191406 111.082031 37.535156 111.082031 37.882812 C 111.078125 38.230469 111.042969 38.574219 110.972656 38.910156 C 110.902344 39.25 110.804688 39.582031 110.667969 39.902344 C 110.535156 40.222656 110.375 40.523438 110.179688 40.8125 C 109.988281 41.101562 109.769531 41.367188 109.527344 41.613281 L 109.476562 41.660156 C 109.230469 41.902344 108.960938 42.117188 108.671875 42.308594 C 108.378906 42.5 108.074219 42.660156 107.75 42.789062 C 107.429688 42.917969 107.097656 43.015625 106.757812 43.082031 C 106.417969 43.144531 106.070312 43.175781 105.726562 43.175781 C 105.378906 43.171875 105.035156 43.136719 104.695312 43.066406 C 104.355469 43 104.023438 42.898438 103.703125 42.761719 C 103.382812 42.628906 103.078125 42.464844 102.789062 42.273438 C 102.503906 42.078125 102.234375 41.859375 101.992188 41.613281 Z M 88.285156 53.527344 C 88.039062 53.28125 87.816406 53.011719 87.621094 52.722656 C 87.425781 52.429688 87.261719 52.125 87.128906 51.800781 C 86.996094 51.476562 86.894531 51.144531 86.824219 50.800781 C 86.757812 50.460938 86.722656 50.113281 86.722656 49.765625 C 86.722656 49.414062 86.757812 49.066406 86.824219 48.726562 C 86.894531 48.382812 86.996094 48.050781 87.128906 47.726562 C 87.261719 47.402344 87.425781 47.097656 87.621094 46.804688 C 87.816406 46.515625 88.039062 46.246094 88.285156 46 L 88.332031 45.945312 C 88.582031 45.703125 88.851562 45.488281 89.140625 45.300781 C 89.433594 45.109375 89.738281 44.953125 90.058594 44.820312 C 90.382812 44.691406 90.710938 44.597656 91.054688 44.53125 C 91.394531 44.464844 91.738281 44.4375 92.082031 44.4375 C 92.429688 44.441406 92.773438 44.476562 93.113281 44.546875 C 93.453125 44.617188 93.78125 44.71875 94.101562 44.851562 C 94.421875 44.984375 94.726562 45.148438 95.011719 45.34375 C 95.300781 45.535156 95.566406 45.753906 95.8125 46 L 95.859375 46.046875 C 96.089844 46.285156 96.296875 46.539062 96.484375 46.8125 C 96.5 46.835938 96.507812 46.867188 96.523438 46.890625 C 96.671875 47.125 96.800781 47.367188 96.910156 47.617188 C 96.949219 47.707031 96.980469 47.792969 97.011719 47.878906 C 97.09375 48.09375 97.160156 48.3125 97.210938 48.535156 C 97.234375 48.628906 97.257812 48.722656 97.273438 48.816406 C 97.332031 49.128906 97.363281 49.441406 97.367188 49.757812 L 97.367188 49.765625 C 97.363281 50.085938 97.332031 50.410156 97.273438 50.726562 C 97.257812 50.804688 97.242188 50.886719 97.21875 50.964844 C 97.160156 51.226562 97.082031 51.484375 96.980469 51.738281 C 96.964844 51.777344 96.949219 51.824219 96.933594 51.863281 C 96.808594 52.148438 96.664062 52.417969 96.492188 52.675781 C 96.460938 52.730469 96.414062 52.785156 96.378906 52.84375 C 96.230469 53.046875 96.066406 53.242188 95.890625 53.425781 C 95.828125 53.488281 95.773438 53.558594 95.710938 53.625 C 95.496094 53.824219 95.265625 54.007812 95.023438 54.175781 C 94.96875 54.207031 94.914062 54.238281 94.867188 54.269531 C 94.355469 54.589844 93.808594 54.816406 93.222656 54.953125 C 92.636719 55.085938 92.042969 55.117188 91.445312 55.050781 C 90.847656 54.984375 90.277344 54.820312 89.738281 54.558594 C 89.195312 54.296875 88.710938 53.953125 88.285156 53.527344 Z M 76.054688 50.175781 C 76.734375 50.039062 77.40625 50.074219 78.066406 50.277344 C 78.730469 50.484375 79.300781 50.832031 79.789062 51.324219 L 79.84375 51.375 C 80.035156 51.570312 80.203125 51.785156 80.351562 52.015625 C 80.5 52.246094 80.625 52.488281 80.726562 52.746094 C 80.828125 53 80.902344 53.261719 80.953125 53.53125 C 81 53.804688 81.023438 54.074219 81.019531 54.351562 C 81.015625 54.625 80.984375 54.894531 80.925781 55.164062 C 80.871094 55.433594 80.789062 55.691406 80.679688 55.945312 C 80.570312 56.195312 80.4375 56.4375 80.285156 56.664062 C 80.128906 56.890625 79.953125 57.097656 79.757812 57.289062 C 79.558594 57.480469 79.347656 57.652344 79.117188 57.804688 C 78.886719 57.953125 78.644531 58.078125 78.390625 58.183594 C 78.136719 58.285156 77.875 58.363281 77.605469 58.414062 C 77.335938 58.464844 77.0625 58.488281 76.789062 58.488281 C 76.515625 58.484375 76.242188 58.457031 75.972656 58.398438 C 75.703125 58.34375 75.445312 58.265625 75.191406 58.15625 C 74.9375 58.050781 74.699219 57.921875 74.46875 57.765625 C 74.242188 57.613281 74.03125 57.4375 73.839844 57.242188 C 73.644531 57.046875 73.472656 56.835938 73.320312 56.609375 C 73.171875 56.378906 73.042969 56.136719 72.9375 55.882812 C 72.832031 55.628906 72.753906 55.367188 72.703125 55.097656 C 72.648438 54.828125 72.621094 54.558594 72.621094 54.285156 C 72.625 54.007812 72.648438 53.738281 72.703125 53.46875 C 72.757812 53.199219 72.835938 52.9375 72.941406 52.683594 C 73.046875 52.429688 73.175781 52.1875 73.328125 51.960938 C 73.480469 51.730469 73.652344 51.519531 73.847656 51.324219 C 73.933594 51.238281 74.035156 51.167969 74.128906 51.089844 C 74.617188 50.679688 75.171875 50.394531 75.789062 50.238281 C 75.875 50.210938 75.964844 50.191406 76.054688 50.171875 Z M 62.5 41.667969 L 62.453125 41.613281 C 61.703125 40.867188 61.222656 39.972656 61.007812 38.9375 L 61.007812 38.890625 C 60.9375 38.546875 60.898438 38.199219 60.898438 37.847656 C 60.902344 37.527344 60.933594 37.203125 60.992188 36.886719 L 61.0625 36.601562 C 61.113281 36.390625 61.175781 36.183594 61.253906 35.980469 C 61.292969 35.878906 61.332031 35.773438 61.378906 35.664062 C 61.46875 35.472656 61.570312 35.285156 61.679688 35.105469 C 61.726562 35.023438 61.773438 34.929688 61.828125 34.851562 C 62.003906 34.597656 62.195312 34.355469 62.40625 34.132812 L 62.460938 34.085938 C 62.9375 33.605469 63.488281 33.230469 64.109375 32.964844 C 64.128906 32.960938 64.148438 32.953125 64.164062 32.941406 C 64.464844 32.816406 64.769531 32.722656 65.089844 32.65625 C 65.132812 32.644531 65.183594 32.632812 65.230469 32.625 C 65.558594 32.558594 65.890625 32.527344 66.222656 32.523438 C 66.929688 32.523438 67.609375 32.660156 68.261719 32.929688 C 68.914062 33.199219 69.488281 33.585938 69.988281 34.085938 L 70.003906 34.101562 C 70.136719 34.242188 70.25 34.402344 70.375 34.550781 C 70.460938 34.667969 70.5625 34.773438 70.652344 34.890625 C 70.761719 35.0625 70.839844 35.246094 70.933594 35.425781 C 70.996094 35.542969 71.078125 35.664062 71.132812 35.789062 C 71.210938 36 71.277344 36.210938 71.328125 36.429688 C 71.359375 36.546875 71.410156 36.65625 71.433594 36.785156 C 71.503906 37.121094 71.535156 37.457031 71.535156 37.800781 C 71.535156 37.816406 71.542969 37.832031 71.542969 37.847656 C 71.539062 38.1875 71.507812 38.519531 71.441406 38.851562 C 71.433594 38.890625 71.433594 38.929688 71.425781 38.960938 C 71.222656 39.910156 70.792969 40.738281 70.136719 41.453125 C 69.480469 42.167969 68.6875 42.664062 67.761719 42.945312 C 66.832031 43.226562 65.898438 43.253906 64.957031 43.023438 C 64.015625 42.796875 63.195312 42.34375 62.5 41.667969 Z M 68.65625 61.675781 C 68.28125 62.226562 68.023438 62.824219 67.882812 63.46875 C 67.800781 63.832031 67.761719 64.195312 67.761719 64.566406 L 67.761719 66.160156 L 56.320312 66.160156 L 56.320312 50.914062 C 56.324219 49.636719 56.777344 48.546875 57.6875 47.648438 C 58.042969 47.300781 58.445312 47.015625 58.894531 46.796875 C 59.542969 46.484375 60.226562 46.316406 60.945312 46.292969 L 71.488281 46.292969 C 72.46875 46.292969 73.363281 46.582031 74.160156 47.152344 C 74.59375 47.457031 74.960938 47.828125 75.265625 48.257812 C 74.980469 48.328125 74.699219 48.421875 74.429688 48.542969 C 74.382812 48.558594 74.34375 48.582031 74.304688 48.597656 C 74.015625 48.730469 73.734375 48.882812 73.46875 49.054688 C 73.390625 49.101562 73.308594 49.15625 73.238281 49.203125 C 72.945312 49.402344 72.671875 49.628906 72.417969 49.882812 L 72.410156 49.882812 L 72.410156 49.890625 C 72.121094 50.179688 71.859375 50.496094 71.632812 50.835938 C 71.40625 51.175781 71.210938 51.535156 71.054688 51.910156 C 70.898438 52.289062 70.78125 52.679688 70.699219 53.082031 C 70.621094 53.480469 70.578125 53.886719 70.578125 54.296875 C 70.578125 54.707031 70.621094 55.113281 70.699219 55.511719 C 70.78125 55.914062 70.898438 56.304688 71.054688 56.683594 C 71.210938 57.0625 71.40625 57.421875 71.632812 57.761719 C 71.859375 58.101562 72.121094 58.414062 72.410156 58.703125 C 72.660156 58.957031 72.933594 59.183594 73.222656 59.390625 L 72.9375 59.390625 C 72.597656 59.390625 72.257812 59.425781 71.921875 59.492188 C 70.550781 59.800781 69.460938 60.527344 68.65625 61.675781 Z M 83.835938 66.160156 L 69.804688 66.160156 L 69.804688 64.566406 C 69.804688 64.351562 69.824219 64.144531 69.871094 63.933594 C 70 63.324219 70.285156 62.792969 70.722656 62.347656 L 70.769531 62.300781 C 70.910156 62.167969 71.0625 62.046875 71.226562 61.9375 C 71.746094 61.59375 72.316406 61.425781 72.9375 61.425781 L 80.703125 61.425781 C 81.230469 61.429688 81.726562 61.566406 82.1875 61.828125 C 82.351562 61.914062 82.507812 62.015625 82.652344 62.136719 C 82.714844 62.191406 82.785156 62.238281 82.839844 62.292969 C 83.035156 62.46875 83.203125 62.660156 83.347656 62.878906 L 83.394531 62.972656 C 83.503906 63.164062 83.59375 63.367188 83.660156 63.578125 C 83.6875 63.644531 83.707031 63.710938 83.726562 63.777344 C 83.792969 64.035156 83.832031 64.296875 83.835938 64.566406 Z M 85.878906 66.167969 L 85.878906 64.566406 C 85.875 64.261719 85.84375 63.957031 85.785156 63.660156 C 85.769531 63.570312 85.746094 63.484375 85.730469 63.40625 C 85.675781 63.183594 85.609375 62.964844 85.53125 62.75 C 85.5 62.679688 85.476562 62.609375 85.453125 62.539062 C 85.347656 62.285156 85.222656 62.046875 85.074219 61.820312 C 85.066406 61.804688 85.058594 61.792969 85.050781 61.78125 C 84.957031 61.636719 84.84375 61.511719 84.742188 61.378906 C 84.640625 61.257812 84.554688 61.125 84.441406 61.015625 C 84.4375 61 84.429688 60.988281 84.417969 60.976562 L 84.355469 60.914062 C 84.238281 60.800781 84.117188 60.699219 83.984375 60.605469 C 83.90625 60.542969 83.835938 60.453125 83.75 60.390625 C 84.035156 59.839844 84.425781 59.382812 84.925781 59.011719 C 85.636719 58.472656 86.4375 58.207031 87.332031 58.207031 L 96.757812 58.207031 C 97.75 58.214844 98.625 58.539062 99.378906 59.183594 C 97.863281 59.84375 96.542969 60.78125 95.417969 61.996094 C 94.296875 63.210938 93.464844 64.601562 92.925781 66.167969 Z M 104.003906 79.476562 C 103.382812 79.472656 102.769531 79.402344 102.164062 79.277344 C 101.558594 79.148438 100.96875 78.964844 100.398438 78.722656 C 99.828125 78.480469 99.289062 78.183594 98.773438 77.835938 C 98.261719 77.488281 97.789062 77.089844 97.355469 76.648438 C 96.917969 76.210938 96.53125 75.730469 96.191406 75.210938 C 95.847656 74.695312 95.5625 74.148438 95.328125 73.578125 C 95.09375 73.003906 94.914062 72.410156 94.796875 71.804688 C 94.679688 71.195312 94.621094 70.582031 94.621094 69.960938 C 94.621094 69.371094 94.679688 68.785156 94.792969 68.203125 C 94.929688 67.5 95.144531 66.820312 95.441406 66.167969 C 95.953125 65.03125 96.65625 64.035156 97.558594 63.175781 C 98.460938 62.316406 99.492188 61.660156 100.648438 61.203125 C 101.285156 60.949219 101.945312 60.769531 102.621094 60.667969 C 103.109375 60.589844 103.601562 60.554688 104.097656 60.558594 C 105.007812 60.5625 105.898438 60.691406 106.773438 60.953125 C 107.644531 61.214844 108.464844 61.59375 109.226562 62.089844 C 109.988281 62.589844 110.664062 63.183594 111.257812 63.878906 C 111.847656 64.570312 112.328125 65.335938 112.699219 66.167969 C 112.996094 66.820312 113.210938 67.5 113.34375 68.203125 C 113.46875 68.828125 113.53125 69.460938 113.527344 70.097656 C 113.519531 70.714844 113.449219 71.328125 113.324219 71.9375 C 113.195312 72.542969 113.011719 73.132812 112.769531 73.703125 C 112.523438 74.273438 112.230469 74.8125 111.878906 75.324219 C 111.53125 75.839844 111.136719 76.3125 110.695312 76.746094 C 110.253906 77.183594 109.773438 77.570312 109.257812 77.910156 C 108.738281 78.253906 108.191406 78.539062 107.617188 78.773438 C 107.042969 79.007812 106.453125 79.183594 105.84375 79.304688 C 105.238281 79.421875 104.621094 79.480469 104.003906 79.476562 Z M 115.65625 66.167969 L 115.222656 66.167969 C 115.023438 65.589844 114.78125 65.03125 114.496094 64.492188 C 114.210938 63.953125 113.886719 63.4375 113.519531 62.949219 C 113.15625 62.460938 112.753906 62.003906 112.320312 61.578125 C 111.882812 61.148438 111.417969 60.757812 110.921875 60.402344 C 110.425781 60.050781 109.902344 59.734375 109.359375 59.460938 C 108.8125 59.1875 108.25 58.957031 107.667969 58.769531 C 107.085938 58.585938 106.496094 58.445312 105.894531 58.347656 C 105.289062 58.253906 104.683594 58.207031 104.074219 58.207031 C 103.207031 58.207031 102.355469 58.296875 101.507812 58.480469 C 101.363281 58.296875 101.210938 58.121094 101.042969 57.953125 C 100.476562 57.382812 99.820312 56.945312 99.078125 56.636719 C 98.335938 56.324219 97.5625 56.171875 96.757812 56.171875 L 95.867188 56.171875 L 95.867188 56.050781 C 95.898438 56.035156 95.921875 56.011719 95.953125 55.996094 C 96.128906 55.886719 96.285156 55.777344 96.453125 55.648438 L 96.617188 55.53125 C 96.816406 55.371094 97.011719 55.199219 97.195312 55.027344 L 97.25 54.96875 C 97.4375 54.78125 97.613281 54.582031 97.777344 54.371094 C 97.808594 54.339844 97.835938 54.304688 97.855469 54.269531 C 98 54.09375 98.128906 53.910156 98.25 53.714844 L 98.296875 53.644531 C 98.320312 53.613281 98.328125 53.582031 98.351562 53.550781 C 98.488281 53.328125 98.605469 53.09375 98.722656 52.855469 C 98.738281 52.808594 98.761719 52.769531 98.78125 52.722656 C 98.902344 52.441406 99.011719 52.15625 99.101562 51.863281 C 99.117188 51.804688 99.125 51.75 99.140625 51.695312 C 99.207031 51.449219 99.261719 51.199219 99.300781 50.945312 C 99.316406 50.867188 99.324219 50.789062 99.339844 50.710938 C 99.378906 50.394531 99.402344 50.078125 99.402344 49.761719 C 99.402344 49.4375 99.378906 49.113281 99.332031 48.792969 C 99.324219 48.714844 99.308594 48.632812 99.300781 48.554688 C 99.25 48.261719 99.183594 47.972656 99.101562 47.6875 C 99.101562 47.671875 99.09375 47.65625 99.09375 47.640625 L 99.085938 47.617188 C 99.085938 47.609375 99.078125 47.601562 99.078125 47.59375 L 99.078125 47.585938 C 99.074219 47.585938 99.070312 47.582031 99.070312 47.578125 C 98.980469 47.296875 98.875 47.019531 98.753906 46.75 C 98.738281 46.71875 98.730469 46.683594 98.714844 46.652344 C 98.851562 46.59375 98.992188 46.539062 99.132812 46.496094 C 99.578125 46.363281 100.03125 46.296875 100.492188 46.296875 L 111.03125 46.296875 C 111.335938 46.300781 111.636719 46.328125 111.933594 46.390625 C 112.230469 46.449219 112.519531 46.535156 112.800781 46.652344 C 113.082031 46.769531 113.347656 46.910156 113.597656 47.082031 C 113.851562 47.25 114.085938 47.441406 114.300781 47.65625 C 114.515625 47.871094 114.707031 48.101562 114.875 48.355469 C 115.042969 48.609375 115.1875 48.875 115.300781 49.152344 C 115.417969 49.433594 115.507812 49.722656 115.566406 50.019531 C 115.625 50.316406 115.65625 50.617188 115.65625 50.921875 Z M 107.554688 66.042969 L 105.691406 67.902344 C 104.554688 69.046875 103.417969 70.183594 102.226562 71.375 C 101.652344 70.792969 101.113281 70.238281 100.5625 69.695312 C 100.445312 69.558594 100.308594 69.453125 100.148438 69.375 C 99.988281 69.300781 99.820312 69.257812 99.644531 69.25 C 99.464844 69.242188 99.292969 69.269531 99.128906 69.335938 C 98.960938 69.398438 98.816406 69.496094 98.691406 69.621094 C 98.5625 69.746094 98.46875 69.890625 98.402344 70.054688 C 98.335938 70.21875 98.304688 70.390625 98.3125 70.570312 C 98.316406 70.746094 98.359375 70.914062 98.433594 71.074219 C 98.507812 71.238281 98.613281 71.375 98.746094 71.492188 C 99.59375 72.34375 100.429688 73.191406 101.28125 74.023438 C 101.402344 74.164062 101.542969 74.273438 101.710938 74.347656 C 101.878906 74.425781 102.054688 74.464844 102.238281 74.464844 C 102.421875 74.464844 102.597656 74.425781 102.765625 74.347656 C 102.933594 74.273438 103.078125 74.164062 103.199219 74.023438 C 105.257812 71.96875 107.3125 69.90625 109.367188 67.847656 C 109.507812 67.734375 109.621094 67.59375 109.703125 67.429688 C 109.78125 67.269531 109.828125 67.097656 109.835938 66.914062 C 109.84375 66.734375 109.816406 66.558594 109.75 66.386719 C 109.6875 66.21875 109.589844 66.070312 109.460938 65.941406 C 109.332031 65.8125 109.179688 65.714844 109.011719 65.652344 C 108.839844 65.585938 108.664062 65.558594 108.484375 65.566406 C 108.300781 65.578125 108.128906 65.625 107.96875 65.707031 C 107.804688 65.789062 107.667969 65.898438 107.554688 66.042969 Z M 109.445312 65.929688 C 109.316406 65.804688 109.167969 65.714844 109 65.652344 C 108.828125 65.589844 108.65625 65.5625 108.476562 65.574219 C 108.296875 65.582031 108.125 65.628906 107.964844 65.710938 C 107.804688 65.792969 107.667969 65.902344 107.554688 66.042969 L 105.691406 67.902344 C 104.554688 69.046875 103.417969 70.183594 102.226562 71.375 C 101.652344 70.792969 101.113281 70.238281 100.5625 69.695312 C 100.445312 69.558594 100.308594 69.453125 100.148438 69.375 C 99.988281 69.300781 99.820312 69.257812 99.644531 69.25 C 99.464844 69.242188 99.292969 69.269531 99.128906 69.335938 C 98.960938 69.398438 98.816406 69.496094 98.691406 69.621094 C 98.5625 69.746094 98.46875 69.890625 98.402344 70.054688 C 98.335938 70.21875 98.304688 70.390625 98.3125 70.570312 C 98.316406 70.746094 98.359375 70.914062 98.433594 71.074219 C 98.507812 71.238281 98.613281 71.375 98.746094 71.492188 C 99.59375 72.34375 100.429688 73.191406 101.28125 74.023438 C 101.402344 74.164062 101.542969 74.273438 101.710938 74.347656 C 101.878906 74.425781 102.054688 74.464844 102.238281 74.464844 C 102.421875 74.464844 102.597656 74.425781 102.765625 74.347656 C 102.933594 74.273438 103.078125 74.164062 103.199219 74.023438 C 105.257812 71.96875 107.3125 69.90625 109.367188 67.847656 C 109.507812 67.730469 109.617188 67.589844 109.699219 67.425781 C 109.777344 67.261719 109.820312 67.089844 109.828125 66.90625 C 109.835938 66.722656 109.808594 66.546875 109.742188 66.378906 C 109.675781 66.207031 109.578125 66.058594 109.445312 65.929688 Z M 109.445312 65.929688 C 109.316406 65.804688 109.167969 65.714844 109 65.652344 C 108.828125 65.589844 108.65625 65.5625 108.476562 65.574219 C 108.296875 65.582031 108.125 65.628906 107.964844 65.710938 C 107.804688 65.792969 107.667969 65.902344 107.554688 66.042969 L 105.691406 67.902344 C 104.554688 69.046875 103.417969 70.183594 102.226562 71.375 C 101.652344 70.792969 101.113281 70.238281 100.5625 69.695312 C 100.445312 69.558594 100.308594 69.453125 100.148438 69.375 C 99.988281 69.300781 99.820312 69.257812 99.644531 69.25 C 99.464844 69.242188 99.292969 69.269531 99.128906 69.335938 C 98.960938 69.398438 98.816406 69.496094 98.691406 69.621094 C 98.5625 69.746094 98.46875 69.890625 98.402344 70.054688 C 98.335938 70.21875 98.304688 70.390625 98.3125 70.570312 C 98.316406 70.746094 98.359375 70.914062 98.433594 71.074219 C 98.507812 71.238281 98.613281 71.375 98.746094 71.492188 C 99.59375 72.34375 100.429688 73.191406 101.28125 74.023438 C 101.402344 74.164062 101.542969 74.273438 101.710938 74.347656 C 101.878906 74.425781 102.054688 74.464844 102.238281 74.464844 C 102.421875 74.464844 102.597656 74.425781 102.765625 74.347656 C 102.933594 74.273438 103.078125 74.164062 103.199219 74.023438 C 105.257812 71.96875 107.3125 69.90625 109.367188 67.847656 C 109.507812 67.730469 109.617188 67.589844 109.699219 67.425781 C 109.777344 67.261719 109.820312 67.089844 109.828125 66.90625 C 109.835938 66.722656 109.808594 66.546875 109.742188 66.378906 C 109.675781 66.207031 109.578125 66.058594 109.445312 65.929688 Z M 109.445312 65.929688 C 109.316406 65.804688 109.167969 65.714844 109 65.652344 C 108.828125 65.589844 108.65625 65.5625 108.476562 65.574219 C 108.296875 65.582031 108.125 65.628906 107.964844 65.710938 C 107.804688 65.792969 107.667969 65.902344 107.554688 66.042969 L 105.691406 67.902344 C 104.554688 69.046875 103.417969 70.183594 102.226562 71.375 C 101.652344 70.792969 101.113281 70.238281 100.5625 69.695312 C 100.445312 69.558594 100.308594 69.453125 100.148438 69.375 C 99.988281 69.300781 99.820312 69.257812 99.644531 69.25 C 99.464844 69.242188 99.292969 69.269531 99.128906 69.335938 C 98.960938 69.398438 98.816406 69.496094 98.691406 69.621094 C 98.5625 69.746094 98.46875 69.890625 98.402344 70.054688 C 98.335938 70.21875 98.304688 70.390625 98.3125 70.570312 C 98.316406 70.746094 98.359375 70.914062 98.433594 71.074219 C 98.507812 71.238281 98.613281 71.375 98.746094 71.492188 C 99.59375 72.34375 100.429688 73.191406 101.28125 74.023438 C 101.402344 74.164062 101.542969 74.273438 101.710938 74.347656 C 101.878906 74.425781 102.054688 74.464844 102.238281 74.464844 C 102.421875 74.464844 102.597656 74.425781 102.765625 74.347656 C 102.933594 74.273438 103.078125 74.164062 103.199219 74.023438 C 105.257812 71.96875 107.3125 69.90625 109.367188 67.847656 C 109.507812 67.730469 109.617188 67.589844 109.699219 67.425781 C 109.777344 67.261719 109.820312 67.089844 109.828125 66.90625 C 109.835938 66.722656 109.808594 66.546875 109.742188 66.378906 C 109.675781 66.207031 109.578125 66.058594 109.445312 65.929688 Z M 109.445312 65.929688 C 109.316406 65.804688 109.167969 65.714844 109 65.652344 C 108.828125 65.589844 108.65625 65.5625 108.476562 65.574219 C 108.296875 65.582031 108.125 65.628906 107.964844 65.710938 C 107.804688 65.792969 107.667969 65.902344 107.554688 66.042969 L 105.691406 67.902344 C 104.554688 69.046875 103.417969 70.183594 102.226562 71.375 C 101.652344 70.792969 101.113281 70.238281 100.5625 69.695312 C 100.445312 69.558594 100.308594 69.453125 100.148438 69.375 C 99.988281 69.300781 99.820312 69.257812 99.644531 69.25 C 99.464844 69.242188 99.292969 69.269531 99.128906 69.335938 C 98.960938 69.398438 98.816406 69.496094 98.691406 69.621094 C 98.5625 69.746094 98.46875 69.890625 98.402344 70.054688 C 98.335938 70.21875 98.304688 70.390625 98.3125 70.570312 C 98.316406 70.746094 98.359375 70.914062 98.433594 71.074219 C 98.507812 71.238281 98.613281 71.375 98.746094 71.492188 C 99.59375 72.34375 100.429688 73.191406 101.28125 74.023438 C 101.402344 74.164062 101.542969 74.273438 101.710938 74.347656 C 101.878906 74.425781 102.054688 74.464844 102.238281 74.464844 C 102.421875 74.464844 102.597656 74.425781 102.765625 74.347656 C 102.933594 74.273438 103.078125 74.164062 103.199219 74.023438 C 105.257812 71.96875 107.3125 69.90625 109.367188 67.847656 C 109.507812 67.730469 109.617188 67.589844 109.699219 67.425781 C 109.777344 67.261719 109.820312 67.089844 109.828125 66.90625 C 109.835938 66.722656 109.808594 66.546875 109.742188 66.378906 C 109.675781 66.207031 109.578125 66.058594 109.445312 65.929688 Z M 109.445312 65.929688 C 109.316406 65.804688 109.167969 65.714844 109 65.652344 C 108.828125 65.589844 108.65625 65.5625 108.476562 65.574219 C 108.296875 65.582031 108.125 65.628906 107.964844 65.710938 C 107.804688 65.792969 107.667969 65.902344 107.554688 66.042969 L 105.691406 67.902344 C 104.554688 69.046875 103.417969 70.183594 102.226562 71.375 C 101.652344 70.792969 101.113281 70.238281 100.5625 69.695312 C 100.445312 69.558594 100.308594 69.453125 100.148438 69.375 C 99.988281 69.300781 99.820312 69.257812 99.644531 69.25 C 99.464844 69.242188 99.292969 69.269531 99.128906 69.335938 C 98.960938 69.398438 98.816406 69.496094 98.691406 69.621094 C 98.5625 69.746094 98.46875 69.890625 98.402344 70.054688 C 98.335938 70.21875 98.304688 70.390625 98.3125 70.570312 C 98.316406 70.746094 98.359375 70.914062 98.433594 71.074219 C 98.507812 71.238281 98.613281 71.375 98.746094 71.492188 C 99.59375 72.34375 100.429688 73.191406 101.28125 74.023438 C 101.402344 74.164062 101.542969 74.273438 101.710938 74.347656 C 101.878906 74.425781 102.054688 74.464844 102.238281 74.464844 C 102.421875 74.464844 102.597656 74.425781 102.765625 74.347656 C 102.933594 74.273438 103.078125 74.164062 103.199219 74.023438 C 105.257812 71.96875 107.3125 69.90625 109.367188 67.847656 C 109.507812 67.730469 109.617188 67.589844 109.699219 67.425781 C 109.777344 67.261719 109.820312 67.089844 109.828125 66.90625 C 109.835938 66.722656 109.808594 66.546875 109.742188 66.378906 C 109.675781 66.207031 109.578125 66.058594 109.445312 65.929688 Z M 109.445312 65.929688 C 109.316406 65.804688 109.167969 65.714844 109 65.652344 C 108.828125 65.589844 108.65625 65.5625 108.476562 65.574219 C 108.296875 65.582031 108.125 65.628906 107.964844 65.710938 C 107.804688 65.792969 107.667969 65.902344 107.554688 66.042969 L 105.691406 67.902344 C 104.554688 69.046875 103.417969 70.183594 102.226562 71.375 C 101.652344 70.792969 101.113281 70.238281 100.5625 69.695312 C 100.445312 69.558594 100.308594 69.453125 100.148438 69.375 C 99.988281 69.300781 99.820312 69.257812 99.644531 69.25 C 99.464844 69.242188 99.292969 69.269531 99.128906 69.335938 C 98.960938 69.398438 98.816406 69.496094 98.691406 69.621094 C 98.5625 69.746094 98.46875 69.890625 98.402344 70.054688 C 98.335938 70.21875 98.304688 70.390625 98.3125 70.570312 C 98.316406 70.746094 98.359375 70.914062 98.433594 71.074219 C 98.507812 71.238281 98.613281 71.375 98.746094 71.492188 C 99.59375 72.34375 100.429688 73.191406 101.28125 74.023438 C 101.402344 74.164062 101.542969 74.273438 101.710938 74.347656 C 101.878906 74.425781 102.054688 74.464844 102.238281 74.464844 C 102.421875 74.464844 102.597656 74.425781 102.765625 74.347656 C 102.933594 74.273438 103.078125 74.164062 103.199219 74.023438 C 105.257812 71.96875 107.3125 69.90625 109.367188 67.847656 C 109.507812 67.730469 109.617188 67.589844 109.699219 67.425781 C 109.777344 67.261719 109.820312 67.089844 109.828125 66.90625 C 109.835938 66.722656 109.808594 66.546875 109.742188 66.378906 C 109.675781 66.207031 109.578125 66.058594 109.445312 65.929688 Z M 109.445312 65.929688 C 109.316406 65.804688 109.167969 65.714844 109 65.652344 C 108.828125 65.589844 108.65625 65.5625 108.476562 65.574219 C 108.296875 65.582031 108.125 65.628906 107.964844 65.710938 C 107.804688 65.792969 107.667969 65.902344 107.554688 66.042969 L 105.691406 67.902344 C 104.554688 69.046875 103.417969 70.183594 102.226562 71.375 C 101.652344 70.792969 101.113281 70.238281 100.5625 69.695312 C 100.445312 69.558594 100.308594 69.453125 100.148438 69.375 C 99.988281 69.300781 99.820312 69.257812 99.644531 69.25 C 99.464844 69.242188 99.292969 69.269531 99.128906 69.335938 C 98.960938 69.398438 98.816406 69.496094 98.691406 69.621094 C 98.5625 69.746094 98.46875 69.890625 98.402344 70.054688 C 98.335938 70.21875 98.304688 70.390625 98.3125 70.570312 C 98.316406 70.746094 98.359375 70.914062 98.433594 71.074219 C 98.507812 71.238281 98.613281 71.375 98.746094 71.492188 C 99.59375 72.34375 100.429688 73.191406 101.28125 74.023438 C 101.402344 74.164062 101.542969 74.273438 101.710938 74.347656 C 101.878906 74.425781 102.054688 74.464844 102.238281 74.464844 C 102.421875 74.464844 102.597656 74.425781 102.765625 74.347656 C 102.933594 74.273438 103.078125 74.164062 103.199219 74.023438 C 105.257812 71.96875 107.3125 69.90625 109.367188 67.847656 C 109.507812 67.730469 109.617188 67.589844 109.699219 67.425781 C 109.777344 67.261719 109.820312 67.089844 109.828125 66.90625 C 109.835938 66.722656 109.808594 66.546875 109.742188 66.378906 C 109.675781 66.207031 109.578125 66.058594 109.445312 65.929688 Z M 109.445312 65.929688 C 109.316406 65.804688 109.167969 65.714844 109 65.652344 C 108.828125 65.589844 108.65625 65.5625 108.476562 65.574219 C 108.296875 65.582031 108.125 65.628906 107.964844 65.710938 C 107.804688 65.792969 107.667969 65.902344 107.554688 66.042969 L 105.691406 67.902344 C 104.554688 69.046875 103.417969 70.183594 102.226562 71.375 C 101.652344 70.792969 101.113281 70.238281 100.5625 69.695312 C 100.445312 69.558594 100.308594 69.453125 100.148438 69.375 C 99.988281 69.300781 99.820312 69.257812 99.644531 69.25 C 99.464844 69.242188 99.292969 69.269531 99.128906 69.335938 C 98.960938 69.398438 98.816406 69.496094 98.691406 69.621094 C 98.5625 69.746094 98.46875 69.890625 98.402344 70.054688 C 98.335938 70.21875 98.304688 70.390625 98.3125 70.570312 C 98.316406 70.746094 98.359375 70.914062 98.433594 71.074219 C 98.507812 71.238281 98.613281 71.375 98.746094 71.492188 C 99.59375 72.34375 100.429688 73.191406 101.28125 74.023438 C 101.402344 74.164062 101.542969 74.273438 101.710938 74.347656 C 101.878906 74.425781 102.054688 74.464844 102.238281 74.464844 C 102.421875 74.464844 102.597656 74.425781 102.765625 74.347656 C 102.933594 74.273438 103.078125 74.164062 103.199219 74.023438 C 105.257812 71.96875 107.3125 69.90625 109.367188 67.847656 C 109.507812 67.730469 109.617188 67.589844 109.699219 67.425781 C 109.777344 67.261719 109.820312 67.089844 109.828125 66.90625 C 109.835938 66.722656 109.808594 66.546875 109.742188 66.378906 C 109.675781 66.207031 109.578125 66.058594 109.445312 65.929688 Z M 109.445312 65.929688 " fill-opacity="1" fill-rule="nonzero"/></g><path fill="#fdfbfe" d="M 113.34375 68.203125 C 113.210938 67.5 112.996094 66.820312 112.699219 66.167969 C 112.328125 65.335938 111.847656 64.570312 111.257812 63.878906 C 110.664062 63.183594 109.988281 62.589844 109.226562 62.089844 C 108.464844 61.59375 107.644531 61.214844 106.773438 60.953125 C 105.898438 60.691406 105.007812 60.5625 104.097656 60.558594 C 103.601562 60.554688 103.109375 60.589844 102.621094 60.667969 C 101.945312 60.769531 101.285156 60.949219 100.648438 61.203125 C 99.492188 61.660156 98.460938 62.316406 97.558594 63.175781 C 96.65625 64.035156 95.953125 65.03125 95.441406 66.167969 C 95.144531 66.820312 94.929688 67.5 94.792969 68.203125 C 94.679688 68.785156 94.621094 69.371094 94.621094 69.960938 C 94.617188 70.582031 94.671875 71.199219 94.789062 71.804688 C 94.90625 72.414062 95.082031 73.007812 95.316406 73.582031 C 95.550781 74.15625 95.835938 74.703125 96.179688 75.222656 C 96.519531 75.742188 96.910156 76.222656 97.34375 76.664062 C 97.78125 77.105469 98.253906 77.5 98.769531 77.847656 C 99.28125 78.195312 99.824219 78.492188 100.394531 78.730469 C 100.96875 78.972656 101.558594 79.15625 102.164062 79.28125 C 102.773438 79.40625 103.386719 79.472656 104.007812 79.476562 C 104.628906 79.480469 105.242188 79.425781 105.851562 79.308594 C 106.460938 79.191406 107.054688 79.015625 107.628906 78.785156 C 108.203125 78.550781 108.75 78.261719 109.269531 77.921875 C 109.785156 77.582031 110.265625 77.191406 110.707031 76.757812 C 111.152344 76.320312 111.546875 75.847656 111.894531 75.335938 C 112.242188 74.820312 112.539062 74.277344 112.78125 73.707031 C 113.019531 73.136719 113.203125 72.546875 113.332031 71.9375 C 113.457031 71.332031 113.519531 70.714844 113.527344 70.097656 C 113.53125 69.457031 113.46875 68.828125 113.34375 68.203125 Z M 109.367188 67.847656 C 107.316406 69.917969 105.261719 71.976562 103.199219 74.027344 C 103.078125 74.167969 102.933594 74.277344 102.765625 74.351562 C 102.597656 74.429688 102.421875 74.46875 102.238281 74.46875 C 102.054688 74.46875 101.878906 74.429688 101.710938 74.351562 C 101.542969 74.277344 101.402344 74.167969 101.28125 74.027344 C 100.429688 73.191406 99.59375 72.347656 98.746094 71.496094 C 98.613281 71.378906 98.507812 71.238281 98.433594 71.078125 C 98.359375 70.917969 98.316406 70.75 98.3125 70.570312 C 98.304688 70.394531 98.335938 70.222656 98.402344 70.058594 C 98.46875 69.894531 98.5625 69.746094 98.691406 69.621094 C 98.816406 69.496094 98.960938 69.402344 99.128906 69.339844 C 99.292969 69.273438 99.464844 69.246094 99.644531 69.253906 C 99.820312 69.261719 99.988281 69.300781 100.148438 69.378906 C 100.308594 69.457031 100.445312 69.5625 100.5625 69.699219 C 101.113281 70.242188 101.652344 70.792969 102.226562 71.378906 C 103.417969 70.1875 104.554688 69.050781 105.691406 67.90625 L 107.554688 66.042969 C 107.667969 65.902344 107.804688 65.792969 107.96875 65.710938 C 108.128906 65.625 108.300781 65.582031 108.484375 65.570312 C 108.664062 65.5625 108.839844 65.589844 109.011719 65.65625 C 109.179688 65.71875 109.332031 65.816406 109.460938 65.945312 C 109.589844 66.074219 109.6875 66.222656 109.75 66.390625 C 109.816406 66.5625 109.84375 66.738281 109.835938 66.917969 C 109.828125 67.101562 109.78125 67.273438 109.703125 67.433594 C 109.621094 67.597656 109.507812 67.734375 109.367188 67.851562 Z M 109.367188 67.847656 " fill-opacity="1" fill-rule="nonzero"/><path fill="#7bbbff" d="M 71.921875 59.492188 C 70.550781 59.796875 69.460938 60.527344 68.65625 61.675781 C 68.28125 62.226562 68.023438 62.824219 67.882812 63.46875 C 67.800781 63.832031 67.761719 64.195312 67.761719 64.566406 L 67.761719 66.160156 L 56.320312 66.160156 L 56.320312 50.914062 C 56.324219 49.636719 56.777344 48.546875 57.6875 47.648438 C 58.042969 47.300781 58.445312 47.015625 58.894531 46.796875 C 59.542969 46.484375 60.226562 46.316406 60.945312 46.292969 L 71.488281 46.292969 C 72.46875 46.292969 73.363281 46.582031 74.160156 47.152344 C 74.59375 47.457031 74.960938 47.828125 75.265625 48.257812 C 74.980469 48.328125 74.699219 48.421875 74.429688 48.542969 C 74.382812 48.558594 74.34375 48.582031 74.304688 48.597656 C 74.015625 48.730469 73.734375 48.882812 73.46875 49.054688 C 73.390625 49.101562 73.308594 49.15625 73.238281 49.203125 C 72.945312 49.402344 72.671875 49.628906 72.417969 49.882812 L 72.410156 49.882812 L 72.410156 49.890625 C 72.121094 50.179688 71.859375 50.496094 71.632812 50.835938 C 71.40625 51.175781 71.210938 51.535156 71.054688 51.910156 C 70.898438 52.289062 70.78125 52.679688 70.699219 53.082031 C 70.621094 53.480469 70.578125 53.886719 70.578125 54.296875 C 70.578125 54.707031 70.621094 55.113281 70.699219 55.511719 C 70.78125 55.914062 70.898438 56.304688 71.054688 56.683594 C 71.210938 57.0625 71.40625 57.421875 71.632812 57.761719 C 71.859375 58.101562 72.121094 58.414062 72.410156 58.703125 C 72.660156 58.957031 72.933594 59.183594 73.222656 59.390625 L 72.9375 59.390625 C 72.597656 59.390625 72.257812 59.421875 71.921875 59.492188 Z M 83.660156 63.578125 C 83.59375 63.367188 83.503906 63.164062 83.394531 62.972656 L 83.347656 62.878906 C 83.203125 62.660156 83.035156 62.46875 82.839844 62.292969 C 82.785156 62.238281 82.714844 62.191406 82.652344 62.136719 C 82.507812 62.015625 82.351562 61.914062 82.1875 61.828125 C 81.726562 61.566406 81.230469 61.429688 80.703125 61.425781 L 72.9375 61.425781 C 72.316406 61.425781 71.746094 61.59375 71.226562 61.9375 C 71.0625 62.046875 70.910156 62.167969 70.769531 62.300781 L 70.722656 62.347656 C 70.285156 62.792969 70 63.324219 69.871094 63.933594 C 69.824219 64.144531 69.804688 64.351562 69.804688 64.566406 L 69.804688 66.160156 L 83.835938 66.160156 L 83.835938 64.566406 C 83.832031 64.296875 83.792969 64.035156 83.726562 63.777344 C 83.707031 63.710938 83.6875 63.644531 83.660156 63.578125 Z M 96.757812 58.207031 L 87.332031 58.207031 C 86.4375 58.207031 85.636719 58.472656 84.925781 59.011719 C 84.425781 59.382812 84.035156 59.839844 83.75 60.390625 C 83.835938 60.453125 83.90625 60.542969 83.984375 60.605469 C 84.117188 60.699219 84.238281 60.800781 84.355469 60.914062 L 84.417969 60.976562 C 84.429688 60.988281 84.4375 61 84.441406 61.015625 C 84.554688 61.125 84.640625 61.257812 84.742188 61.378906 C 84.84375 61.511719 84.957031 61.636719 85.050781 61.78125 C 85.058594 61.792969 85.066406 61.804688 85.074219 61.820312 C 85.222656 62.046875 85.347656 62.285156 85.453125 62.539062 C 85.476562 62.609375 85.5 62.679688 85.53125 62.75 C 85.609375 62.964844 85.675781 63.183594 85.730469 63.40625 C 85.746094 63.484375 85.769531 63.570312 85.785156 63.660156 C 85.84375 63.957031 85.875 64.261719 85.878906 64.566406 L 85.878906 66.167969 L 92.925781 66.167969 C 93.464844 64.601562 94.296875 63.210938 95.417969 61.996094 C 96.542969 60.78125 97.863281 59.84375 99.378906 59.183594 C 98.625 58.539062 97.75 58.214844 96.757812 58.207031 Z M 105.761719 43.179688 C 106.457031 43.179688 107.125 43.046875 107.769531 42.785156 C 108.414062 42.523438 108.980469 42.148438 109.476562 41.664062 L 109.527344 41.617188 C 109.769531 41.371094 109.988281 41.101562 110.179688 40.816406 C 110.375 40.527344 110.535156 40.222656 110.667969 39.902344 C 110.804688 39.582031 110.902344 39.253906 110.972656 38.914062 C 111.042969 38.574219 111.078125 38.230469 111.082031 37.886719 C 111.082031 37.539062 111.050781 37.195312 110.984375 36.855469 C 110.921875 36.515625 110.824219 36.183594 110.695312 35.863281 C 110.566406 35.539062 110.40625 35.234375 110.21875 34.945312 C 110.03125 34.652344 109.816406 34.382812 109.574219 34.136719 L 109.527344 34.089844 C 109.277344 33.84375 109.007812 33.621094 108.71875 33.429688 C 108.429688 33.234375 108.121094 33.070312 107.796875 32.9375 C 107.476562 32.804688 107.144531 32.703125 106.800781 32.636719 C 106.457031 32.566406 106.113281 32.535156 105.761719 32.535156 C 105.414062 32.535156 105.066406 32.566406 104.722656 32.636719 C 104.382812 32.703125 104.050781 32.804688 103.726562 32.9375 C 103.402344 33.070312 103.097656 33.234375 102.804688 33.429688 C 102.515625 33.621094 102.246094 33.84375 102 34.089844 L 101.992188 34.089844 C 101.617188 34.460938 101.308594 34.878906 101.058594 35.34375 C 100.8125 35.808594 100.636719 36.300781 100.535156 36.816406 C 100.433594 37.332031 100.40625 37.851562 100.460938 38.378906 C 100.511719 38.902344 100.636719 39.40625 100.839844 39.894531 C 101.042969 40.378906 101.308594 40.828125 101.644531 41.234375 C 101.976562 41.640625 102.363281 41.988281 102.804688 42.28125 C 103.242188 42.574219 103.710938 42.796875 104.214844 42.949219 C 104.71875 43.101562 105.234375 43.179688 105.761719 43.179688 Z M 61.007812 38.9375 C 61.222656 39.972656 61.703125 40.867188 62.453125 41.613281 L 62.5 41.667969 C 63.195312 42.34375 64.011719 42.800781 64.957031 43.027344 C 65.898438 43.257812 66.832031 43.234375 67.761719 42.949219 C 68.691406 42.667969 69.480469 42.171875 70.136719 41.457031 C 70.792969 40.742188 71.222656 39.910156 71.425781 38.960938 C 71.433594 38.929688 71.433594 38.890625 71.441406 38.851562 C 71.507812 38.519531 71.539062 38.1875 71.542969 37.847656 C 71.542969 37.832031 71.535156 37.816406 71.535156 37.800781 C 71.535156 37.460938 71.5 37.121094 71.433594 36.785156 C 71.410156 36.660156 71.359375 36.550781 71.328125 36.433594 C 71.277344 36.214844 71.210938 36.003906 71.132812 35.792969 C 71.078125 35.667969 70.996094 35.546875 70.933594 35.429688 C 70.839844 35.25 70.761719 35.066406 70.652344 34.894531 C 70.5625 34.773438 70.460938 34.671875 70.375 34.554688 C 70.25 34.40625 70.136719 34.246094 70.003906 34.105469 L 69.988281 34.089844 C 69.488281 33.589844 68.914062 33.203125 68.261719 32.933594 C 67.609375 32.660156 66.929688 32.527344 66.222656 32.527344 C 65.890625 32.527344 65.558594 32.5625 65.230469 32.628906 C 65.183594 32.632812 65.132812 32.644531 65.089844 32.660156 C 64.769531 32.722656 64.464844 32.816406 64.164062 32.945312 C 64.148438 32.953125 64.128906 32.960938 64.109375 32.96875 C 63.488281 33.234375 62.9375 33.605469 62.460938 34.089844 L 62.40625 34.136719 C 62.195312 34.359375 62.003906 34.597656 61.828125 34.851562 C 61.773438 34.933594 61.726562 35.027344 61.679688 35.105469 C 61.570312 35.285156 61.46875 35.472656 61.378906 35.667969 C 61.332031 35.777344 61.292969 35.878906 61.253906 35.980469 C 61.175781 36.183594 61.113281 36.390625 61.0625 36.605469 L 60.992188 36.890625 C 60.933594 37.207031 60.902344 37.527344 60.898438 37.851562 C 60.898438 38.203125 60.9375 38.550781 61.007812 38.894531 Z M 73.847656 51.324219 C 73.652344 51.519531 73.480469 51.730469 73.328125 51.960938 C 73.175781 52.1875 73.046875 52.429688 72.941406 52.683594 C 72.839844 52.9375 72.757812 53.199219 72.707031 53.46875 C 72.652344 53.734375 72.625 54.007812 72.625 54.28125 C 72.625 54.554688 72.652344 54.828125 72.703125 55.097656 C 72.757812 55.367188 72.835938 55.628906 72.941406 55.882812 C 73.042969 56.136719 73.171875 56.375 73.324219 56.605469 C 73.476562 56.832031 73.648438 57.046875 73.839844 57.242188 C 74.035156 57.433594 74.242188 57.609375 74.472656 57.761719 C 74.699219 57.917969 74.9375 58.046875 75.191406 58.152344 C 75.445312 58.261719 75.703125 58.339844 75.972656 58.394531 C 76.242188 58.453125 76.515625 58.480469 76.789062 58.484375 C 77.0625 58.484375 77.335938 58.460938 77.605469 58.410156 C 77.875 58.359375 78.136719 58.28125 78.390625 58.179688 C 78.644531 58.078125 78.886719 57.949219 79.117188 57.800781 C 79.347656 57.648438 79.558594 57.480469 79.753906 57.289062 C 79.953125 57.09375 80.125 56.886719 80.28125 56.660156 C 80.4375 56.433594 80.570312 56.195312 80.675781 55.941406 C 80.785156 55.691406 80.867188 55.429688 80.925781 55.164062 C 80.984375 54.894531 81.015625 54.621094 81.019531 54.347656 C 81.023438 54.074219 81 53.800781 80.949219 53.53125 C 80.902344 53.261719 80.824219 53 80.726562 52.746094 C 80.625 52.488281 80.5 52.246094 80.351562 52.015625 C 80.203125 51.785156 80.035156 51.570312 79.84375 51.375 L 79.789062 51.324219 C 79.300781 50.832031 78.730469 50.484375 78.066406 50.277344 C 77.40625 50.074219 76.734375 50.039062 76.054688 50.175781 C 75.964844 50.191406 75.875 50.210938 75.789062 50.238281 C 75.171875 50.394531 74.617188 50.679688 74.128906 51.089844 C 74.035156 51.167969 73.933594 51.238281 73.847656 51.324219 Z M 92.050781 55.082031 C 93.066406 55.082031 94.003906 54.8125 94.867188 54.269531 C 94.914062 54.238281 94.96875 54.207031 95.023438 54.175781 C 95.265625 54.007812 95.496094 53.824219 95.710938 53.621094 C 95.773438 53.558594 95.828125 53.488281 95.890625 53.425781 C 96.066406 53.242188 96.230469 53.046875 96.378906 52.839844 C 96.414062 52.785156 96.460938 52.730469 96.492188 52.675781 C 96.664062 52.417969 96.808594 52.148438 96.933594 51.863281 C 96.949219 51.824219 96.964844 51.773438 96.980469 51.734375 C 97.082031 51.484375 97.160156 51.226562 97.21875 50.960938 C 97.242188 50.882812 97.257812 50.804688 97.273438 50.726562 C 97.332031 50.40625 97.363281 50.085938 97.367188 49.761719 L 97.367188 49.753906 C 97.363281 49.4375 97.332031 49.125 97.273438 48.816406 C 97.257812 48.722656 97.234375 48.625 97.210938 48.53125 C 97.160156 48.308594 97.09375 48.089844 97.011719 47.878906 C 96.980469 47.789062 96.949219 47.703125 96.910156 47.617188 C 96.800781 47.363281 96.671875 47.121094 96.523438 46.890625 C 96.507812 46.867188 96.5 46.835938 96.484375 46.8125 C 96.296875 46.539062 96.089844 46.285156 95.859375 46.046875 L 95.8125 46 C 95.566406 45.753906 95.300781 45.535156 95.011719 45.339844 C 94.726562 45.148438 94.421875 44.984375 94.101562 44.851562 C 93.78125 44.714844 93.453125 44.613281 93.113281 44.542969 C 92.773438 44.476562 92.429688 44.4375 92.082031 44.4375 C 91.738281 44.433594 91.394531 44.464844 91.054688 44.53125 C 90.710938 44.59375 90.382812 44.691406 90.058594 44.820312 C 89.738281 44.949219 89.433594 45.109375 89.140625 45.296875 C 88.851562 45.488281 88.582031 45.703125 88.332031 45.945312 L 88.285156 46 C 87.914062 46.371094 87.601562 46.789062 87.355469 47.253906 C 87.105469 47.714844 86.929688 48.207031 86.828125 48.722656 C 86.722656 49.238281 86.699219 49.757812 86.75 50.28125 C 86.800781 50.808594 86.929688 51.3125 87.128906 51.796875 C 87.332031 52.285156 87.597656 52.730469 87.933594 53.136719 C 88.265625 53.542969 88.652344 53.894531 89.089844 54.1875 C 89.527344 54.476562 90 54.699219 90.503906 54.851562 C 91.007812 55.003906 91.523438 55.082031 92.050781 55.082031 Z M 114.300781 47.65625 C 113.398438 46.753906 112.308594 46.304688 111.03125 46.300781 L 100.492188 46.300781 C 100.03125 46.300781 99.578125 46.367188 99.132812 46.496094 C 98.992188 46.542969 98.851562 46.59375 98.714844 46.65625 C 98.730469 46.6875 98.738281 46.71875 98.753906 46.75 C 98.875 47.023438 98.980469 47.296875 99.070312 47.578125 C 99.070312 47.585938 99.074219 47.585938 99.078125 47.585938 L 99.078125 47.597656 C 99.078125 47.605469 99.085938 47.613281 99.085938 47.621094 L 99.09375 47.644531 C 99.09375 47.660156 99.101562 47.675781 99.101562 47.691406 C 99.183594 47.976562 99.25 48.265625 99.300781 48.558594 C 99.308594 48.636719 99.324219 48.71875 99.332031 48.796875 C 99.378906 49.117188 99.402344 49.441406 99.402344 49.765625 C 99.402344 50.082031 99.378906 50.398438 99.339844 50.714844 C 99.324219 50.792969 99.316406 50.871094 99.300781 50.949219 C 99.261719 51.203125 99.207031 51.453125 99.140625 51.699219 C 99.125 51.753906 99.117188 51.808594 99.101562 51.867188 C 99.011719 52.160156 98.902344 52.445312 98.78125 52.726562 C 98.761719 52.773438 98.738281 52.8125 98.722656 52.859375 C 98.605469 53.097656 98.488281 53.335938 98.351562 53.554688 C 98.328125 53.585938 98.320312 53.617188 98.296875 53.648438 L 98.25 53.722656 C 98.128906 53.914062 98 54.097656 97.855469 54.273438 C 97.835938 54.308594 97.808594 54.34375 97.777344 54.375 C 97.613281 54.585938 97.4375 54.785156 97.25 54.972656 L 97.195312 55.03125 C 97.011719 55.203125 96.816406 55.378906 96.617188 55.535156 L 96.453125 55.652344 C 96.285156 55.78125 96.128906 55.890625 95.953125 56 C 95.921875 56.015625 95.898438 56.039062 95.867188 56.054688 L 95.867188 56.175781 L 96.757812 56.175781 C 97.5625 56.175781 98.335938 56.328125 99.078125 56.640625 C 99.820312 56.949219 100.476562 57.386719 101.042969 57.957031 C 101.210938 58.125 101.363281 58.300781 101.507812 58.484375 C 102.355469 58.300781 103.207031 58.210938 104.074219 58.210938 C 104.683594 58.210938 105.289062 58.257812 105.894531 58.351562 C 106.496094 58.449219 107.085938 58.589844 107.667969 58.773438 C 108.25 58.960938 108.8125 59.191406 109.355469 59.464844 C 109.902344 59.738281 110.421875 60.050781 110.917969 60.40625 C 111.417969 60.761719 111.882812 61.152344 112.320312 61.578125 C 112.753906 62.003906 113.15625 62.460938 113.519531 62.949219 C 113.886719 63.441406 114.210938 63.953125 114.496094 64.492188 C 114.78125 65.03125 115.023438 65.589844 115.222656 66.167969 L 115.65625 66.167969 L 115.65625 50.921875 C 115.65625 49.648438 115.203125 48.558594 114.300781 47.65625 Z M 114.300781 47.65625 " fill-opacity="1" fill-rule="nonzero"/><g transform="matrix(1, 0, 0, 1, 12, 99)"><g clip-path="url(#da9bc8cb18)"><g fill="#050f2a" fill-opacity="1"><g transform="translate(1.294212, 16.132369)"><g><path d="M 6.703125 0.171875 C 5.890625 0.171875 5.160156 0.0625 4.515625 -0.15625 C 3.867188 -0.375 3.304688 -0.679688 2.828125 -1.078125 C 2.359375 -1.484375 1.96875 -1.953125 1.65625 -2.484375 C 1.34375 -3.015625 1.109375 -3.59375 0.953125 -4.21875 C 0.796875 -4.851562 0.71875 -5.507812 0.71875 -6.1875 C 0.71875 -6.863281 0.796875 -7.515625 0.953125 -8.140625 C 1.109375 -8.773438 1.34375 -9.359375 1.65625 -9.890625 C 1.96875 -10.421875 2.359375 -10.890625 2.828125 -11.296875 C 3.296875 -11.703125 3.851562 -12.015625 4.5 -12.234375 C 5.144531 -12.453125 5.875 -12.5625 6.6875 -12.5625 C 7.5 -12.5625 8.253906 -12.425781 8.953125 -12.15625 C 9.648438 -11.882812 10.265625 -11.484375 10.796875 -10.953125 C 11.328125 -10.429688 11.757812 -9.785156 12.09375 -9.015625 L 10.015625 -8.1875 C 9.867188 -8.726562 9.632812 -9.164062 9.3125 -9.5 C 8.988281 -9.832031 8.597656 -10.070312 8.140625 -10.21875 C 7.691406 -10.375 7.203125 -10.453125 6.671875 -10.453125 C 6.015625 -10.453125 5.445312 -10.34375 4.96875 -10.125 C 4.5 -9.90625 4.113281 -9.601562 3.8125 -9.21875 C 3.507812 -8.832031 3.285156 -8.382812 3.140625 -7.875 C 2.992188 -7.375 2.921875 -6.84375 2.921875 -6.28125 C 2.921875 -5.664062 2.992188 -5.09375 3.140625 -4.5625 C 3.285156 -4.03125 3.507812 -3.566406 3.8125 -3.171875 C 4.125 -2.785156 4.515625 -2.484375 4.984375 -2.265625 C 5.460938 -2.046875 6.035156 -1.9375 6.703125 -1.9375 C 7.503906 -1.9375 8.179688 -2.109375 8.734375 -2.453125 C 9.285156 -2.804688 9.726562 -3.398438 10.0625 -4.234375 L 12.109375 -3.390625 C 11.785156 -2.617188 11.351562 -1.96875 10.8125 -1.4375 C 10.28125 -0.90625 9.664062 -0.503906 8.96875 -0.234375 C 8.28125 0.0351562 7.523438 0.171875 6.703125 0.171875 Z M 6.703125 0.171875 "/></g></g><g transform="translate(13.821986, 16.132369)"><g><path d="M 6.6875 0.171875 C 5.863281 0.171875 5.128906 0.0625 4.484375 -0.15625 C 3.847656 -0.375 3.289062 -0.679688 2.8125 -1.078125 C 2.34375 -1.484375 1.953125 -1.953125 1.640625 -2.484375 C 1.328125 -3.023438 1.09375 -3.609375 0.9375 -4.234375 C 0.789062 -4.867188 0.71875 -5.519531 0.71875 -6.1875 C 0.71875 -6.863281 0.789062 -7.515625 0.9375 -8.140625 C 1.09375 -8.765625 1.328125 -9.34375 1.640625 -9.875 C 1.953125 -10.414062 2.34375 -10.882812 2.8125 -11.28125 C 3.289062 -11.6875 3.847656 -12 4.484375 -12.21875 C 5.128906 -12.4375 5.863281 -12.546875 6.6875 -12.546875 C 7.5 -12.546875 8.226562 -12.4375 8.875 -12.21875 C 9.519531 -12 10.078125 -11.6875 10.546875 -11.28125 C 11.023438 -10.882812 11.421875 -10.414062 11.734375 -9.875 C 12.046875 -9.34375 12.273438 -8.765625 12.421875 -8.140625 C 12.578125 -7.515625 12.65625 -6.863281 12.65625 -6.1875 C 12.65625 -5.519531 12.578125 -4.867188 12.421875 -4.234375 C 12.273438 -3.609375 12.046875 -3.023438 11.734375 -2.484375 C 11.421875 -1.953125 11.023438 -1.484375 10.546875 -1.078125 C 10.078125 -0.679688 9.519531 -0.375 8.875 -0.15625 C 8.226562 0.0625 7.5 0.171875 6.6875 0.171875 Z M 6.6875 -1.796875 C 7.351562 -1.796875 7.914062 -1.910156 8.375 -2.140625 C 8.832031 -2.378906 9.203125 -2.703125 9.484375 -3.109375 C 9.773438 -3.523438 9.984375 -3.992188 10.109375 -4.515625 C 10.242188 -5.046875 10.3125 -5.601562 10.3125 -6.1875 C 10.3125 -6.769531 10.242188 -7.320312 10.109375 -7.84375 C 9.984375 -8.375 9.773438 -8.84375 9.484375 -9.25 C 9.203125 -9.65625 8.832031 -9.976562 8.375 -10.21875 C 7.914062 -10.457031 7.351562 -10.578125 6.6875 -10.578125 C 6.019531 -10.578125 5.457031 -10.457031 5 -10.21875 C 4.539062 -9.976562 4.164062 -9.65625 3.875 -9.25 C 3.59375 -8.84375 3.382812 -8.375 3.25 -7.84375 C 3.125 -7.320312 3.0625 -6.769531 3.0625 -6.1875 C 3.0625 -5.601562 3.125 -5.046875 3.25 -4.515625 C 3.382812 -3.992188 3.59375 -3.523438 3.875 -3.109375 C 4.164062 -2.703125 4.539062 -2.378906 5 -2.140625 C 5.457031 -1.910156 6.019531 -1.796875 6.6875 -1.796875 Z M 6.6875 -1.796875 "/></g></g><g transform="translate(27.189612, 16.132369)"><g><path d="M 1.59375 0 L 1.59375 -12.359375 L 3.8125 -12.359375 L 3.8125 -2.09375 L 9.09375 -2.09375 L 9.09375 0 Z M 1.59375 0 "/></g></g><g transform="translate(36.48921, 16.132369)"><g><path d="M 1.59375 0 L 1.59375 -12.359375 L 3.8125 -12.359375 L 3.8125 -2.09375 L 9.09375 -2.09375 L 9.09375 0 Z M 1.59375 0 "/></g></g><g transform="translate(45.788808, 16.132369)"><g><path d="M 0.109375 0 L 5.0625 -12.359375 L 6.71875 -12.359375 L 11.640625 0 L 9.25 0 L 8.296875 -2.6875 L 3.484375 -2.6875 L 2.53125 0 Z M 4.25 -4.578125 L 7.546875 -4.578125 L 5.890625 -9.09375 Z M 4.25 -4.578125 "/></g></g><g transform="translate(57.537971, 16.132369)"><g><path d="M 1.59375 0 L 1.59375 -12.359375 L 5.875 -12.359375 C 6.257812 -12.359375 6.640625 -12.320312 7.015625 -12.25 C 7.390625 -12.175781 7.742188 -12.0625 8.078125 -11.90625 C 8.421875 -11.75 8.722656 -11.539062 8.984375 -11.28125 C 9.242188 -11.019531 9.453125 -10.703125 9.609375 -10.328125 C 9.765625 -9.960938 9.84375 -9.53125 9.84375 -9.03125 C 9.84375 -8.65625 9.773438 -8.304688 9.640625 -7.984375 C 9.503906 -7.671875 9.332031 -7.394531 9.125 -7.15625 C 8.914062 -6.925781 8.695312 -6.742188 8.46875 -6.609375 C 8.738281 -6.503906 8.992188 -6.34375 9.234375 -6.125 C 9.484375 -5.914062 9.695312 -5.671875 9.875 -5.390625 C 10.0625 -5.117188 10.203125 -4.828125 10.296875 -4.515625 C 10.398438 -4.203125 10.453125 -3.894531 10.453125 -3.59375 C 10.453125 -3.007812 10.335938 -2.492188 10.109375 -2.046875 C 9.890625 -1.609375 9.59375 -1.234375 9.21875 -0.921875 C 8.84375 -0.617188 8.410156 -0.390625 7.921875 -0.234375 C 7.441406 -0.078125 6.941406 0 6.421875 0 Z M 3.8125 -7.390625 L 6.09375 -7.390625 C 6.382812 -7.390625 6.660156 -7.429688 6.921875 -7.515625 C 7.179688 -7.597656 7.390625 -7.75 7.546875 -7.96875 C 7.710938 -8.1875 7.796875 -8.5 7.796875 -8.90625 C 7.796875 -9.226562 7.710938 -9.492188 7.546875 -9.703125 C 7.378906 -9.921875 7.15625 -10.082031 6.875 -10.1875 C 6.59375 -10.300781 6.273438 -10.359375 5.921875 -10.359375 L 3.8125 -10.359375 Z M 3.8125 -2.125 L 6.453125 -2.125 C 7.023438 -2.125 7.46875 -2.257812 7.78125 -2.53125 C 8.101562 -2.8125 8.265625 -3.242188 8.265625 -3.828125 C 8.265625 -4.128906 8.1875 -4.398438 8.03125 -4.640625 C 7.875 -4.890625 7.65625 -5.085938 7.375 -5.234375 C 7.09375 -5.390625 6.753906 -5.46875 6.359375 -5.46875 L 3.8125 -5.46875 Z M 3.8125 -2.125 "/></g></g><g transform="translate(68.683491, 16.132369)"><g><path d="M 6.6875 0.171875 C 5.863281 0.171875 5.128906 0.0625 4.484375 -0.15625 C 3.847656 -0.375 3.289062 -0.679688 2.8125 -1.078125 C 2.34375 -1.484375 1.953125 -1.953125 1.640625 -2.484375 C 1.328125 -3.023438 1.09375 -3.609375 0.9375 -4.234375 C 0.789062 -4.867188 0.71875 -5.519531 0.71875 -6.1875 C 0.71875 -6.863281 0.789062 -7.515625 0.9375 -8.140625 C 1.09375 -8.765625 1.328125 -9.34375 1.640625 -9.875 C 1.953125 -10.414062 2.34375 -10.882812 2.8125 -11.28125 C 3.289062 -11.6875 3.847656 -12 4.484375 -12.21875 C 5.128906 -12.4375 5.863281 -12.546875 6.6875 -12.546875 C 7.5 -12.546875 8.226562 -12.4375 8.875 -12.21875 C 9.519531 -12 10.078125 -11.6875 10.546875 -11.28125 C 11.023438 -10.882812 11.421875 -10.414062 11.734375 -9.875 C 12.046875 -9.34375 12.273438 -8.765625 12.421875 -8.140625 C 12.578125 -7.515625 12.65625 -6.863281 12.65625 -6.1875 C 12.65625 -5.519531 12.578125 -4.867188 12.421875 -4.234375 C 12.273438 -3.609375 12.046875 -3.023438 11.734375 -2.484375 C 11.421875 -1.953125 11.023438 -1.484375 10.546875 -1.078125 C 10.078125 -0.679688 9.519531 -0.375 8.875 -0.15625 C 8.226562 0.0625 7.5 0.171875 6.6875 0.171875 Z M 6.6875 -1.796875 C 7.351562 -1.796875 7.914062 -1.910156 8.375 -2.140625 C 8.832031 -2.378906 9.203125 -2.703125 9.484375 -3.109375 C 9.773438 -3.523438 9.984375 -3.992188 10.109375 -4.515625 C 10.242188 -5.046875 10.3125 -5.601562 10.3125 -6.1875 C 10.3125 -6.769531 10.242188 -7.320312 10.109375 -7.84375 C 9.984375 -8.375 9.773438 -8.84375 9.484375 -9.25 C 9.203125 -9.65625 8.832031 -9.976562 8.375 -10.21875 C 7.914062 -10.457031 7.351562 -10.578125 6.6875 -10.578125 C 6.019531 -10.578125 5.457031 -10.457031 5 -10.21875 C 4.539062 -9.976562 4.164062 -9.65625 3.875 -9.25 C 3.59375 -8.84375 3.382812 -8.375 3.25 -7.84375 C 3.125 -7.320312 3.0625 -6.769531 3.0625 -6.1875 C 3.0625 -5.601562 3.125 -5.046875 3.25 -4.515625 C 3.382812 -3.992188 3.59375 -3.523438 3.875 -3.109375 C 4.164062 -2.703125 4.539062 -2.378906 5 -2.140625 C 5.457031 -1.910156 6.019531 -1.796875 6.6875 -1.796875 Z M 6.6875 -1.796875 "/></g></g><g transform="translate(82.051116, 16.132369)"><g><path d="M 1.59375 0.015625 L 1.59375 -12.359375 L 5.59375 -12.359375 C 6.164062 -12.359375 6.707031 -12.28125 7.21875 -12.125 C 7.738281 -11.96875 8.195312 -11.734375 8.59375 -11.421875 C 8.988281 -11.109375 9.300781 -10.722656 9.53125 -10.265625 C 9.757812 -9.816406 9.875 -9.300781 9.875 -8.71875 C 9.875 -8.207031 9.769531 -7.738281 9.5625 -7.3125 C 9.351562 -6.882812 9.066406 -6.515625 8.703125 -6.203125 C 8.335938 -5.898438 7.921875 -5.664062 7.453125 -5.5 L 10.890625 0.015625 L 8.34375 0.015625 L 5.296875 -5.28125 L 3.8125 -5.28125 L 3.8125 0.015625 Z M 3.828125 -7.09375 L 5.796875 -7.09375 C 6.378906 -7.125 6.835938 -7.28125 7.171875 -7.5625 C 7.503906 -7.851562 7.671875 -8.226562 7.671875 -8.6875 C 7.671875 -9.195312 7.484375 -9.601562 7.109375 -9.90625 C 6.742188 -10.21875 6.242188 -10.375 5.609375 -10.375 L 3.828125 -10.375 Z M 3.828125 -7.09375 "/></g></g><g transform="translate(93.144146, 16.132369)"><g><path d="M 0.109375 0 L 5.0625 -12.359375 L 6.71875 -12.359375 L 11.640625 0 L 9.25 0 L 8.296875 -2.6875 L 3.484375 -2.6875 L 2.53125 0 Z M 4.25 -4.578125 L 7.546875 -4.578125 L 5.890625 -9.09375 Z M 4.25 -4.578125 "/></g></g><g transform="translate(104.893309, 16.132369)"><g><path d="M 4.046875 0 L 4.046875 -10.375 L 0.171875 -10.375 L 0.171875 -12.359375 L 10.140625 -12.359375 L 10.140625 -10.375 L 6.28125 -10.375 L 6.28125 0 Z M 4.046875 0 "/></g></g><g transform="translate(115.216475, 16.132369)"><g><path d="M 1.59375 0 L 1.59375 -12.359375 L 3.8125 -12.359375 L 3.8125 0 Z M 1.59375 0 "/></g></g><g transform="translate(120.623014, 16.132369)"><g><path d="M 6.6875 0.171875 C 5.863281 0.171875 5.128906 0.0625 4.484375 -0.15625 C 3.847656 -0.375 3.289062 -0.679688 2.8125 -1.078125 C 2.34375 -1.484375 1.953125 -1.953125 1.640625 -2.484375 C 1.328125 -3.023438 1.09375 -3.609375 0.9375 -4.234375 C 0.789062 -4.867188 0.71875 -5.519531 0.71875 -6.1875 C 0.71875 -6.863281 0.789062 -7.515625 0.9375 -8.140625 C 1.09375 -8.765625 1.328125 -9.34375 1.640625 -9.875 C 1.953125 -10.414062 2.34375 -10.882812 2.8125 -11.28125 C 3.289062 -11.6875 3.847656 -12 4.484375 -12.21875 C 5.128906 -12.4375 5.863281 -12.546875 6.6875 -12.546875 C 7.5 -12.546875 8.226562 -12.4375 8.875 -12.21875 C 9.519531 -12 10.078125 -11.6875 10.546875 -11.28125 C 11.023438 -10.882812 11.421875 -10.414062 11.734375 -9.875 C 12.046875 -9.34375 12.273438 -8.765625 12.421875 -8.140625 C 12.578125 -7.515625 12.65625 -6.863281 12.65625 -6.1875 C 12.65625 -5.519531 12.578125 -4.867188 12.421875 -4.234375 C 12.273438 -3.609375 12.046875 -3.023438 11.734375 -2.484375 C 11.421875 -1.953125 11.023438 -1.484375 10.546875 -1.078125 C 10.078125 -0.679688 9.519531 -0.375 8.875 -0.15625 C 8.226562 0.0625 7.5 0.171875 6.6875 0.171875 Z M 6.6875 -1.796875 C 7.351562 -1.796875 7.914062 -1.910156 8.375 -2.140625 C 8.832031 -2.378906 9.203125 -2.703125 9.484375 -3.109375 C 9.773438 -3.523438 9.984375 -3.992188 10.109375 -4.515625 C 10.242188 -5.046875 10.3125 -5.601562 10.3125 -6.1875 C 10.3125 -6.769531 10.242188 -7.320312 10.109375 -7.84375 C 9.984375 -8.375 9.773438 -8.84375 9.484375 -9.25 C 9.203125 -9.65625 8.832031 -9.976562 8.375 -10.21875 C 7.914062 -10.457031 7.351562 -10.578125 6.6875 -10.578125 C 6.019531 -10.578125 5.457031 -10.457031 5 -10.21875 C 4.539062 -9.976562 4.164062 -9.65625 3.875 -9.25 C 3.59375 -8.84375 3.382812 -8.375 3.25 -7.84375 C 3.125 -7.320312 3.0625 -6.769531 3.0625 -6.1875 C 3.0625 -5.601562 3.125 -5.046875 3.25 -4.515625 C 3.382812 -3.992188 3.59375 -3.523438 3.875 -3.109375 C 4.164062 -2.703125 4.539062 -2.378906 5 -2.140625 C 5.457031 -1.910156 6.019531 -1.796875 6.6875 -1.796875 Z M 6.6875 -1.796875 "/></g></g><g transform="translate(133.99064, 16.132369)"><g><path d="M 1.59375 0 L 1.59375 -12.359375 L 3.796875 -12.359375 L 9 -3.703125 L 9 -12.359375 L 11.125 -12.359375 L 11.125 0 L 8.90625 0 L 3.734375 -8.671875 L 3.734375 0 Z M 1.59375 0 "/></g></g></g></g></g></svg>