<svg xmlns="http://www.w3.org/2000/svg" xmlns:xlink="http://www.w3.org/1999/xlink" width="230" zoomAndPan="magnify" viewBox="0 0 172.5 153.749995" height="205" preserveAspectRatio="xMidYMid meet" version="1.0"><defs><g/><clipPath id="d835295c76"><path d="M 0 0.0976562 L 172 0.0976562 L 172 152.773438 L 0 152.773438 Z M 0 0.0976562 " clip-rule="nonzero"/></clipPath><clipPath id="cd5161534b"><path d="M 26.175781 0.0976562 L 145.828125 0.0976562 C 152.769531 0.0976562 159.425781 2.855469 164.335938 7.765625 C 169.242188 12.671875 172 19.328125 172 26.273438 L 172 126.597656 C 172 133.539062 169.242188 140.199219 164.335938 145.105469 C 159.425781 150.015625 152.769531 152.773438 145.828125 152.773438 L 26.175781 152.773438 C 19.230469 152.773438 12.574219 150.015625 7.667969 145.105469 C 2.757812 140.199219 0 133.539062 0 126.597656 L 0 26.273438 C 0 19.328125 2.757812 12.671875 7.667969 7.765625 C 12.574219 2.855469 19.230469 0.0976562 26.175781 0.0976562 Z M 26.175781 0.0976562 " clip-rule="nonzero"/></clipPath><clipPath id="78ea9281d2"><path d="M 0 0.0976562 L 172 0.0976562 L 172 152.773438 L 0 152.773438 Z M 0 0.0976562 " clip-rule="nonzero"/></clipPath><clipPath id="1fbcf4ebd9"><path d="M 26.175781 0.0976562 L 145.828125 0.0976562 C 152.769531 0.0976562 159.425781 2.855469 164.335938 7.765625 C 169.242188 12.671875 172 19.328125 172 26.273438 L 172 126.597656 C 172 133.539062 169.242188 140.199219 164.335938 145.105469 C 159.425781 150.015625 152.769531 152.773438 145.828125 152.773438 L 26.175781 152.773438 C 19.230469 152.773438 12.574219 150.015625 7.667969 145.105469 C 2.757812 140.199219 0 133.539062 0 126.597656 L 0 26.273438 C 0 19.328125 2.757812 12.671875 7.667969 7.765625 C 12.574219 2.855469 19.230469 0.0976562 26.175781 0.0976562 Z M 26.175781 0.0976562 " clip-rule="nonzero"/></clipPath><clipPath id="1e12adc8d2"><rect x="0" width="172" y="0" height="153"/></clipPath><clipPath id="3d95326108"><path d="M 56.773438 19 L 115.851562 19 L 115.851562 80.875 L 56.773438 80.875 Z M 56.773438 19 " clip-rule="nonzero"/></clipPath><clipPath id="7e5d6681ed"><rect x="0" width="125" y="0" height="23"/></clipPath></defs><g clip-path="url(#d835295c76)"><g clip-path="url(#cd5161534b)"><g transform="matrix(1, 0, 0, 1, 0, -0.000000000000007841)"><g clip-path="url(#1e12adc8d2)"><g clip-path="url(#78ea9281d2)"><g clip-path="url(#1fbcf4ebd9)"><path fill="#ffffff" d="M 0 0.0976562 L 171.757812 0.0976562 L 171.757812 152.773438 L 0 152.773438 Z M 0 0.0976562 " fill-opacity="1" fill-rule="nonzero"/></g></g></g></g></g></g><g clip-path="url(#3d95326108)"><path fill="#132052" d="M 71.050781 31.765625 C 71.050781 30.933594 71.136719 30.105469 71.300781 29.289062 C 71.464844 28.46875 71.707031 27.675781 72.027344 26.90625 C 72.347656 26.132812 72.742188 25.402344 73.207031 24.710938 C 73.671875 24.015625 74.203125 23.375 74.792969 22.785156 C 75.386719 22.199219 76.03125 21.671875 76.726562 21.210938 C 77.421875 20.75 78.152344 20.359375 78.925781 20.042969 C 79.699219 19.726562 80.492188 19.484375 81.3125 19.324219 C 82.132812 19.164062 82.960938 19.085938 83.792969 19.089844 C 84.628906 19.089844 85.457031 19.175781 86.273438 19.339844 C 87.089844 19.507812 87.886719 19.75 88.65625 20.074219 C 89.425781 20.394531 90.15625 20.789062 90.847656 21.253906 C 91.542969 21.722656 92.183594 22.25 92.769531 22.84375 C 93.359375 23.433594 93.882812 24.078125 94.34375 24.773438 C 94.804688 25.472656 95.195312 26.207031 95.511719 26.976562 C 95.828125 27.75 96.066406 28.546875 96.222656 29.367188 C 96.382812 30.183594 96.460938 31.011719 96.457031 31.847656 C 96.453125 32.679688 96.371094 33.507812 96.203125 34.324219 C 96.035156 35.144531 95.792969 35.9375 95.46875 36.707031 C 95.144531 37.476562 94.75 38.207031 94.285156 38.898438 C 93.816406 39.59375 93.289062 40.230469 92.695312 40.820312 C 92.101562 41.40625 91.457031 41.929688 90.761719 42.390625 C 90.0625 42.851562 89.328125 43.238281 88.554688 43.554688 C 87.785156 43.871094 86.988281 44.105469 86.167969 44.265625 C 85.347656 44.425781 84.519531 44.5 83.6875 44.496094 C 82.855469 44.492188 82.03125 44.402344 81.214844 44.234375 C 80.402344 44.070312 79.609375 43.824219 78.84375 43.5 C 78.078125 43.179688 77.347656 42.785156 76.660156 42.320312 C 75.96875 41.851562 75.332031 41.324219 74.746094 40.734375 C 74.160156 40.144531 73.636719 39.503906 73.175781 38.808594 C 72.714844 38.117188 72.328125 37.386719 72.011719 36.617188 C 71.695312 35.847656 71.453125 35.054688 71.292969 34.238281 C 71.132812 33.421875 71.050781 32.597656 71.050781 31.765625 Z M 115.964844 50.304688 C 115.886719 49.121094 115.425781 48.105469 114.589844 47.265625 C 113.765625 46.441406 112.769531 45.988281 111.609375 45.90625 C 111.570312 45.683594 111.515625 45.46875 111.445312 45.253906 C 111.210938 44.527344 110.820312 43.898438 110.273438 43.367188 L 110.179688 43.273438 C 109.355469 42.496094 108.375 42.070312 107.242188 42 L 106.921875 41.984375 C 106.292969 41.980469 105.6875 42.101562 105.105469 42.339844 C 104.523438 42.582031 104.011719 42.921875 103.566406 43.367188 L 92.476562 54.464844 L 72.324219 54.484375 L 72.265625 54.476562 C 71.578125 54.425781 70.914062 54.523438 70.269531 54.765625 C 69.65625 54.988281 69.117188 55.328125 68.648438 55.78125 L 57.335938 67.085938 C 57.082031 67.335938 56.960938 67.640625 56.96875 67.996094 L 56.96875 79.535156 L 56.960938 79.636719 C 56.960938 79.804688 56.996094 79.964844 57.058594 80.117188 C 57.125 80.269531 57.214844 80.40625 57.332031 80.523438 C 57.449219 80.640625 57.585938 80.730469 57.738281 80.796875 C 57.890625 80.859375 58.050781 80.894531 58.21875 80.894531 L 68.460938 80.886719 C 68.816406 80.886719 69.121094 80.761719 69.367188 80.503906 L 71.847656 77.914062 L 95.234375 72.027344 C 96.09375 71.734375 96.882812 71.304688 97.597656 70.746094 C 98.339844 70.171875 99.039062 69.546875 99.695312 68.871094 L 114.589844 53.984375 C 115.035156 53.539062 115.375 53.023438 115.617188 52.445312 C 115.855469 51.863281 115.976562 51.257812 115.972656 50.628906 L 115.972656 50.304688 Z M 115.964844 50.304688 " fill-opacity="1" fill-rule="nonzero"/><path fill="#132052" d="M 89.539062 27.386719 C 89.398438 27.25 89.238281 27.152344 89.054688 27.085938 C 88.875 27.015625 88.6875 26.988281 88.492188 27 C 88.300781 27.011719 88.117188 27.0625 87.941406 27.148438 C 87.769531 27.238281 87.621094 27.355469 87.5 27.503906 L 85.496094 29.507812 C 84.273438 30.738281 83.050781 31.960938 81.765625 33.246094 C 81.148438 32.617188 80.570312 32.023438 79.976562 31.4375 C 79.851562 31.292969 79.703125 31.179688 79.53125 31.09375 C 79.359375 31.011719 79.175781 30.96875 78.984375 30.960938 C 78.792969 30.953125 78.609375 30.984375 78.433594 31.054688 C 78.253906 31.125 78.097656 31.226562 77.960938 31.359375 C 77.828125 31.492188 77.722656 31.648438 77.652344 31.828125 C 77.582031 32.003906 77.550781 32.1875 77.554688 32.378906 C 77.5625 32.570312 77.605469 32.75 77.683594 32.925781 C 77.765625 33.097656 77.878906 33.246094 78.023438 33.371094 C 78.929688 34.289062 79.832031 35.199219 80.746094 36.097656 C 80.878906 36.246094 81.03125 36.363281 81.210938 36.445312 C 81.394531 36.527344 81.582031 36.570312 81.78125 36.570312 C 81.976562 36.570312 82.167969 36.527344 82.347656 36.445312 C 82.527344 36.363281 82.683594 36.246094 82.8125 36.097656 C 85.027344 33.882812 87.246094 31.675781 89.453125 29.449219 C 89.601562 29.324219 89.722656 29.171875 89.808594 28.996094 C 89.894531 28.816406 89.941406 28.632812 89.949219 28.4375 C 89.957031 28.238281 89.925781 28.050781 89.855469 27.867188 C 89.78125 27.683594 89.675781 27.523438 89.539062 27.386719 Z M 89.539062 27.386719 C 89.398438 27.25 89.238281 27.152344 89.054688 27.085938 C 88.875 27.015625 88.6875 26.988281 88.492188 27 C 88.300781 27.011719 88.117188 27.0625 87.941406 27.148438 C 87.769531 27.238281 87.621094 27.355469 87.5 27.503906 L 85.496094 29.507812 C 84.273438 30.738281 83.050781 31.960938 81.765625 33.246094 C 81.148438 32.617188 80.570312 32.023438 79.976562 31.4375 C 79.851562 31.292969 79.703125 31.179688 79.53125 31.09375 C 79.359375 31.011719 79.175781 30.96875 78.984375 30.960938 C 78.792969 30.953125 78.609375 30.984375 78.433594 31.054688 C 78.253906 31.125 78.097656 31.226562 77.960938 31.359375 C 77.828125 31.492188 77.722656 31.648438 77.652344 31.828125 C 77.582031 32.003906 77.550781 32.1875 77.554688 32.378906 C 77.5625 32.570312 77.605469 32.75 77.683594 32.925781 C 77.765625 33.097656 77.878906 33.246094 78.023438 33.371094 C 78.929688 34.289062 79.832031 35.199219 80.746094 36.097656 C 80.878906 36.246094 81.03125 36.363281 81.210938 36.445312 C 81.394531 36.527344 81.582031 36.570312 81.78125 36.570312 C 81.976562 36.570312 82.167969 36.527344 82.347656 36.445312 C 82.527344 36.363281 82.683594 36.246094 82.8125 36.097656 C 85.027344 33.882812 87.246094 31.675781 89.453125 29.449219 C 89.601562 29.324219 89.722656 29.171875 89.808594 28.996094 C 89.894531 28.816406 89.941406 28.632812 89.949219 28.4375 C 89.957031 28.238281 89.925781 28.050781 89.855469 27.867188 C 89.78125 27.683594 89.675781 27.523438 89.539062 27.386719 Z M 89.539062 27.386719 C 89.398438 27.25 89.238281 27.152344 89.054688 27.085938 C 88.875 27.015625 88.6875 26.988281 88.492188 27 C 88.300781 27.011719 88.117188 27.0625 87.941406 27.148438 C 87.769531 27.238281 87.621094 27.355469 87.5 27.503906 L 85.496094 29.507812 C 84.273438 30.738281 83.050781 31.960938 81.765625 33.246094 C 81.148438 32.617188 80.570312 32.023438 79.976562 31.4375 C 79.851562 31.292969 79.703125 31.179688 79.53125 31.09375 C 79.359375 31.011719 79.175781 30.96875 78.984375 30.960938 C 78.792969 30.953125 78.609375 30.984375 78.433594 31.054688 C 78.253906 31.125 78.097656 31.226562 77.960938 31.359375 C 77.828125 31.492188 77.722656 31.648438 77.652344 31.828125 C 77.582031 32.003906 77.550781 32.1875 77.554688 32.378906 C 77.5625 32.570312 77.605469 32.75 77.683594 32.925781 C 77.765625 33.097656 77.878906 33.246094 78.023438 33.371094 C 78.929688 34.289062 79.832031 35.199219 80.746094 36.097656 C 80.878906 36.246094 81.03125 36.363281 81.210938 36.445312 C 81.394531 36.527344 81.582031 36.570312 81.78125 36.570312 C 81.976562 36.570312 82.167969 36.527344 82.347656 36.445312 C 82.527344 36.363281 82.683594 36.246094 82.8125 36.097656 C 85.027344 33.882812 87.246094 31.675781 89.453125 29.449219 C 89.601562 29.324219 89.722656 29.171875 89.808594 28.996094 C 89.894531 28.816406 89.941406 28.632812 89.949219 28.4375 C 89.957031 28.238281 89.925781 28.050781 89.855469 27.867188 C 89.78125 27.683594 89.675781 27.523438 89.539062 27.386719 Z M 89.539062 27.386719 C 89.398438 27.25 89.238281 27.152344 89.054688 27.085938 C 88.875 27.015625 88.6875 26.988281 88.492188 27 C 88.300781 27.011719 88.117188 27.0625 87.941406 27.148438 C 87.769531 27.238281 87.621094 27.355469 87.5 27.503906 L 85.496094 29.507812 C 84.273438 30.738281 83.050781 31.960938 81.765625 33.246094 C 81.148438 32.617188 80.570312 32.023438 79.976562 31.4375 C 79.851562 31.292969 79.703125 31.179688 79.53125 31.09375 C 79.359375 31.011719 79.175781 30.96875 78.984375 30.960938 C 78.792969 30.953125 78.609375 30.984375 78.433594 31.054688 C 78.253906 31.125 78.097656 31.226562 77.960938 31.359375 C 77.828125 31.492188 77.722656 31.648438 77.652344 31.828125 C 77.582031 32.003906 77.550781 32.1875 77.554688 32.378906 C 77.5625 32.570312 77.605469 32.75 77.683594 32.925781 C 77.765625 33.097656 77.878906 33.246094 78.023438 33.371094 C 78.929688 34.289062 79.832031 35.199219 80.746094 36.097656 C 80.878906 36.246094 81.03125 36.363281 81.210938 36.445312 C 81.394531 36.527344 81.582031 36.570312 81.78125 36.570312 C 81.976562 36.570312 82.167969 36.527344 82.347656 36.445312 C 82.527344 36.363281 82.683594 36.246094 82.8125 36.097656 C 85.027344 33.882812 87.246094 31.675781 89.453125 29.449219 C 89.601562 29.324219 89.722656 29.171875 89.808594 28.996094 C 89.894531 28.816406 89.941406 28.632812 89.949219 28.4375 C 89.957031 28.238281 89.925781 28.050781 89.855469 27.867188 C 89.78125 27.683594 89.675781 27.523438 89.539062 27.386719 Z M 83.753906 19.074219 C 82.917969 19.074219 82.09375 19.15625 81.273438 19.316406 C 80.457031 19.480469 79.660156 19.722656 78.890625 20.039062 C 78.121094 20.359375 77.386719 20.75 76.691406 21.210938 C 76 21.675781 75.355469 22.199219 74.765625 22.789062 C 74.175781 23.378906 73.648438 24.019531 73.183594 24.714844 C 72.71875 25.40625 72.328125 26.140625 72.007812 26.910156 C 71.6875 27.679688 71.445312 28.476562 71.28125 29.292969 C 71.117188 30.109375 71.035156 30.9375 71.03125 31.773438 C 71.03125 32.605469 71.113281 33.433594 71.273438 34.25 C 71.433594 35.070312 71.675781 35.863281 71.992188 36.636719 C 72.3125 37.40625 72.703125 38.140625 73.164062 38.835938 C 73.625 39.527344 74.152344 40.171875 74.742188 40.761719 C 75.332031 41.355469 75.972656 41.882812 76.664062 42.347656 C 77.355469 42.8125 78.089844 43.203125 78.859375 43.523438 C 79.628906 43.84375 80.421875 44.085938 81.242188 44.253906 C 82.058594 44.417969 82.886719 44.5 83.71875 44.5 C 84.554688 44.503906 85.382812 44.421875 86.199219 44.261719 C 87.019531 44.101562 87.8125 43.863281 88.585938 43.542969 C 89.355469 43.226562 90.089844 42.835938 90.785156 42.375 C 91.480469 41.914062 92.121094 41.386719 92.714844 40.796875 C 93.304688 40.210938 93.832031 39.570312 94.296875 38.875 C 94.765625 38.183594 95.15625 37.453125 95.476562 36.683594 C 95.800781 35.914062 96.042969 35.117188 96.207031 34.300781 C 96.371094 33.484375 96.457031 32.65625 96.457031 31.824219 C 96.460938 30.988281 96.378906 30.160156 96.214844 29.339844 C 96.054688 28.519531 95.816406 27.722656 95.496094 26.953125 C 95.175781 26.179688 94.785156 25.445312 94.324219 24.75 C 93.859375 24.054688 93.332031 23.410156 92.742188 22.820312 C 92.15625 22.226562 91.511719 21.699219 90.820312 21.234375 C 90.125 20.769531 89.390625 20.375 88.621094 20.054688 C 87.851562 19.734375 87.054688 19.492188 86.234375 19.324219 C 85.417969 19.160156 84.589844 19.078125 83.753906 19.074219 Z M 83.675781 41.96875 C 83.007812 41.964844 82.347656 41.894531 81.691406 41.761719 C 81.035156 41.625 80.402344 41.429688 79.785156 41.167969 C 79.167969 40.910156 78.585938 40.589844 78.03125 40.214844 C 77.476562 39.839844 76.964844 39.414062 76.496094 38.9375 C 76.027344 38.460938 75.609375 37.945312 75.242188 37.386719 C 74.871094 36.828125 74.5625 36.238281 74.3125 35.617188 C 74.058594 35 73.871094 34.359375 73.746094 33.703125 C 73.621094 33.046875 73.558594 32.382812 73.5625 31.714844 C 73.570312 31.046875 73.640625 30.382812 73.773438 29.730469 C 73.910156 29.074219 74.109375 28.4375 74.367188 27.824219 C 74.628906 27.207031 74.945312 26.621094 75.324219 26.070312 C 75.699219 25.515625 76.125 25.003906 76.601562 24.535156 C 77.078125 24.066406 77.59375 23.648438 78.152344 23.28125 C 78.710938 22.914062 79.300781 22.605469 79.921875 22.351562 C 80.542969 22.101562 81.179688 21.914062 81.835938 21.789062 C 82.492188 21.660156 83.15625 21.601562 83.824219 21.605469 C 84.492188 21.613281 85.15625 21.683594 85.8125 21.816406 C 86.464844 21.953125 87.101562 22.152344 87.71875 22.414062 C 88.332031 22.671875 88.917969 22.992188 89.46875 23.367188 C 90.023438 23.746094 90.535156 24.171875 91.003906 24.648438 C 91.472656 25.125 91.890625 25.640625 92.257812 26.199219 C 92.625 26.761719 92.933594 27.347656 93.183594 27.96875 C 93.433594 28.589844 93.625 29.226562 93.75 29.886719 C 93.875 30.542969 93.933594 31.203125 93.925781 31.875 C 93.917969 32.539062 93.847656 33.199219 93.710938 33.851562 C 93.570312 34.503906 93.371094 35.140625 93.109375 35.753906 C 92.851562 36.367188 92.53125 36.949219 92.15625 37.5 C 91.78125 38.050781 91.355469 38.5625 90.878906 39.027344 C 90.40625 39.496094 89.886719 39.914062 89.332031 40.28125 C 88.773438 40.648438 88.1875 40.957031 87.570312 41.210938 C 86.953125 41.460938 86.316406 41.652344 85.660156 41.777344 C 85.003906 41.90625 84.34375 41.96875 83.675781 41.964844 Z M 87.5 27.507812 L 85.496094 29.511719 C 84.273438 30.742188 83.050781 31.96875 81.765625 33.25 C 81.148438 32.621094 80.570312 32.027344 79.976562 31.441406 C 79.851562 31.296875 79.703125 31.183594 79.53125 31.101562 C 79.359375 31.015625 79.175781 30.972656 78.984375 30.964844 C 78.792969 30.957031 78.609375 30.988281 78.433594 31.058594 C 78.253906 31.128906 78.097656 31.230469 77.960938 31.363281 C 77.828125 31.496094 77.722656 31.652344 77.652344 31.832031 C 77.582031 32.007812 77.550781 32.191406 77.554688 32.382812 C 77.5625 32.574219 77.605469 32.753906 77.683594 32.929688 C 77.765625 33.101562 77.878906 33.25 78.023438 33.375 C 78.929688 34.292969 79.832031 35.203125 80.746094 36.101562 C 80.878906 36.253906 81.03125 36.367188 81.210938 36.449219 C 81.394531 36.53125 81.582031 36.574219 81.78125 36.574219 C 81.976562 36.574219 82.167969 36.53125 82.347656 36.449219 C 82.527344 36.367188 82.683594 36.253906 82.8125 36.101562 C 85.027344 33.886719 87.246094 31.679688 89.453125 29.453125 C 89.605469 29.328125 89.722656 29.179688 89.8125 29.003906 C 89.898438 28.828125 89.949219 28.644531 89.957031 28.449219 C 89.964844 28.253906 89.9375 28.066406 89.863281 27.882812 C 89.792969 27.699219 89.691406 27.539062 89.550781 27.402344 C 89.410156 27.261719 89.25 27.160156 89.070312 27.089844 C 88.886719 27.019531 88.695312 26.988281 88.5 27 C 88.304688 27.007812 88.121094 27.058594 87.945312 27.148438 C 87.773438 27.238281 87.621094 27.355469 87.5 27.507812 Z M 89.539062 27.390625 C 89.398438 27.253906 89.238281 27.15625 89.054688 27.089844 C 88.875 27.023438 88.6875 26.992188 88.492188 27.003906 C 88.300781 27.015625 88.117188 27.066406 87.941406 27.152344 C 87.769531 27.242188 87.621094 27.359375 87.5 27.507812 L 85.496094 29.511719 C 84.273438 30.742188 83.050781 31.96875 81.765625 33.25 C 81.148438 32.621094 80.570312 32.027344 79.976562 31.441406 C 79.851562 31.296875 79.703125 31.183594 79.53125 31.101562 C 79.359375 31.015625 79.175781 30.972656 78.984375 30.964844 C 78.792969 30.957031 78.609375 30.988281 78.433594 31.058594 C 78.253906 31.128906 78.097656 31.230469 77.960938 31.363281 C 77.828125 31.496094 77.722656 31.652344 77.652344 31.832031 C 77.582031 32.007812 77.550781 32.191406 77.554688 32.382812 C 77.5625 32.574219 77.605469 32.753906 77.683594 32.929688 C 77.765625 33.101562 77.878906 33.25 78.023438 33.375 C 78.929688 34.292969 79.832031 35.203125 80.746094 36.101562 C 80.878906 36.253906 81.03125 36.367188 81.210938 36.449219 C 81.394531 36.53125 81.582031 36.574219 81.78125 36.574219 C 81.976562 36.574219 82.167969 36.53125 82.347656 36.449219 C 82.527344 36.367188 82.683594 36.253906 82.8125 36.101562 C 85.027344 33.886719 87.246094 31.679688 89.453125 29.453125 C 89.601562 29.328125 89.722656 29.175781 89.808594 29 C 89.894531 28.820312 89.941406 28.636719 89.953125 28.4375 C 89.960938 28.242188 89.925781 28.050781 89.855469 27.867188 C 89.78125 27.683594 89.675781 27.523438 89.539062 27.386719 Z M 89.539062 27.390625 C 89.398438 27.253906 89.238281 27.15625 89.054688 27.089844 C 88.875 27.023438 88.6875 26.992188 88.492188 27.003906 C 88.300781 27.015625 88.117188 27.066406 87.941406 27.152344 C 87.769531 27.242188 87.621094 27.359375 87.5 27.507812 L 85.496094 29.511719 C 84.273438 30.742188 83.050781 31.96875 81.765625 33.25 C 81.148438 32.621094 80.570312 32.027344 79.976562 31.441406 C 79.851562 31.296875 79.703125 31.183594 79.53125 31.101562 C 79.359375 31.015625 79.175781 30.972656 78.984375 30.964844 C 78.792969 30.957031 78.609375 30.988281 78.433594 31.058594 C 78.253906 31.128906 78.097656 31.230469 77.960938 31.363281 C 77.828125 31.496094 77.722656 31.652344 77.652344 31.832031 C 77.582031 32.007812 77.550781 32.191406 77.554688 32.382812 C 77.5625 32.574219 77.605469 32.753906 77.683594 32.929688 C 77.765625 33.101562 77.878906 33.25 78.023438 33.375 C 78.929688 34.292969 79.832031 35.203125 80.746094 36.101562 C 80.878906 36.253906 81.03125 36.367188 81.210938 36.449219 C 81.394531 36.53125 81.582031 36.574219 81.78125 36.574219 C 81.976562 36.574219 82.167969 36.53125 82.347656 36.449219 C 82.527344 36.367188 82.683594 36.253906 82.8125 36.101562 C 85.027344 33.886719 87.246094 31.679688 89.453125 29.453125 C 89.601562 29.328125 89.722656 29.175781 89.808594 29 C 89.894531 28.820312 89.941406 28.636719 89.953125 28.4375 C 89.960938 28.242188 89.925781 28.050781 89.855469 27.867188 C 89.78125 27.683594 89.675781 27.523438 89.539062 27.386719 Z M 115.964844 50.308594 C 115.886719 49.125 115.425781 48.109375 114.589844 47.269531 C 113.765625 46.445312 112.769531 45.992188 111.609375 45.910156 C 111.570312 45.6875 111.515625 45.472656 111.445312 45.257812 C 111.210938 44.53125 110.820312 43.902344 110.273438 43.371094 L 110.179688 43.277344 C 109.355469 42.5 108.375 42.074219 107.242188 42.003906 L 106.921875 41.988281 C 106.292969 41.984375 105.6875 42.105469 105.105469 42.34375 C 104.523438 42.585938 104.011719 42.925781 103.566406 43.371094 L 92.476562 54.472656 L 72.324219 54.488281 L 72.265625 54.480469 C 71.578125 54.429688 70.914062 54.527344 70.269531 54.769531 C 69.65625 54.992188 69.117188 55.332031 68.648438 55.789062 L 57.335938 67.085938 C 57.082031 67.335938 56.960938 67.640625 56.96875 67.996094 L 56.96875 79.535156 L 56.960938 79.636719 C 56.960938 79.804688 56.996094 79.964844 57.058594 80.117188 C 57.125 80.269531 57.214844 80.40625 57.332031 80.523438 C 57.449219 80.640625 57.585938 80.730469 57.738281 80.796875 C 57.890625 80.859375 58.050781 80.894531 58.21875 80.894531 L 68.460938 80.886719 C 68.816406 80.886719 69.121094 80.761719 69.367188 80.503906 L 71.847656 77.914062 L 95.234375 72.027344 C 96.09375 71.734375 96.882812 71.304688 97.597656 70.746094 C 98.339844 70.171875 99.039062 69.546875 99.695312 68.871094 L 114.589844 53.984375 C 115.035156 53.539062 115.375 53.023438 115.617188 52.445312 C 115.855469 51.863281 115.976562 51.257812 115.972656 50.628906 L 115.972656 50.304688 Z M 105.339844 45.148438 C 105.777344 44.714844 106.304688 44.5 106.921875 44.5 L 107.039062 44.5 C 107.613281 44.527344 108.101562 44.742188 108.507812 45.148438 C 108.761719 45.402344 108.949219 45.699219 109.070312 46.039062 C 109.105469 46.148438 109.128906 46.261719 109.136719 46.378906 C 108.671875 46.609375 108.25 46.90625 107.878906 47.269531 L 97.511719 57.636719 C 97.277344 56.957031 96.90625 56.363281 96.398438 55.855469 C 96.097656 55.558594 95.761719 55.308594 95.398438 55.097656 Z M 113.46875 50.632812 C 113.464844 51.25 113.246094 51.773438 112.8125 52.210938 L 97.902344 67.125 C 97.339844 67.710938 96.738281 68.25 96.09375 68.746094 C 95.628906 69.121094 95.117188 69.410156 94.554688 69.621094 L 70.898438 75.574219 C 70.644531 75.632812 70.429688 75.757812 70.261719 75.957031 L 67.933594 78.382812 L 59.476562 78.382812 L 59.476562 68.503906 L 70.386719 57.582031 C 70.867188 57.121094 71.4375 56.917969 72.101562 56.980469 L 93.042969 56.972656 C 93.613281 56.972656 94.109375 57.160156 94.53125 57.539062 L 94.617188 57.625 C 95.019531 58.023438 95.242188 58.503906 95.277344 59.070312 L 95.277344 59.207031 C 95.277344 59.824219 95.054688 60.351562 94.617188 60.785156 C 94.183594 61.222656 93.660156 61.441406 93.042969 61.4375 L 78.589844 61.4375 C 78.425781 61.4375 78.265625 61.46875 78.109375 61.535156 C 77.957031 61.597656 77.820312 61.6875 77.703125 61.808594 C 77.585938 61.925781 77.492188 62.058594 77.429688 62.214844 C 77.367188 62.367188 77.335938 62.527344 77.335938 62.695312 C 77.335938 62.863281 77.367188 63.023438 77.429688 63.175781 C 77.492188 63.332031 77.585938 63.464844 77.703125 63.585938 C 77.820312 63.703125 77.957031 63.792969 78.109375 63.855469 C 78.265625 63.921875 78.425781 63.953125 78.589844 63.953125 L 93.042969 63.953125 C 93.675781 63.953125 94.28125 63.832031 94.863281 63.59375 C 95.441406 63.351562 95.957031 63.007812 96.398438 62.558594 C 96.6875 62.261719 96.933594 61.929688 97.136719 61.566406 L 109.65625 49.054688 C 110.089844 48.613281 110.617188 48.394531 111.234375 48.398438 L 111.34375 48.398438 C 111.917969 48.421875 112.410156 48.636719 112.8125 49.042969 C 113.214844 49.453125 113.433594 49.941406 113.46875 50.511719 Z M 113.46875 50.632812 " fill-opacity="1" fill-rule="nonzero"/></g><path fill="#fdfbfe" d="M 83.78125 21.601562 C 83.113281 21.601562 82.449219 21.664062 81.792969 21.789062 C 81.140625 21.917969 80.503906 22.109375 79.882812 22.363281 C 79.265625 22.617188 78.679688 22.925781 78.121094 23.296875 C 77.566406 23.664062 77.050781 24.085938 76.574219 24.554688 C 76.101562 25.023438 75.679688 25.535156 75.304688 26.089844 C 74.929688 26.644531 74.617188 27.230469 74.355469 27.84375 C 74.097656 28.460938 73.902344 29.097656 73.769531 29.75 C 73.636719 30.40625 73.566406 31.066406 73.5625 31.734375 C 73.5625 32.402344 73.621094 33.0625 73.75 33.71875 C 73.875 34.375 74.066406 35.011719 74.316406 35.628906 C 74.570312 36.25 74.878906 36.835938 75.25 37.394531 C 75.617188 37.949219 76.035156 38.46875 76.503906 38.941406 C 76.972656 39.417969 77.484375 39.839844 78.039062 40.214844 C 78.589844 40.589844 79.175781 40.90625 79.789062 41.167969 C 80.40625 41.425781 81.042969 41.625 81.695312 41.757812 C 82.347656 41.890625 83.011719 41.960938 83.679688 41.964844 C 84.347656 41.96875 85.007812 41.910156 85.664062 41.785156 C 86.320312 41.660156 86.957031 41.46875 87.574219 41.21875 C 88.195312 40.96875 88.78125 40.660156 89.339844 40.292969 C 89.898438 39.925781 90.414062 39.507812 90.890625 39.039062 C 91.367188 38.570312 91.792969 38.058594 92.167969 37.507812 C 92.542969 36.953125 92.859375 36.371094 93.121094 35.753906 C 93.382812 35.140625 93.582031 34.503906 93.714844 33.851562 C 93.851562 33.199219 93.921875 32.535156 93.925781 31.871094 C 93.933594 31.199219 93.871094 30.535156 93.746094 29.875 C 93.617188 29.21875 93.429688 28.578125 93.175781 27.957031 C 92.921875 27.335938 92.613281 26.746094 92.242188 26.1875 C 91.875 25.625 91.453125 25.109375 90.984375 24.632812 C 90.511719 24.152344 90 23.726562 89.441406 23.351562 C 88.886719 22.976562 88.300781 22.660156 87.683594 22.398438 C 87.066406 22.140625 86.425781 21.941406 85.769531 21.808594 C 85.113281 21.675781 84.449219 21.605469 83.78125 21.601562 Z M 89.453125 29.449219 C 87.246094 31.675781 85.027344 33.882812 82.8125 36.097656 C 82.683594 36.246094 82.527344 36.363281 82.347656 36.445312 C 82.167969 36.527344 81.976562 36.570312 81.78125 36.570312 C 81.582031 36.570312 81.394531 36.527344 81.210938 36.445312 C 81.03125 36.363281 80.878906 36.246094 80.746094 36.097656 C 79.832031 35.199219 78.929688 34.289062 78.023438 33.371094 C 77.878906 33.246094 77.765625 33.097656 77.683594 32.925781 C 77.605469 32.75 77.5625 32.570312 77.554688 32.378906 C 77.550781 32.1875 77.582031 32.003906 77.652344 31.828125 C 77.722656 31.648438 77.828125 31.492188 77.960938 31.359375 C 78.097656 31.226562 78.253906 31.125 78.433594 31.054688 C 78.609375 30.984375 78.792969 30.953125 78.984375 30.960938 C 79.175781 30.96875 79.359375 31.011719 79.53125 31.09375 C 79.703125 31.179688 79.851562 31.292969 79.976562 31.4375 C 80.570312 32.023438 81.148438 32.617188 81.765625 33.246094 C 83.050781 31.960938 84.273438 30.738281 85.496094 29.507812 L 87.5 27.503906 C 87.621094 27.351562 87.773438 27.230469 87.945312 27.144531 C 88.121094 27.054688 88.304688 27.003906 88.5 26.996094 C 88.695312 26.984375 88.886719 27.015625 89.070312 27.085938 C 89.25 27.15625 89.410156 27.257812 89.550781 27.398438 C 89.691406 27.535156 89.792969 27.695312 89.863281 27.878906 C 89.9375 28.058594 89.964844 28.25 89.957031 28.445312 C 89.949219 28.640625 89.898438 28.824219 89.8125 29 C 89.722656 29.175781 89.605469 29.324219 89.453125 29.449219 Z M 89.453125 29.449219 " fill-opacity="1" fill-rule="nonzero"/><path fill="#7bbbff" d="M 96.398438 55.851562 C 96.097656 55.554688 95.761719 55.304688 95.398438 55.09375 L 105.339844 45.148438 C 105.777344 44.714844 106.304688 44.5 106.921875 44.5 L 107.039062 44.5 C 107.613281 44.527344 108.101562 44.742188 108.507812 45.148438 C 108.761719 45.402344 108.949219 45.699219 109.070312 46.039062 C 109.105469 46.148438 109.128906 46.261719 109.136719 46.378906 C 108.671875 46.609375 108.25 46.90625 107.878906 47.269531 L 97.511719 57.636719 C 97.277344 56.957031 96.90625 56.359375 96.398438 55.851562 Z M 112.8125 49.039062 C 112.40625 48.632812 111.917969 48.417969 111.34375 48.394531 L 111.234375 48.394531 C 110.617188 48.390625 110.089844 48.605469 109.65625 49.046875 L 97.136719 61.566406 C 96.933594 61.929688 96.6875 62.261719 96.398438 62.558594 C 95.957031 63.007812 95.441406 63.351562 94.859375 63.59375 C 94.28125 63.832031 93.675781 63.953125 93.042969 63.953125 L 78.589844 63.953125 C 78.425781 63.953125 78.265625 63.921875 78.109375 63.855469 C 77.957031 63.792969 77.820312 63.703125 77.703125 63.585938 C 77.585938 63.464844 77.492188 63.332031 77.429688 63.175781 C 77.367188 63.023438 77.335938 62.863281 77.335938 62.695312 C 77.335938 62.527344 77.367188 62.367188 77.429688 62.214844 C 77.492188 62.058594 77.585938 61.925781 77.703125 61.808594 C 77.820312 61.6875 77.957031 61.597656 78.109375 61.535156 C 78.265625 61.46875 78.425781 61.4375 78.589844 61.4375 L 93.042969 61.4375 C 93.660156 61.441406 94.183594 61.222656 94.617188 60.785156 C 95.054688 60.351562 95.277344 59.824219 95.277344 59.207031 L 95.277344 59.074219 C 95.242188 58.507812 95.019531 58.027344 94.617188 57.628906 L 94.53125 57.546875 C 94.109375 57.164062 93.613281 56.976562 93.042969 56.976562 L 72.101562 56.984375 C 71.4375 56.921875 70.867188 57.125 70.386719 57.585938 L 59.476562 68.503906 L 59.476562 78.378906 L 67.933594 78.378906 L 70.261719 75.953125 C 70.429688 75.753906 70.644531 75.628906 70.898438 75.570312 L 94.554688 69.617188 C 95.117188 69.40625 95.628906 69.117188 96.09375 68.742188 C 96.738281 68.246094 97.339844 67.707031 97.902344 67.121094 L 112.8125 52.207031 C 113.246094 51.769531 113.464844 51.242188 113.46875 50.628906 L 113.46875 50.507812 C 113.433594 49.9375 113.214844 49.449219 112.8125 49.039062 Z M 112.8125 49.039062 " fill-opacity="1" fill-rule="nonzero"/><g transform="matrix(1, 0, 0, 1, 24, 99)"><g clip-path="url(#7e5d6681ed)"><g fill="#050f2a" fill-opacity="1"><g transform="translate(0.612877, 16.132369)"><g><path d="M 6.703125 0.171875 C 5.890625 0.171875 5.160156 0.0625 4.515625 -0.15625 C 3.867188 -0.375 3.304688 -0.679688 2.828125 -1.078125 C 2.359375 -1.484375 1.96875 -1.953125 1.65625 -2.484375 C 1.34375 -3.015625 1.109375 -3.59375 0.953125 -4.21875 C 0.796875 -4.851562 0.71875 -5.507812 0.71875 -6.1875 C 0.71875 -6.863281 0.796875 -7.515625 0.953125 -8.140625 C 1.109375 -8.773438 1.34375 -9.359375 1.65625 -9.890625 C 1.96875 -10.421875 2.359375 -10.890625 2.828125 -11.296875 C 3.296875 -11.703125 3.851562 -12.015625 4.5 -12.234375 C 5.144531 -12.453125 5.875 -12.5625 6.6875 -12.5625 C 7.5 -12.5625 8.253906 -12.425781 8.953125 -12.15625 C 9.648438 -11.882812 10.265625 -11.484375 10.796875 -10.953125 C 11.328125 -10.429688 11.757812 -9.785156 12.09375 -9.015625 L 10.015625 -8.1875 C 9.867188 -8.726562 9.632812 -9.164062 9.3125 -9.5 C 8.988281 -9.832031 8.597656 -10.070312 8.140625 -10.21875 C 7.691406 -10.375 7.203125 -10.453125 6.671875 -10.453125 C 6.015625 -10.453125 5.445312 -10.34375 4.96875 -10.125 C 4.5 -9.90625 4.113281 -9.601562 3.8125 -9.21875 C 3.507812 -8.832031 3.285156 -8.382812 3.140625 -7.875 C 2.992188 -7.375 2.921875 -6.84375 2.921875 -6.28125 C 2.921875 -5.664062 2.992188 -5.09375 3.140625 -4.5625 C 3.285156 -4.03125 3.507812 -3.566406 3.8125 -3.171875 C 4.125 -2.785156 4.515625 -2.484375 4.984375 -2.265625 C 5.460938 -2.046875 6.035156 -1.9375 6.703125 -1.9375 C 7.503906 -1.9375 8.179688 -2.109375 8.734375 -2.453125 C 9.285156 -2.804688 9.726562 -3.398438 10.0625 -4.234375 L 12.109375 -3.390625 C 11.785156 -2.617188 11.351562 -1.96875 10.8125 -1.4375 C 10.28125 -0.90625 9.664062 -0.503906 8.96875 -0.234375 C 8.28125 0.0351562 7.523438 0.171875 6.703125 0.171875 Z M 6.703125 0.171875 "/></g></g><g transform="translate(13.140652, 16.132369)"><g><path d="M 6.6875 0.171875 C 5.863281 0.171875 5.128906 0.0625 4.484375 -0.15625 C 3.847656 -0.375 3.289062 -0.679688 2.8125 -1.078125 C 2.34375 -1.484375 1.953125 -1.953125 1.640625 -2.484375 C 1.328125 -3.023438 1.09375 -3.609375 0.9375 -4.234375 C 0.789062 -4.867188 0.71875 -5.519531 0.71875 -6.1875 C 0.71875 -6.863281 0.789062 -7.515625 0.9375 -8.140625 C 1.09375 -8.765625 1.328125 -9.34375 1.640625 -9.875 C 1.953125 -10.414062 2.34375 -10.882812 2.8125 -11.28125 C 3.289062 -11.6875 3.847656 -12 4.484375 -12.21875 C 5.128906 -12.4375 5.863281 -12.546875 6.6875 -12.546875 C 7.5 -12.546875 8.226562 -12.4375 8.875 -12.21875 C 9.519531 -12 10.078125 -11.6875 10.546875 -11.28125 C 11.023438 -10.882812 11.421875 -10.414062 11.734375 -9.875 C 12.046875 -9.34375 12.273438 -8.765625 12.421875 -8.140625 C 12.578125 -7.515625 12.65625 -6.863281 12.65625 -6.1875 C 12.65625 -5.519531 12.578125 -4.867188 12.421875 -4.234375 C 12.273438 -3.609375 12.046875 -3.023438 11.734375 -2.484375 C 11.421875 -1.953125 11.023438 -1.484375 10.546875 -1.078125 C 10.078125 -0.679688 9.519531 -0.375 8.875 -0.15625 C 8.226562 0.0625 7.5 0.171875 6.6875 0.171875 Z M 6.6875 -1.796875 C 7.351562 -1.796875 7.914062 -1.910156 8.375 -2.140625 C 8.832031 -2.378906 9.203125 -2.703125 9.484375 -3.109375 C 9.773438 -3.523438 9.984375 -3.992188 10.109375 -4.515625 C 10.242188 -5.046875 10.3125 -5.601562 10.3125 -6.1875 C 10.3125 -6.769531 10.242188 -7.320312 10.109375 -7.84375 C 9.984375 -8.375 9.773438 -8.84375 9.484375 -9.25 C 9.203125 -9.65625 8.832031 -9.976562 8.375 -10.21875 C 7.914062 -10.457031 7.351562 -10.578125 6.6875 -10.578125 C 6.019531 -10.578125 5.457031 -10.457031 5 -10.21875 C 4.539062 -9.976562 4.164062 -9.65625 3.875 -9.25 C 3.59375 -8.84375 3.382812 -8.375 3.25 -7.84375 C 3.125 -7.320312 3.0625 -6.769531 3.0625 -6.1875 C 3.0625 -5.601562 3.125 -5.046875 3.25 -4.515625 C 3.382812 -3.992188 3.59375 -3.523438 3.875 -3.109375 C 4.164062 -2.703125 4.539062 -2.378906 5 -2.140625 C 5.457031 -1.910156 6.019531 -1.796875 6.6875 -1.796875 Z M 6.6875 -1.796875 "/></g></g><g transform="translate(26.508277, 16.132369)"><g><path d="M 1.59375 0 L 1.59375 -12.359375 L 4.578125 -12.359375 L 7.859375 -3.578125 L 11.15625 -12.359375 L 14.140625 -12.359375 L 14.140625 0 L 12 0 L 12 -9.25 L 8.9375 -1.078125 L 6.796875 -1.078125 L 3.734375 -9.25 L 3.734375 0 Z M 1.59375 0 "/></g></g><g transform="translate(42.237983, 16.132369)"><g><path d="M 1.59375 0 L 1.59375 -12.359375 L 4.578125 -12.359375 L 7.859375 -3.578125 L 11.15625 -12.359375 L 14.140625 -12.359375 L 14.140625 0 L 12 0 L 12 -9.25 L 8.9375 -1.078125 L 6.796875 -1.078125 L 3.734375 -9.25 L 3.734375 0 Z M 1.59375 0 "/></g></g><g transform="translate(57.967689, 16.132369)"><g><path d="M 1.59375 0 L 1.59375 -12.359375 L 3.8125 -12.359375 L 3.8125 0 Z M 1.59375 0 "/></g></g><g transform="translate(63.374229, 16.132369)"><g><path d="M 4.046875 0 L 4.046875 -10.375 L 0.171875 -10.375 L 0.171875 -12.359375 L 10.140625 -12.359375 L 10.140625 -10.375 L 6.28125 -10.375 L 6.28125 0 Z M 4.046875 0 "/></g></g><g transform="translate(73.697395, 16.132369)"><g><path d="M 1.59375 0 L 1.59375 -12.359375 L 4.578125 -12.359375 L 7.859375 -3.578125 L 11.15625 -12.359375 L 14.140625 -12.359375 L 14.140625 0 L 12 0 L 12 -9.25 L 8.9375 -1.078125 L 6.796875 -1.078125 L 3.734375 -9.25 L 3.734375 0 Z M 1.59375 0 "/></g></g><g transform="translate(89.427101, 16.132369)"><g><path d="M 1.59375 0 L 1.59375 -12.359375 L 9.8125 -12.359375 L 9.8125 -10.328125 L 3.8125 -10.328125 L 3.8125 -7.203125 L 9.40625 -7.203125 L 9.40625 -5.15625 L 3.8125 -5.15625 L 3.8125 -2.09375 L 9.8125 -2.09375 L 9.8125 0 Z M 1.59375 0 "/></g></g><g transform="translate(100.318916, 16.132369)"><g><path d="M 1.59375 0 L 1.59375 -12.359375 L 3.796875 -12.359375 L 9 -3.703125 L 9 -12.359375 L 11.125 -12.359375 L 11.125 0 L 8.90625 0 L 3.734375 -8.671875 L 3.734375 0 Z M 1.59375 0 "/></g></g><g transform="translate(113.039156, 16.132369)"><g><path d="M 4.046875 0 L 4.046875 -10.375 L 0.171875 -10.375 L 0.171875 -12.359375 L 10.140625 -12.359375 L 10.140625 -10.375 L 6.28125 -10.375 L 6.28125 0 Z M 4.046875 0 "/></g></g></g></g></g></svg>