<svg xmlns="http://www.w3.org/2000/svg" xmlns:xlink="http://www.w3.org/1999/xlink" width="230" zoomAndPan="magnify" viewBox="0 0 172.5 153.749995" height="205" preserveAspectRatio="xMidYMid meet" version="1.0"><defs><g/><clipPath id="15db41fd9e"><path d="M 0 0.0976562 L 172 0.0976562 L 172 152.773438 L 0 152.773438 Z M 0 0.0976562 " clip-rule="nonzero"/></clipPath><clipPath id="749e1c2ade"><path d="M 26.921875 0.0976562 L 145.078125 0.0976562 C 152.21875 0.0976562 159.066406 2.933594 164.117188 7.984375 C 169.164062 13.03125 172 19.878906 172 27.019531 L 172 125.851562 C 172 132.992188 169.164062 139.839844 164.117188 144.886719 C 159.066406 149.9375 152.21875 152.773438 145.078125 152.773438 L 26.921875 152.773438 C 19.78125 152.773438 12.933594 149.9375 7.886719 144.886719 C 2.835938 139.839844 0 132.992188 0 125.851562 L 0 27.019531 C 0 19.878906 2.835938 13.03125 7.886719 7.984375 C 12.933594 2.933594 19.78125 0.0976562 26.921875 0.0976562 Z M 26.921875 0.0976562 " clip-rule="nonzero"/></clipPath><clipPath id="a0eeab78bd"><path d="M 0 0.0976562 L 172 0.0976562 L 172 152.773438 L 0 152.773438 Z M 0 0.0976562 " clip-rule="nonzero"/></clipPath><clipPath id="5239aee7cf"><path d="M 26.921875 0.0976562 L 145.078125 0.0976562 C 152.21875 0.0976562 159.066406 2.933594 164.117188 7.984375 C 169.164062 13.03125 172 19.878906 172 27.019531 L 172 125.851562 C 172 132.992188 169.164062 139.839844 164.117188 144.886719 C 159.066406 149.9375 152.21875 152.773438 145.078125 152.773438 L 26.921875 152.773438 C 19.78125 152.773438 12.933594 149.9375 7.886719 144.886719 C 2.835938 139.839844 0 132.992188 0 125.851562 L 0 27.019531 C 0 19.878906 2.835938 13.03125 7.886719 7.984375 C 12.933594 2.933594 19.78125 0.0976562 26.921875 0.0976562 Z M 26.921875 0.0976562 " clip-rule="nonzero"/></clipPath><clipPath id="45ce63fcc7"><rect x="0" width="172" y="0" height="153"/></clipPath><clipPath id="b60a246766"><path d="M 52.101562 22.507812 L 120 22.507812 L 120 82 L 52.101562 82 Z M 52.101562 22.507812 " clip-rule="nonzero"/></clipPath><clipPath id="d226b9e89f"><path d="M 52.101562 22.507812 L 120 22.507812 L 120 82 L 52.101562 82 Z M 52.101562 22.507812 " clip-rule="nonzero"/></clipPath><clipPath id="7aff663f86"><rect x="0" width="94" y="0" height="23"/></clipPath></defs><g clip-path="url(#15db41fd9e)"><g clip-path="url(#749e1c2ade)"><g transform="matrix(1, 0, 0, 1, 0, -0.000000000000007841)"><g clip-path="url(#45ce63fcc7)"><g clip-path="url(#a0eeab78bd)"><g clip-path="url(#5239aee7cf)"><path fill="#ffffff" d="M 0 0.0976562 L 171.757812 0.0976562 L 171.757812 152.773438 L 0 152.773438 Z M 0 0.0976562 " fill-opacity="1" fill-rule="nonzero"/></g></g></g></g></g></g><g clip-path="url(#b60a246766)"><path fill="#222344" d="M 119.523438 42.621094 L 106.484375 28.011719 C 106.304688 27.785156 106.070312 27.652344 105.78125 27.613281 C 105.496094 27.574219 105.234375 27.640625 105 27.808594 C 104.757812 27.875 104.554688 28.007812 104.386719 28.199219 C 104.097656 28.542969 103.765625 28.847656 103.398438 29.113281 C 103.0625 29.347656 102.699219 29.515625 102.300781 29.621094 C 101.738281 29.757812 101.164062 29.84375 100.582031 29.875 C 99.90625 29.910156 99.230469 29.914062 98.550781 29.878906 C 97.5 29.832031 96.335938 29.714844 95.210938 29.605469 C 92.464844 29.21875 89.714844 29.171875 86.960938 29.472656 L 85.089844 29.59375 C 83.445312 29.707031 81.746094 29.820312 80.433594 29.878906 C 79.679688 29.914062 79.109375 29.921875 78.652344 29.925781 C 78.226562 29.929688 77.804688 29.90625 77.382812 29.855469 C 76.757812 29.800781 76.203125 29.574219 75.722656 29.171875 C 74.996094 28.476562 74.363281 27.703125 73.832031 26.847656 L 71.4375 23.332031 C 71.351562 23.1875 71.234375 23.070312 71.089844 22.980469 C 70.816406 22.859375 70.535156 22.816406 70.242188 22.859375 C 69.945312 22.902344 69.6875 23.019531 69.460938 23.214844 L 52.839844 34.804688 C 52.714844 34.894531 52.605469 35 52.515625 35.125 C 52.378906 35.269531 52.285156 35.4375 52.230469 35.628906 C 52.136719 35.964844 52.179688 36.285156 52.355469 36.585938 C 54.40625 40.101562 56.625 43.886719 58.949219 47.824219 C 60.90625 51.136719 63.097656 54.8125 65.636719 59.0625 C 65.152344 59.808594 64.894531 60.621094 64.859375 61.507812 C 64.828125 62.390625 65.019531 63.222656 65.445312 64 C 65.867188 64.78125 66.460938 65.394531 67.222656 65.847656 C 67.984375 66.300781 68.804688 66.527344 69.691406 66.523438 C 69.769531 66.523438 69.847656 66.515625 69.925781 66.503906 L 69.933594 66.503906 L 69.933594 66.511719 C 69.921875 66.589844 69.914062 66.667969 69.914062 66.746094 C 69.910156 68.070312 70.371094 69.199219 71.304688 70.140625 L 71.324219 70.164062 C 72.242188 71.082031 73.347656 71.550781 74.640625 71.570312 L 74.746094 71.578125 C 74.824219 71.578125 74.902344 71.570312 74.976562 71.558594 L 74.988281 71.558594 L 74.988281 71.566406 C 74.976562 71.644531 74.96875 71.722656 74.964844 71.800781 C 74.964844 72.4375 75.082031 73.046875 75.324219 73.636719 C 75.5625 74.226562 75.910156 74.746094 76.355469 75.195312 L 76.410156 75.25 C 77.347656 76.175781 78.476562 76.636719 79.792969 76.632812 C 79.871094 76.632812 79.949219 76.625 80.027344 76.613281 L 80.035156 76.613281 L 80.035156 76.621094 C 80.023438 76.699219 80.015625 76.777344 80.015625 76.855469 C 80.011719 78.148438 80.457031 79.261719 81.355469 80.195312 L 81.425781 80.273438 C 81.644531 80.492188 81.882812 80.6875 82.136719 80.859375 C 82.390625 81.03125 82.660156 81.175781 82.945312 81.296875 C 83.226562 81.417969 83.519531 81.511719 83.820312 81.578125 C 84.121094 81.640625 84.425781 81.675781 84.730469 81.683594 C 85.039062 81.691406 85.34375 81.667969 85.648438 81.617188 C 85.953125 81.566406 86.246094 81.488281 86.535156 81.378906 C 86.824219 81.269531 87.101562 81.136719 87.363281 80.976562 C 87.625 80.816406 87.871094 80.632812 88.097656 80.425781 C 88.121094 80.460938 88.144531 80.496094 88.175781 80.527344 C 88.398438 80.75 88.636719 80.945312 88.898438 81.121094 C 89.15625 81.292969 89.429688 81.441406 89.71875 81.5625 C 90.007812 81.683594 90.304688 81.773438 90.613281 81.839844 C 90.917969 81.902344 91.226562 81.933594 91.539062 81.9375 C 91.851562 81.941406 92.160156 81.914062 92.46875 81.855469 C 92.777344 81.800781 93.074219 81.714844 93.367188 81.601562 C 93.65625 81.484375 93.933594 81.34375 94.199219 81.175781 C 94.460938 81.007812 94.707031 80.8125 94.933594 80.597656 L 95.039062 80.496094 C 95.964844 79.558594 96.425781 78.429688 96.421875 77.109375 L 96.417969 77.003906 L 96.410156 77.003906 C 96.410156 76.960938 96.402344 76.921875 96.398438 76.878906 L 96.398438 76.871094 L 96.40625 76.871094 C 96.484375 76.878906 96.5625 76.886719 96.640625 76.886719 C 96.957031 76.890625 97.273438 76.859375 97.585938 76.796875 C 97.894531 76.734375 98.199219 76.644531 98.492188 76.523438 C 98.785156 76.402344 99.0625 76.253906 99.328125 76.074219 C 99.589844 75.898438 99.835938 75.699219 100.058594 75.476562 C 100.285156 75.25 100.484375 75.007812 100.660156 74.742188 C 100.835938 74.476562 100.984375 74.199219 101.105469 73.90625 C 101.226562 73.613281 101.320312 73.308594 101.382812 73 C 101.441406 72.6875 101.472656 72.371094 101.472656 72.054688 C 101.472656 71.976562 101.464844 71.902344 101.453125 71.824219 L 101.453125 71.8125 L 101.460938 71.8125 C 101.539062 71.824219 101.617188 71.832031 101.695312 71.832031 C 102.011719 71.832031 102.324219 71.804688 102.636719 71.742188 C 102.949219 71.679688 103.25 71.589844 103.542969 71.46875 C 103.835938 71.34375 104.113281 71.195312 104.378906 71.019531 C 104.644531 70.84375 104.886719 70.644531 105.109375 70.417969 C 105.335938 70.195312 105.535156 69.949219 105.710938 69.6875 C 105.886719 69.421875 106.039062 69.144531 106.160156 68.851562 C 106.28125 68.558594 106.371094 68.257812 106.433594 67.945312 C 106.496094 67.632812 106.527344 67.320312 106.527344 67 C 106.523438 66.921875 106.519531 66.847656 106.507812 66.769531 L 106.507812 66.761719 L 106.515625 66.761719 C 106.589844 66.773438 106.667969 66.78125 106.746094 66.78125 L 106.851562 66.777344 C 107.0625 66.773438 107.269531 66.753906 107.476562 66.722656 C 107.683594 66.695312 107.886719 66.648438 108.089844 66.59375 C 108.289062 66.535156 108.488281 66.464844 108.679688 66.382812 C 108.871094 66.296875 109.054688 66.203125 109.234375 66.097656 C 109.414062 65.988281 109.585938 65.871094 109.75 65.742188 C 109.914062 65.609375 110.070312 65.472656 110.214844 65.320312 C 110.363281 65.171875 110.496094 65.011719 110.621094 64.84375 C 110.746094 64.675781 110.863281 64.503906 110.964844 64.320312 C 111.066406 64.136719 111.15625 63.949219 111.234375 63.753906 C 111.3125 63.5625 111.375 63.363281 111.429688 63.160156 C 111.480469 62.957031 111.519531 62.753906 111.542969 62.546875 C 111.570312 62.335938 111.582031 62.128906 111.578125 61.921875 C 111.574219 61.710938 111.558594 61.503906 111.53125 61.296875 C 111.5 61.089844 111.460938 60.882812 111.402344 60.683594 C 111.347656 60.480469 111.277344 60.285156 111.195312 60.089844 C 111.117188 59.898438 111.023438 59.710938 110.914062 59.53125 C 112.539062 56.824219 113.984375 54.40625 115.230469 52.300781 C 116.546875 50.089844 118.027344 47.585938 119.625 44.867188 C 119.683594 44.765625 119.726562 44.65625 119.757812 44.546875 C 119.929688 43.871094 119.851562 43.230469 119.523438 42.621094 Z M 98.285156 70.414062 L 88.730469 60.863281 C 88.609375 60.742188 88.519531 60.605469 88.453125 60.445312 C 88.519531 60.605469 88.609375 60.742188 88.730469 60.863281 L 98.285156 70.414062 C 98.5 70.628906 98.664062 70.878906 98.78125 71.160156 C 98.664062 70.878906 98.5 70.628906 98.285156 70.414062 Z M 83.070312 75.394531 C 83.113281 75.335938 83.160156 75.277344 83.210938 75.21875 L 84.554688 73.871094 L 83.210938 75.21875 C 83.160156 75.273438 83.113281 75.332031 83.070312 75.394531 Z M 92.523438 71.476562 C 92.523438 72.027344 92.347656 72.511719 91.996094 72.9375 C 92.164062 72.730469 92.296875 72.503906 92.386719 72.253906 C 92.476562 72.003906 92.523438 71.746094 92.523438 71.476562 C 92.523438 71.210938 92.476562 70.953125 92.386719 70.703125 C 92.296875 70.453125 92.164062 70.226562 91.996094 70.019531 C 92.34375 70.441406 92.519531 70.925781 92.523438 71.476562 Z M 77.0625 51.714844 C 77.65625 51.960938 78.175781 52.308594 78.628906 52.761719 C 78.648438 52.78125 78.679688 52.816406 78.703125 52.839844 C 78.679688 52.816406 78.648438 52.78125 78.628906 52.761719 C 78.175781 52.308594 77.65625 51.960938 77.0625 51.714844 Z M 77.332031 55.296875 C 77.171875 54.902344 76.921875 54.582031 76.578125 54.332031 C 76.234375 54.082031 75.851562 53.9375 75.429688 53.902344 C 75.851562 53.9375 76.234375 54.082031 76.578125 54.332031 C 76.921875 54.582031 77.171875 54.902344 77.332031 55.296875 Z M 80.09375 56.105469 C 80.054688 55.332031 79.851562 54.605469 79.484375 53.921875 C 79.457031 53.871094 79.429688 53.832031 79.402344 53.78125 C 79.429688 53.832031 79.457031 53.871094 79.484375 53.921875 C 79.851562 54.605469 80.054688 55.332031 80.09375 56.105469 C 80.269531 56.101562 80.445312 56.109375 80.621094 56.128906 C 80.445312 56.109375 80.269531 56.101562 80.09375 56.105469 Z M 80.304688 58.9375 Z M 82.535156 61.246094 C 82.539062 60.632812 82.332031 60.105469 81.914062 59.660156 L 81.878906 59.628906 L 81.914062 59.660156 C 82.332031 60.105469 82.539062 60.632812 82.535156 61.246094 L 82.539062 61.324219 C 82.519531 61.875 82.324219 62.355469 81.957031 62.765625 C 82.324219 62.355469 82.519531 61.875 82.539062 61.324219 Z M 85.167969 64.125 C 84.863281 64.121094 84.566406 64.175781 84.28125 64.292969 C 84.566406 64.175781 84.863281 64.121094 85.167969 64.125 Z M 89.992188 66.601562 C 89.992188 66.621094 89.992188 66.640625 89.988281 66.660156 C 89.988281 66.636719 89.988281 66.617188 89.992188 66.597656 Z M 90 66.667969 L 89.988281 66.667969 L 90 66.667969 C 90.054688 66.660156 90.113281 66.65625 90.167969 66.652344 C 90.109375 66.652344 90.054688 66.65625 89.996094 66.664062 Z M 87.304688 65.546875 C 87.191406 65.265625 87.027344 65.019531 86.8125 64.804688 L 86.785156 64.773438 C 86.457031 64.453125 86.070312 64.253906 85.621094 64.167969 C 86.070312 64.253906 86.457031 64.453125 86.785156 64.773438 L 86.8125 64.804688 C 87.027344 65.019531 87.1875 65.265625 87.300781 65.542969 Z M 85.269531 61.0625 C 85.269531 61.011719 85.261719 60.941406 85.257812 60.855469 C 85.261719 60.941406 85.265625 61.011719 85.269531 61.0625 C 85.617188 61.132812 85.960938 61.230469 86.296875 61.355469 C 85.960938 61.230469 85.617188 61.132812 85.265625 61.0625 Z M 83.921875 57.726562 C 83.742188 57.53125 83.546875 57.355469 83.339844 57.191406 C 83.546875 57.355469 83.742188 57.53125 83.921875 57.726562 C 84.210938 58.039062 84.457031 58.382812 84.65625 58.757812 C 84.453125 58.382812 84.210938 58.039062 83.917969 57.726562 Z M 77.457031 41.636719 C 77.214844 41.046875 77.214844 40.453125 77.457031 39.859375 C 77.214844 40.453125 77.214844 41.046875 77.457031 41.636719 Z M 87.625 36.503906 C 87.273438 36.5 86.976562 36.625 86.730469 36.871094 L 82.5625 41.042969 L 86.730469 36.871094 C 86.976562 36.625 87.273438 36.5 87.625 36.503906 Z M 81.054688 42.523438 C 80.691406 42.824219 80.273438 42.992188 79.804688 43.035156 C 80.273438 42.992188 80.691406 42.824219 81.054688 42.523438 Z M 79.585938 43.054688 C 79.507812 43.050781 79.429688 43.042969 79.355469 43.035156 C 79.429688 43.042969 79.507812 43.050781 79.585938 43.054688 Z M 76.144531 44.144531 L 76.167969 44.167969 C 76.621094 44.625 77.144531 44.972656 77.738281 45.21875 C 78.328125 45.464844 78.945312 45.585938 79.585938 45.582031 C 78.945312 45.585938 78.328125 45.464844 77.738281 45.21875 C 77.144531 44.972656 76.621094 44.625 76.167969 44.167969 L 76.144531 44.144531 C 75.757812 43.75 75.445312 43.300781 75.207031 42.796875 C 74.972656 42.292969 74.828125 41.765625 74.777344 41.210938 C 74.722656 40.65625 74.765625 40.113281 74.898438 39.574219 C 75.035156 39.035156 75.253906 38.53125 75.5625 38.070312 C 75.257812 38.53125 75.035156 39.035156 74.898438 39.570312 C 74.765625 40.109375 74.726562 40.65625 74.777344 41.210938 C 74.832031 41.761719 74.976562 42.289062 75.210938 42.792969 C 75.445312 43.296875 75.757812 43.746094 76.144531 44.144531 Z M 75.207031 51.347656 C 74.566406 51.347656 73.949219 51.46875 73.355469 51.714844 C 72.765625 51.957031 72.242188 52.308594 71.789062 52.761719 L 67.421875 57.128906 L 71.789062 52.761719 C 72.242188 52.308594 72.765625 51.957031 73.355469 51.714844 C 73.949219 51.46875 74.566406 51.347656 75.207031 51.347656 Z M 75.203125 53.878906 C 75.125 53.882812 75.050781 53.890625 74.972656 53.902344 C 75.050781 53.890625 75.125 53.882812 75.203125 53.878906 Z M 76.835938 57.8125 C 77.164062 57.484375 77.371094 57.09375 77.460938 56.636719 C 77.371094 57.09375 77.164062 57.484375 76.835938 57.8125 L 72.703125 61.949219 Z M 78.601562 59.609375 L 78.613281 59.597656 L 78.601562 59.609375 L 77.226562 60.988281 Z M 86.804688 68.054688 C 87.019531 67.839844 87.1875 67.59375 87.300781 67.3125 C 87.1875 67.59375 87.019531 67.839844 86.804688 68.054688 L 82.773438 72.085938 Z M 90.222656 69.171875 C 90.769531 69.171875 91.257812 69.347656 91.679688 69.699219 C 91.257812 69.347656 90.769531 69.171875 90.222656 69.171875 Z M 90.230469 66.644531 C 90.707031 66.652344 91.175781 66.726562 91.632812 66.875 C 91.175781 66.726562 90.707031 66.652344 90.226562 66.644531 Z M 92.914062 67.449219 C 93.175781 67.628906 93.421875 67.832031 93.648438 68.054688 L 93.671875 68.082031 C 93.785156 68.195312 93.871094 68.328125 93.96875 68.449219 C 93.871094 68.328125 93.785156 68.195312 93.671875 68.082031 L 93.648438 68.054688 C 93.421875 67.832031 93.175781 67.628906 92.910156 67.449219 Z M 93.210938 75.445312 C 93.191406 75.425781 93.171875 75.402344 93.15625 75.378906 C 93.171875 75.402344 93.1875 75.425781 93.207031 75.445312 Z M 88.453125 59.496094 C 88.550781 59.257812 88.703125 59.066406 88.917969 58.921875 C 89.132812 58.777344 89.367188 58.707031 89.625 58.707031 C 89.367188 58.707031 89.132812 58.777344 88.917969 58.921875 C 88.703125 59.066406 88.550781 59.257812 88.453125 59.496094 Z M 90.515625 59.074219 C 90.394531 58.957031 90.257812 58.863281 90.101562 58.800781 C 90.257812 58.863281 90.394531 58.957031 90.515625 59.074219 L 92.90625 61.464844 Z M 94.191406 53.75 C 94.347656 53.6875 94.507812 53.652344 94.675781 53.652344 C 94.507812 53.652344 94.347656 53.6875 94.191406 53.75 Z M 95.570312 54.023438 C 95.449219 53.90625 95.3125 53.8125 95.160156 53.75 C 95.3125 53.8125 95.449219 53.90625 95.570312 54.023438 L 97.957031 56.414062 Z M 82.929688 44.242188 C 82.816406 44.347656 82.6875 44.433594 82.566406 44.527344 C 82.6875 44.433594 82.820312 44.347656 82.929688 44.242188 L 87.625 39.550781 Z M 88.53125 36.890625 L 88.515625 36.871094 C 88.484375 36.84375 88.453125 36.816406 88.417969 36.792969 C 88.453125 36.816406 88.484375 36.84375 88.515625 36.871094 L 88.53125 36.890625 L 93.691406 42.050781 Z M 100.734375 32.390625 C 100.9375 32.378906 101.117188 32.351562 101.308594 32.332031 C 101.117188 32.351562 100.9375 32.378906 100.734375 32.390625 C 100.5625 32.402344 100.375 32.402344 100.195312 32.40625 C 100.375 32.398438 100.5625 32.398438 100.734375 32.390625 Z M 98.449219 32.394531 C 98.875 32.414062 99.277344 32.421875 99.65625 32.421875 C 99.277344 32.421875 98.875 32.414062 98.449219 32.394531 C 97.363281 32.347656 96.234375 32.238281 95.039062 32.117188 L 94.980469 32.113281 L 95.039062 32.117188 C 96.230469 32.238281 97.363281 32.347656 98.445312 32.398438 Z M 93.398438 31.960938 C 92.34375 31.867188 91.277344 31.792969 90.230469 31.78125 C 91.273438 31.792969 92.34375 31.867188 93.394531 31.960938 Z M 81.144531 32.363281 Z M 80.542969 32.394531 L 80.691406 32.390625 L 80.539062 32.398438 C 80.128906 32.417969 79.777344 32.429688 79.46875 32.4375 C 79.777344 32.429688 80.128906 32.414062 80.539062 32.398438 Z M 77.058594 32.351562 C 77.582031 32.414062 78.109375 32.445312 78.640625 32.445312 C 78.765625 32.445312 78.894531 32.445312 79.035156 32.445312 C 78.898438 32.445312 78.765625 32.445312 78.640625 32.445312 C 78.109375 32.445312 77.582031 32.414062 77.058594 32.351562 C 76.5 32.285156 75.960938 32.148438 75.441406 31.9375 C 75.960938 32.148438 76.496094 32.285156 77.054688 32.351562 Z M 71.757812 28.273438 C 72.355469 29.199219 73.042969 30.054688 73.816406 30.835938 C 73.042969 30.054688 72.355469 29.199219 71.757812 28.273438 L 70.832031 26.921875 Z M 70.417969 26.316406 L 70.101562 25.855469 Z M 60.34375 45.222656 L 61.121094 46.542969 L 61.859375 47.785156 L 61.121094 46.542969 Z M 71.300781 63.351562 C 70.851562 63.785156 70.316406 64 69.691406 64 C 70.316406 64 70.851562 63.785156 71.300781 63.351562 L 71.316406 63.332031 Z M 73.101562 68.371094 C 72.777344 68.039062 72.570312 67.644531 72.480469 67.1875 C 72.394531 66.734375 72.4375 66.289062 72.613281 65.863281 C 72.4375 66.289062 72.394531 66.734375 72.480469 67.1875 C 72.570312 67.644531 72.777344 68.039062 73.101562 68.371094 L 73.128906 68.398438 C 73.179688 68.449219 73.242188 68.492188 73.300781 68.535156 C 73.242188 68.492188 73.183594 68.449219 73.128906 68.398438 Z M 74.742188 69.046875 L 74.664062 69.050781 L 74.742188 69.046875 C 75.292969 69.046875 75.777344 68.871094 76.199219 68.519531 C 75.777344 68.871094 75.292969 69.046875 74.742188 69.046875 Z M 77.492188 71.796875 C 77.492188 71.488281 77.546875 71.195312 77.664062 70.910156 C 77.425781 71.5 77.425781 72.089844 77.664062 72.675781 C 77.550781 72.394531 77.492188 72.101562 77.492188 71.796875 Z M 78.089844 73.503906 L 78.144531 73.449219 Z M 78.164062 73.429688 C 78.613281 73.882812 79.160156 74.109375 79.796875 74.105469 C 79.15625 74.109375 78.613281 73.882812 78.164062 73.429688 Z M 80.027344 74.078125 C 80.410156 74.046875 80.757812 73.929688 81.082031 73.71875 C 80.757812 73.929688 80.40625 74.050781 80.023438 74.078125 Z M 83.214844 78.480469 L 83.203125 78.46875 L 83.214844 78.480469 C 83.429688 78.699219 83.679688 78.863281 83.960938 78.980469 C 83.679688 78.863281 83.425781 78.695312 83.210938 78.480469 Z M 86.480469 78.484375 C 86.265625 78.699219 86.015625 78.867188 85.734375 78.980469 C 85.449219 79.097656 85.15625 79.152344 84.847656 79.152344 C 85.15625 79.152344 85.449219 79.097656 85.734375 78.980469 C 86.015625 78.867188 86.265625 78.699219 86.480469 78.484375 L 90.511719 74.453125 Z M 90.695312 77.84375 L 89.875 78.664062 L 89.898438 78.683594 L 89.875 78.664062 Z M 91.59375 79.40625 C 92.207031 79.410156 92.734375 79.203125 93.179688 78.785156 L 93.214844 78.75 L 93.179688 78.785156 C 92.734375 79.203125 92.203125 79.410156 91.589844 79.40625 Z M 93.898438 77.101562 C 93.898438 77.652344 93.722656 78.136719 93.371094 78.5625 C 93.722656 78.136719 93.898438 77.652344 93.898438 77.101562 L 93.898438 76.996094 C 93.875 76.425781 93.667969 75.929688 93.273438 75.515625 L 93.238281 75.480469 L 93.269531 75.515625 C 93.664062 75.929688 93.871094 76.425781 93.894531 76.996094 Z M 94.695312 73.269531 C 94.675781 73.324219 94.65625 73.375 94.632812 73.429688 C 94.671875 73.445312 94.695312 73.476562 94.730469 73.492188 C 94.695312 73.476562 94.671875 73.445312 94.632812 73.429688 C 94.652344 73.375 94.671875 73.320312 94.691406 73.265625 Z M 95.777344 74.179688 C 96.058594 74.296875 96.351562 74.351562 96.65625 74.351562 C 96.351562 74.351562 96.058594 74.296875 95.777344 74.179688 Z M 100.820312 69.125 C 101.105469 69.242188 101.398438 69.296875 101.707031 69.292969 C 101.398438 69.296875 101.101562 69.242188 100.816406 69.125 Z M 103.160156 68.773438 C 102.804688 69.066406 102.394531 69.234375 101.933594 69.28125 C 102.394531 69.234375 102.800781 69.066406 103.15625 68.773438 Z M 103.371094 68.597656 L 103.347656 68.621094 L 103.371094 68.597656 C 103.566406 68.390625 103.71875 68.160156 103.828125 67.898438 C 103.9375 67.640625 103.996094 67.371094 104.007812 67.085938 C 104.015625 66.804688 103.976562 66.53125 103.886719 66.265625 C 103.796875 65.996094 103.660156 65.753906 103.480469 65.539062 C 103.660156 65.753906 103.796875 65.996094 103.886719 66.265625 C 103.976562 66.53125 104.015625 66.804688 104.007812 67.085938 C 103.996094 67.371094 103.9375 67.640625 103.828125 67.898438 C 103.71875 68.160156 103.566406 68.390625 103.371094 68.597656 Z M 106.757812 64.246094 C 106.707031 64.246094 106.65625 64.234375 106.605469 64.230469 C 106.65625 64.230469 106.707031 64.246094 106.757812 64.246094 L 106.863281 64.246094 Z M 107.875 63.953125 C 107.625 64.09375 107.359375 64.183594 107.078125 64.21875 C 107.359375 64.183594 107.621094 64.09375 107.871094 63.953125 Z M 109.175781 57.535156 L 110.097656 55.992188 Z M 113.652344 50.027344 C 115.023438 47.71875 116.238281 45.660156 117.269531 43.90625 L 105.46875 30.679688 L 117.273438 43.910156 C 116.238281 45.65625 115.023438 47.71875 113.652344 50.023438 Z M 113.652344 50.027344 " fill-opacity="1" fill-rule="nonzero"/></g><path fill="#7bbbff" d="M 76.835938 57.8125 L 71.324219 63.328125 L 71.300781 63.351562 C 71.082031 63.5625 70.832031 63.722656 70.550781 63.832031 C 70.265625 63.945312 69.972656 64 69.667969 63.996094 C 69.367188 63.992188 69.074219 63.929688 68.792969 63.8125 C 68.515625 63.691406 68.269531 63.523438 68.054688 63.308594 C 67.84375 63.089844 67.675781 62.84375 67.5625 62.5625 C 67.449219 62.28125 67.390625 61.988281 67.390625 61.683594 C 67.390625 61.378906 67.449219 61.085938 67.5625 60.808594 C 67.679688 60.527344 67.84375 60.277344 68.058594 60.0625 L 73.570312 54.550781 C 73.785156 54.335938 74.035156 54.167969 74.316406 54.050781 C 74.601562 53.933594 74.894531 53.875 75.199219 53.875 C 75.507812 53.875 75.800781 53.933594 76.085938 54.050781 C 76.367188 54.167969 76.617188 54.332031 76.832031 54.550781 C 77.050781 54.765625 77.21875 55.015625 77.335938 55.296875 C 77.453125 55.582031 77.511719 55.875 77.511719 56.179688 C 77.511719 56.488281 77.453125 56.78125 77.335938 57.066406 C 77.21875 57.347656 77.050781 57.597656 76.835938 57.8125 Z M 92.523438 71.476562 C 92.523438 71.011719 92.390625 70.582031 92.132812 70.195312 C 91.875 69.808594 91.527344 69.527344 91.097656 69.347656 C 90.667969 69.167969 90.222656 69.125 89.765625 69.214844 C 89.308594 69.304688 88.917969 69.515625 88.585938 69.84375 L 83.210938 75.21875 C 83 75.429688 82.839844 75.675781 82.722656 75.953125 C 82.605469 76.226562 82.546875 76.515625 82.539062 76.816406 C 82.535156 77.113281 82.585938 77.40625 82.695312 77.683594 C 82.800781 77.964844 82.957031 78.214844 83.160156 78.433594 L 83.210938 78.480469 C 83.425781 78.695312 83.675781 78.859375 83.960938 78.976562 C 84.242188 79.09375 84.535156 79.152344 84.84375 79.152344 C 85.148438 79.152344 85.441406 79.09375 85.726562 78.980469 C 86.007812 78.863281 86.257812 78.699219 86.476562 78.484375 L 91.851562 73.109375 C 92.300781 72.65625 92.527344 72.113281 92.523438 71.476562 Z M 87.472656 66.421875 C 87.476562 65.792969 87.257812 65.25 86.8125 64.800781 L 86.78125 64.769531 C 86.5625 64.558594 86.3125 64.398438 86.03125 64.285156 C 85.75 64.171875 85.457031 64.117188 85.15625 64.117188 C 84.851562 64.121094 84.558594 64.179688 84.28125 64.296875 C 84 64.414062 83.75 64.578125 83.535156 64.789062 L 78.164062 70.164062 C 77.949219 70.378906 77.78125 70.628906 77.667969 70.910156 C 77.550781 71.191406 77.492188 71.484375 77.492188 71.789062 C 77.488281 72.09375 77.546875 72.386719 77.660156 72.667969 C 77.777344 72.953125 77.9375 73.203125 78.152344 73.417969 L 78.085938 73.503906 L 78.164062 73.429688 C 78.378906 73.644531 78.628906 73.808594 78.910156 73.925781 C 79.195312 74.042969 79.488281 74.101562 79.792969 74.101562 C 80.101562 74.101562 80.394531 74.042969 80.675781 73.925781 C 80.960938 73.808594 81.210938 73.644531 81.425781 73.429688 L 86.800781 68.054688 C 87.253906 67.605469 87.476562 67.0625 87.472656 66.421875 Z M 82.539062 61.324219 L 82.535156 61.246094 C 82.539062 60.632812 82.332031 60.105469 81.914062 59.65625 L 81.867188 59.617188 C 81.4375 59.183594 80.917969 58.957031 80.304688 58.941406 L 80.234375 58.941406 C 79.621094 58.9375 79.09375 59.144531 78.644531 59.5625 L 78.601562 59.609375 L 73.109375 65.109375 C 72.894531 65.328125 72.730469 65.578125 72.613281 65.859375 C 72.5 66.140625 72.441406 66.433594 72.4375 66.738281 C 72.4375 67.039062 72.496094 67.335938 72.609375 67.617188 C 72.722656 67.898438 72.886719 68.148438 73.101562 68.367188 L 73.128906 68.394531 C 73.554688 68.8125 74.066406 69.03125 74.664062 69.050781 L 74.742188 69.046875 C 75.378906 69.050781 75.925781 68.828125 76.375 68.375 L 81.863281 62.875 C 82.292969 62.449219 82.519531 61.929688 82.539062 61.324219 Z M 104.839844 31.183594 C 104.25 31.597656 103.609375 31.894531 102.914062 32.070312 C 102.199219 32.246094 101.46875 32.351562 100.734375 32.390625 C 99.972656 32.429688 99.210938 32.433594 98.449219 32.394531 C 97.363281 32.347656 96.234375 32.238281 95.039062 32.117188 L 94.960938 32.109375 C 90.847656 31.703125 86.183594 31.238281 83.441406 33.632812 L 77.953125 39.121094 C 77.746094 39.335938 77.585938 39.582031 77.472656 39.859375 C 77.363281 40.136719 77.308594 40.425781 77.308594 40.726562 C 77.308594 41.027344 77.363281 41.316406 77.476562 41.59375 C 77.589844 41.871094 77.75 42.117188 77.960938 42.332031 C 78.167969 42.546875 78.410156 42.714844 78.683594 42.835938 C 78.957031 42.957031 79.246094 43.023438 79.542969 43.03125 C 79.84375 43.042969 80.132812 42.996094 80.414062 42.894531 C 80.695312 42.789062 80.949219 42.636719 81.171875 42.4375 L 86.726562 36.875 C 86.847656 36.757812 86.984375 36.664062 87.136719 36.601562 C 87.292969 36.535156 87.453125 36.503906 87.621094 36.503906 C 87.789062 36.503906 87.949219 36.535156 88.105469 36.601562 C 88.257812 36.664062 88.394531 36.757812 88.515625 36.875 L 109.175781 57.535156 C 110.386719 55.515625 111.675781 53.347656 113.0625 51.019531 C 114.683594 48.292969 116.09375 45.914062 117.269531 43.910156 L 105.46875 30.679688 C 105.269531 30.859375 105.058594 31.027344 104.839844 31.183594 Z M 93.226562 75.46875 C 93.199219 75.441406 93.175781 75.410156 93.15625 75.378906 L 89.871094 78.664062 C 89.902344 78.683594 89.933594 78.707031 89.960938 78.734375 C 90.171875 78.945312 90.417969 79.105469 90.695312 79.222656 C 90.972656 79.339844 91.257812 79.402344 91.558594 79.40625 C 91.859375 79.410156 92.148438 79.359375 92.429688 79.25 C 92.707031 79.144531 92.957031 78.988281 93.175781 78.785156 L 93.222656 78.734375 C 93.679688 78.285156 93.902344 77.738281 93.902344 77.101562 L 93.902344 76.996094 C 93.878906 76.425781 93.667969 75.929688 93.277344 75.515625 Z M 93.226562 75.46875 " fill-opacity="1" fill-rule="nonzero"/><path fill="#fdfbfe" d="M 87.625 39.550781 L 82.929688 44.242188 C 82.703125 44.457031 82.460938 44.648438 82.195312 44.816406 C 81.933594 44.988281 81.65625 45.128906 81.363281 45.242188 C 81.074219 45.359375 80.773438 45.445312 80.464844 45.5 C 80.160156 45.558594 79.847656 45.585938 79.535156 45.582031 C 79.222656 45.578125 78.914062 45.546875 78.605469 45.480469 C 78.300781 45.417969 78.003906 45.328125 77.714844 45.207031 C 77.425781 45.085938 77.152344 44.9375 76.890625 44.761719 C 76.632812 44.589844 76.390625 44.390625 76.167969 44.167969 L 76.144531 44.144531 C 75.925781 43.921875 75.726562 43.675781 75.554688 43.414062 C 75.378906 43.148438 75.234375 42.871094 75.113281 42.578125 C 74.996094 42.285156 74.90625 41.984375 74.84375 41.675781 C 74.785156 41.363281 74.753906 41.050781 74.753906 40.734375 C 74.757812 40.421875 74.789062 40.109375 74.851562 39.796875 C 74.914062 39.488281 75.003906 39.1875 75.125 38.894531 C 75.246094 38.605469 75.394531 38.328125 75.570312 38.066406 C 75.746094 37.800781 75.945312 37.558594 76.167969 37.335938 L 81.140625 32.363281 L 81.125 32.363281 C 80.929688 32.375 80.730469 32.386719 80.542969 32.394531 C 79.714844 32.429688 79.144531 32.449219 78.636719 32.441406 C 78.109375 32.441406 77.582031 32.414062 77.054688 32.347656 C 75.9375 32.242188 74.953125 31.828125 74.101562 31.105469 C 73.195312 30.261719 72.414062 29.320312 71.757812 28.273438 L 70.519531 26.472656 L 70.101562 25.855469 L 55.113281 36.304688 C 57.015625 39.570312 59.03125 43 61.121094 46.542969 C 63.050781 49.800781 65.109375 53.265625 67.421875 57.128906 L 71.789062 52.761719 C 72.011719 52.539062 72.257812 52.339844 72.519531 52.164062 C 72.785156 51.984375 73.0625 51.835938 73.359375 51.714844 C 73.652344 51.59375 73.953125 51.503906 74.265625 51.441406 C 74.574219 51.378906 74.890625 51.347656 75.207031 51.347656 C 75.523438 51.347656 75.839844 51.378906 76.152344 51.441406 C 76.460938 51.503906 76.765625 51.59375 77.058594 51.714844 C 77.351562 51.835938 77.628906 51.984375 77.894531 52.164062 C 78.15625 52.339844 78.402344 52.539062 78.625 52.761719 C 78.96875 53.109375 79.253906 53.496094 79.484375 53.921875 C 79.847656 54.605469 80.050781 55.332031 80.09375 56.105469 C 80.816406 56.101562 81.507812 56.242188 82.171875 56.523438 C 82.835938 56.804688 83.417969 57.207031 83.917969 57.726562 C 84.777344 58.671875 85.226562 59.78125 85.261719 61.0625 C 86.574219 61.308594 87.6875 61.921875 88.597656 62.894531 C 88.992188 63.339844 89.3125 63.835938 89.554688 64.378906 C 89.816406 65.035156 89.964844 65.71875 90.003906 66.425781 C 90.003906 66.503906 89.996094 66.578125 89.984375 66.65625 L 89.984375 66.664062 L 89.996094 66.664062 C 90.070312 66.652344 90.148438 66.648438 90.226562 66.644531 C 90.867188 66.644531 91.484375 66.765625 92.078125 67.007812 C 92.667969 67.253906 93.191406 67.605469 93.644531 68.058594 L 93.667969 68.085938 C 94.011719 68.429688 94.292969 68.816406 94.519531 69.246094 C 94.742188 69.675781 94.894531 70.128906 94.980469 70.609375 C 95.066406 71.085938 95.082031 71.5625 95.019531 72.046875 C 94.960938 72.527344 94.828125 72.988281 94.628906 73.429688 C 94.773438 73.488281 94.90625 73.574219 95.015625 73.683594 C 95.234375 73.894531 95.484375 74.058594 95.765625 74.167969 C 96.046875 74.28125 96.339844 74.339844 96.644531 74.335938 C 96.945312 74.332031 97.238281 74.273438 97.519531 74.15625 C 97.796875 74.039062 98.046875 73.875 98.261719 73.660156 C 98.476562 73.445312 98.640625 73.199219 98.757812 72.917969 C 98.875 72.636719 98.933594 72.34375 98.9375 72.042969 C 98.9375 71.738281 98.882812 71.445312 98.769531 71.164062 C 98.65625 70.882812 98.492188 70.632812 98.28125 70.417969 L 88.730469 60.863281 C 88.613281 60.746094 88.519531 60.609375 88.457031 60.453125 C 88.390625 60.300781 88.359375 60.136719 88.359375 59.96875 C 88.359375 59.800781 88.390625 59.640625 88.457031 59.484375 C 88.519531 59.332031 88.609375 59.195312 88.730469 59.074219 C 88.847656 58.957031 88.984375 58.867188 89.140625 58.800781 C 89.292969 58.738281 89.457031 58.707031 89.625 58.707031 C 89.789062 58.707031 89.953125 58.738281 90.105469 58.800781 C 90.261719 58.867188 90.398438 58.957031 90.515625 59.074219 L 100.070312 68.625 C 100.285156 68.839844 100.535156 69.003906 100.820312 69.121094 C 101.101562 69.238281 101.394531 69.296875 101.699219 69.296875 C 102.007812 69.296875 102.300781 69.238281 102.582031 69.121094 C 102.867188 69.003906 103.117188 68.839844 103.332031 68.625 L 103.367188 68.59375 C 103.574219 68.375 103.734375 68.125 103.84375 67.84375 C 103.953125 67.5625 104.007812 67.269531 104.003906 66.96875 C 104 66.667969 103.941406 66.378906 103.824219 66.097656 C 103.707031 65.820312 103.542969 65.574219 103.332031 65.359375 L 93.78125 55.8125 C 93.660156 55.695312 93.566406 55.558594 93.496094 55.402344 C 93.429688 55.246094 93.394531 55.082031 93.394531 54.914062 C 93.390625 54.742188 93.421875 54.578125 93.488281 54.421875 C 93.550781 54.265625 93.644531 54.125 93.765625 54.007812 C 93.882812 53.886719 94.023438 53.792969 94.179688 53.730469 C 94.335938 53.667969 94.5 53.636719 94.671875 53.636719 C 94.839844 53.636719 95.003906 53.671875 95.160156 53.742188 C 95.316406 53.808594 95.453125 53.902344 95.570312 54.023438 L 105.121094 63.574219 C 105.570312 64.027344 106.113281 64.25 106.753906 64.246094 L 106.859375 64.246094 C 107.3125 64.222656 107.726562 64.078125 108.097656 63.8125 C 108.46875 63.542969 108.734375 63.195312 108.898438 62.769531 C 109.0625 62.34375 109.097656 61.910156 109.003906 61.460938 C 108.910156 61.015625 108.703125 60.628906 108.382812 60.308594 Z M 87.625 39.550781 " fill-opacity="1" fill-rule="nonzero"/><g clip-path="url(#d226b9e89f)"><path fill="#222344" d="M 119.523438 42.621094 L 106.484375 28.011719 C 106.304688 27.785156 106.070312 27.652344 105.78125 27.613281 C 105.496094 27.574219 105.234375 27.640625 105 27.808594 C 104.757812 27.875 104.554688 28.007812 104.386719 28.199219 C 104.097656 28.542969 103.765625 28.847656 103.398438 29.113281 C 103.0625 29.347656 102.699219 29.515625 102.300781 29.621094 C 101.738281 29.757812 101.164062 29.84375 100.582031 29.875 C 99.90625 29.910156 99.230469 29.914062 98.550781 29.878906 C 97.5 29.832031 96.335938 29.714844 95.210938 29.605469 C 92.464844 29.21875 89.714844 29.171875 86.960938 29.472656 L 85.089844 29.59375 C 83.445312 29.707031 81.746094 29.820312 80.433594 29.878906 C 79.679688 29.914062 79.109375 29.921875 78.652344 29.925781 C 78.226562 29.929688 77.804688 29.90625 77.382812 29.855469 C 76.757812 29.800781 76.203125 29.574219 75.722656 29.171875 C 74.992188 28.476562 74.363281 27.703125 73.832031 26.847656 L 71.4375 23.332031 C 71.351562 23.1875 71.234375 23.070312 71.089844 22.980469 C 70.816406 22.859375 70.535156 22.816406 70.242188 22.859375 C 69.945312 22.902344 69.6875 23.019531 69.460938 23.214844 L 52.839844 34.804688 C 52.710938 34.890625 52.605469 35 52.515625 35.125 C 52.378906 35.269531 52.285156 35.4375 52.230469 35.628906 C 52.136719 35.964844 52.179688 36.285156 52.355469 36.585938 C 54.40625 40.105469 56.625 43.886719 58.949219 47.824219 C 60.90625 51.136719 63.097656 54.8125 65.636719 59.0625 C 65.152344 59.808594 64.894531 60.621094 64.859375 61.507812 C 64.824219 62.390625 65.019531 63.222656 65.441406 64 C 65.867188 64.78125 66.457031 65.394531 67.21875 65.847656 C 67.980469 66.300781 68.804688 66.527344 69.691406 66.523438 C 69.769531 66.523438 69.847656 66.515625 69.925781 66.503906 L 69.933594 66.503906 L 69.933594 66.511719 C 69.921875 66.589844 69.914062 66.667969 69.914062 66.746094 C 69.910156 68.070312 70.371094 69.199219 71.300781 70.140625 L 71.324219 70.164062 C 72.238281 71.078125 73.34375 71.550781 74.640625 71.570312 L 74.746094 71.578125 C 74.824219 71.578125 74.898438 71.570312 74.976562 71.558594 L 74.984375 71.558594 L 74.984375 71.566406 C 74.972656 71.644531 74.96875 71.722656 74.964844 71.800781 C 74.960938 72.4375 75.082031 73.046875 75.324219 73.636719 C 75.5625 74.226562 75.90625 74.746094 76.355469 75.195312 L 76.40625 75.25 C 77.347656 76.175781 78.472656 76.636719 79.792969 76.632812 C 79.871094 76.632812 79.949219 76.625 80.027344 76.613281 L 80.035156 76.613281 L 80.035156 76.621094 C 80.023438 76.699219 80.015625 76.777344 80.015625 76.855469 C 80.011719 78.148438 80.457031 79.261719 81.355469 80.195312 L 81.425781 80.273438 C 81.644531 80.492188 81.882812 80.6875 82.136719 80.859375 C 82.390625 81.03125 82.660156 81.175781 82.945312 81.296875 C 83.226562 81.417969 83.519531 81.511719 83.820312 81.578125 C 84.121094 81.640625 84.425781 81.675781 84.730469 81.683594 C 85.039062 81.691406 85.34375 81.667969 85.648438 81.617188 C 85.953125 81.566406 86.246094 81.488281 86.535156 81.378906 C 86.824219 81.269531 87.101562 81.136719 87.363281 80.976562 C 87.625 80.816406 87.871094 80.632812 88.097656 80.425781 C 88.121094 80.460938 88.144531 80.496094 88.175781 80.527344 C 88.398438 80.75 88.636719 80.945312 88.898438 81.121094 C 89.15625 81.292969 89.429688 81.441406 89.71875 81.5625 C 90.007812 81.683594 90.304688 81.773438 90.613281 81.839844 C 90.917969 81.902344 91.226562 81.933594 91.539062 81.9375 C 91.851562 81.941406 92.160156 81.914062 92.46875 81.855469 C 92.777344 81.800781 93.074219 81.714844 93.367188 81.601562 C 93.65625 81.484375 93.933594 81.34375 94.199219 81.175781 C 94.460938 81.007812 94.707031 80.8125 94.933594 80.597656 L 95.039062 80.496094 C 95.964844 79.558594 96.425781 78.429688 96.421875 77.109375 L 96.417969 77.003906 L 96.410156 77.003906 C 96.410156 76.960938 96.402344 76.921875 96.398438 76.878906 L 96.398438 76.871094 L 96.40625 76.871094 C 96.484375 76.878906 96.5625 76.886719 96.640625 76.886719 C 96.957031 76.890625 97.273438 76.859375 97.585938 76.796875 C 97.894531 76.734375 98.199219 76.644531 98.492188 76.523438 C 98.785156 76.402344 99.0625 76.253906 99.328125 76.074219 C 99.589844 75.898438 99.835938 75.699219 100.058594 75.476562 C 100.285156 75.25 100.484375 75.007812 100.660156 74.742188 C 100.835938 74.476562 100.984375 74.199219 101.105469 73.90625 C 101.226562 73.613281 101.320312 73.308594 101.382812 73 C 101.441406 72.6875 101.472656 72.371094 101.472656 72.054688 C 101.472656 71.976562 101.464844 71.902344 101.453125 71.824219 L 101.453125 71.8125 L 101.460938 71.8125 C 101.539062 71.824219 101.617188 71.832031 101.695312 71.832031 C 102.011719 71.832031 102.324219 71.804688 102.636719 71.742188 C 102.949219 71.679688 103.25 71.589844 103.542969 71.46875 C 103.835938 71.34375 104.113281 71.195312 104.378906 71.019531 C 104.644531 70.84375 104.886719 70.644531 105.109375 70.417969 C 105.335938 70.195312 105.535156 69.949219 105.710938 69.6875 C 105.886719 69.421875 106.039062 69.144531 106.160156 68.851562 C 106.28125 68.558594 106.371094 68.257812 106.433594 67.945312 C 106.496094 67.632812 106.527344 67.320312 106.527344 67 C 106.523438 66.921875 106.519531 66.847656 106.507812 66.769531 L 106.507812 66.761719 L 106.515625 66.761719 C 106.589844 66.773438 106.667969 66.78125 106.746094 66.78125 L 106.851562 66.777344 C 107.0625 66.773438 107.269531 66.753906 107.476562 66.722656 C 107.683594 66.691406 107.886719 66.648438 108.089844 66.589844 C 108.289062 66.535156 108.484375 66.464844 108.675781 66.382812 C 108.871094 66.296875 109.054688 66.203125 109.234375 66.09375 C 109.414062 65.988281 109.585938 65.871094 109.75 65.738281 C 109.914062 65.609375 110.070312 65.472656 110.214844 65.320312 C 110.359375 65.171875 110.496094 65.011719 110.621094 64.84375 C 110.746094 64.675781 110.859375 64.503906 110.960938 64.320312 C 111.066406 64.136719 111.15625 63.949219 111.230469 63.753906 C 111.308594 63.5625 111.375 63.363281 111.425781 63.160156 C 111.476562 62.957031 111.515625 62.753906 111.542969 62.542969 C 111.566406 62.335938 111.578125 62.128906 111.578125 61.917969 C 111.574219 61.710938 111.558594 61.503906 111.53125 61.296875 C 111.5 61.089844 111.457031 60.882812 111.402344 60.683594 C 111.347656 60.480469 111.277344 60.285156 111.195312 60.089844 C 111.113281 59.898438 111.019531 59.710938 110.914062 59.53125 C 112.535156 56.824219 113.980469 54.40625 115.230469 52.300781 C 116.546875 50.089844 118.023438 47.585938 119.625 44.867188 C 119.683594 44.765625 119.726562 44.65625 119.757812 44.546875 C 119.933594 43.871094 119.851562 43.230469 119.523438 42.621094 Z M 71.324219 63.328125 L 71.300781 63.351562 C 71.082031 63.5625 70.832031 63.722656 70.550781 63.832031 C 70.265625 63.945312 69.972656 64 69.667969 63.996094 C 69.367188 63.992188 69.074219 63.929688 68.792969 63.8125 C 68.515625 63.691406 68.269531 63.523438 68.054688 63.308594 C 67.84375 63.089844 67.675781 62.84375 67.5625 62.5625 C 67.449219 62.28125 67.390625 61.988281 67.390625 61.683594 C 67.390625 61.378906 67.449219 61.085938 67.5625 60.808594 C 67.679688 60.527344 67.84375 60.277344 68.058594 60.0625 L 73.570312 54.550781 C 73.789062 54.339844 74.035156 54.175781 74.316406 54.066406 C 74.597656 53.953125 74.890625 53.898438 75.195312 53.898438 C 75.496094 53.902344 75.789062 53.960938 76.066406 54.078125 C 76.347656 54.195312 76.59375 54.359375 76.808594 54.574219 C 77.023438 54.789062 77.1875 55.035156 77.304688 55.316406 C 77.421875 55.59375 77.484375 55.886719 77.484375 56.1875 C 77.488281 56.492188 77.433594 56.785156 77.320312 57.066406 C 77.207031 57.347656 77.046875 57.597656 76.835938 57.8125 Z M 76.375 68.378906 C 75.925781 68.828125 75.378906 69.050781 74.742188 69.046875 L 74.664062 69.050781 C 74.066406 69.035156 73.554688 68.816406 73.128906 68.398438 L 73.101562 68.367188 C 72.886719 68.148438 72.722656 67.898438 72.609375 67.617188 C 72.496094 67.335938 72.4375 67.042969 72.4375 66.738281 C 72.441406 66.433594 72.5 66.140625 72.613281 65.859375 C 72.730469 65.578125 72.894531 65.328125 73.109375 65.113281 L 78.601562 59.609375 L 78.644531 59.5625 C 79.09375 59.144531 79.621094 58.9375 80.234375 58.941406 L 80.304688 58.941406 C 80.917969 58.957031 81.4375 59.183594 81.867188 59.617188 L 81.914062 59.660156 C 82.332031 60.105469 82.539062 60.632812 82.535156 61.246094 L 82.539062 61.324219 C 82.519531 61.933594 82.296875 62.449219 81.863281 62.878906 Z M 81.425781 73.429688 C 81.210938 73.644531 80.960938 73.8125 80.675781 73.929688 C 80.394531 74.042969 80.101562 74.101562 79.792969 74.101562 C 79.488281 74.101562 79.195312 74.042969 78.910156 73.929688 C 78.628906 73.8125 78.378906 73.644531 78.164062 73.429688 L 78.085938 73.503906 L 78.152344 73.421875 C 77.9375 73.203125 77.777344 72.953125 77.660156 72.671875 C 77.546875 72.390625 77.488281 72.09375 77.492188 71.792969 C 77.492188 71.488281 77.550781 71.195312 77.667969 70.914062 C 77.78125 70.632812 77.949219 70.382812 78.164062 70.164062 L 83.535156 64.792969 C 83.75 64.578125 84 64.414062 84.28125 64.296875 C 84.558594 64.183594 84.851562 64.125 85.15625 64.121094 C 85.457031 64.121094 85.75 64.175781 86.03125 64.289062 C 86.3125 64.398438 86.5625 64.5625 86.78125 64.773438 L 86.8125 64.804688 C 87.023438 65.019531 87.1875 65.269531 87.304688 65.554688 C 87.417969 65.835938 87.472656 66.128906 87.472656 66.433594 C 87.472656 66.738281 87.414062 67.03125 87.296875 67.3125 C 87.179688 67.59375 87.015625 67.84375 86.800781 68.058594 Z M 86.476562 78.484375 C 86.261719 78.699219 86.011719 78.863281 85.726562 78.980469 C 85.445312 79.09375 85.148438 79.152344 84.84375 79.152344 C 84.539062 79.152344 84.242188 79.09375 83.960938 78.976562 C 83.675781 78.859375 83.425781 78.695312 83.210938 78.480469 L 83.164062 78.433594 C 82.960938 78.214844 82.804688 77.964844 82.695312 77.683594 C 82.589844 77.40625 82.539062 77.117188 82.542969 76.816406 C 82.546875 76.515625 82.609375 76.226562 82.722656 75.953125 C 82.839844 75.675781 83.003906 75.429688 83.214844 75.21875 L 88.589844 69.84375 C 88.804688 69.625 89.054688 69.460938 89.335938 69.34375 C 89.621094 69.226562 89.914062 69.167969 90.222656 69.167969 C 90.527344 69.167969 90.820312 69.226562 91.105469 69.34375 C 91.386719 69.460938 91.636719 69.628906 91.851562 69.84375 C 92.070312 70.0625 92.234375 70.3125 92.351562 70.59375 C 92.46875 70.878906 92.527344 71.171875 92.527344 71.476562 C 92.527344 71.785156 92.46875 72.078125 92.351562 72.359375 C 92.234375 72.644531 92.066406 72.894531 91.851562 73.109375 Z M 93.894531 77.101562 C 93.898438 77.738281 93.671875 78.285156 93.21875 78.734375 L 93.171875 78.785156 C 92.953125 78.988281 92.703125 79.144531 92.421875 79.25 C 92.144531 79.359375 91.851562 79.410156 91.554688 79.40625 C 91.253906 79.398438 90.964844 79.339844 90.691406 79.222656 C 90.414062 79.105469 90.167969 78.945312 89.957031 78.734375 C 89.929688 78.707031 89.898438 78.683594 89.863281 78.664062 L 93.148438 75.378906 C 93.171875 75.410156 93.195312 75.441406 93.21875 75.46875 L 93.265625 75.515625 C 93.660156 75.929688 93.867188 76.425781 93.890625 76.996094 Z M 108.386719 63.578125 C 107.96875 64 107.460938 64.226562 106.863281 64.253906 L 106.757812 64.253906 C 106.121094 64.257812 105.574219 64.035156 105.125 63.582031 L 95.570312 54.023438 C 95.449219 53.910156 95.3125 53.824219 95.160156 53.761719 C 95.003906 53.699219 94.847656 53.671875 94.679688 53.671875 C 94.515625 53.675781 94.355469 53.707031 94.203125 53.769531 C 94.050781 53.835938 93.917969 53.925781 93.800781 54.042969 C 93.683594 54.160156 93.59375 54.292969 93.527344 54.445312 C 93.464844 54.597656 93.429688 54.757812 93.429688 54.921875 C 93.429688 55.089844 93.457031 55.25 93.519531 55.402344 C 93.578125 55.554688 93.667969 55.691406 93.78125 55.8125 L 103.332031 65.363281 C 103.546875 65.578125 103.710938 65.824219 103.824219 66.101562 C 103.941406 66.378906 104 66.671875 104.003906 66.972656 C 104.007812 67.273438 103.953125 67.566406 103.84375 67.847656 C 103.734375 68.125 103.578125 68.378906 103.371094 68.597656 L 103.332031 68.628906 C 103.117188 68.84375 102.867188 69.007812 102.582031 69.125 C 102.300781 69.242188 102.007812 69.296875 101.703125 69.296875 C 101.394531 69.296875 101.101562 69.242188 100.820312 69.125 C 100.535156 69.007812 100.289062 68.84375 100.070312 68.628906 L 90.515625 59.074219 C 90.398438 58.957031 90.261719 58.867188 90.105469 58.800781 C 89.953125 58.738281 89.789062 58.707031 89.625 58.707031 C 89.457031 58.707031 89.292969 58.738281 89.140625 58.800781 C 88.984375 58.867188 88.847656 58.957031 88.730469 59.074219 C 88.609375 59.195312 88.519531 59.332031 88.457031 59.484375 C 88.390625 59.640625 88.359375 59.800781 88.359375 59.96875 C 88.359375 60.136719 88.390625 60.300781 88.457031 60.453125 C 88.519531 60.609375 88.613281 60.746094 88.730469 60.863281 L 98.285156 70.414062 C 98.496094 70.632812 98.65625 70.882812 98.769531 71.164062 C 98.882812 71.445312 98.9375 71.738281 98.9375 72.039062 C 98.933594 72.34375 98.875 72.636719 98.757812 72.914062 C 98.640625 73.195312 98.476562 73.441406 98.261719 73.65625 C 98.046875 73.871094 97.800781 74.039062 97.519531 74.15625 C 97.238281 74.273438 96.949219 74.332031 96.644531 74.335938 C 96.339844 74.335938 96.046875 74.28125 95.765625 74.167969 C 95.484375 74.054688 95.234375 73.894531 95.019531 73.679688 C 94.90625 73.570312 94.777344 73.484375 94.628906 73.425781 C 94.832031 72.984375 94.960938 72.523438 95.019531 72.042969 C 95.082031 71.5625 95.070312 71.082031 94.984375 70.605469 C 94.898438 70.128906 94.742188 69.675781 94.519531 69.246094 C 94.292969 68.816406 94.011719 68.425781 93.671875 68.082031 L 93.644531 68.054688 C 93.191406 67.601562 92.671875 67.253906 92.078125 67.007812 C 91.484375 66.761719 90.867188 66.640625 90.226562 66.644531 C 90.148438 66.644531 90.070312 66.652344 89.996094 66.664062 L 89.984375 66.664062 L 89.984375 66.65625 C 89.996094 66.578125 90.003906 66.5 90.003906 66.421875 C 89.964844 65.71875 89.816406 65.035156 89.554688 64.378906 C 89.3125 63.832031 88.996094 63.339844 88.597656 62.894531 C 87.6875 61.921875 86.574219 61.308594 85.265625 61.058594 C 85.226562 59.78125 84.777344 58.667969 83.917969 57.722656 C 83.417969 57.203125 82.835938 56.800781 82.171875 56.519531 C 81.507812 56.238281 80.816406 56.097656 80.09375 56.101562 C 80.050781 55.332031 79.847656 54.601562 79.484375 53.921875 C 79.253906 53.492188 78.96875 53.105469 78.628906 52.761719 C 78.402344 52.535156 78.160156 52.335938 77.894531 52.160156 C 77.628906 51.984375 77.351562 51.835938 77.058594 51.714844 C 76.765625 51.59375 76.460938 51.503906 76.152344 51.441406 C 75.839844 51.378906 75.527344 51.347656 75.207031 51.347656 C 74.890625 51.347656 74.578125 51.378906 74.265625 51.441406 C 73.953125 51.503906 73.652344 51.59375 73.359375 51.714844 C 73.066406 51.835938 72.785156 51.984375 72.523438 52.160156 C 72.257812 52.335938 72.015625 52.535156 71.789062 52.761719 L 67.421875 57.128906 C 65.113281 53.265625 63.050781 49.800781 61.121094 46.542969 C 59.027344 43 57.011719 39.570312 55.113281 36.304688 L 70.101562 25.855469 L 70.519531 26.472656 L 71.757812 28.273438 C 72.414062 29.320312 73.195312 30.265625 74.101562 31.105469 C 74.953125 31.828125 75.9375 32.246094 77.054688 32.351562 C 77.582031 32.414062 78.109375 32.445312 78.636719 32.445312 C 79.144531 32.453125 79.714844 32.433594 80.542969 32.394531 C 80.730469 32.386719 80.929688 32.375 81.125 32.363281 L 81.140625 32.363281 L 76.167969 37.335938 C 75.945312 37.5625 75.746094 37.804688 75.570312 38.066406 C 75.394531 38.328125 75.246094 38.605469 75.125 38.898438 C 75.003906 39.191406 74.914062 39.492188 74.851562 39.800781 C 74.789062 40.109375 74.757812 40.421875 74.753906 40.738281 C 74.753906 41.054688 74.785156 41.367188 74.84375 41.675781 C 74.90625 41.988281 74.996094 42.289062 75.113281 42.582031 C 75.234375 42.871094 75.378906 43.152344 75.554688 43.414062 C 75.726562 43.679688 75.925781 43.921875 76.148438 44.148438 L 76.167969 44.171875 C 76.390625 44.390625 76.632812 44.589844 76.890625 44.765625 C 77.152344 44.9375 77.425781 45.085938 77.714844 45.207031 C 78.003906 45.328125 78.300781 45.421875 78.605469 45.484375 C 78.914062 45.546875 79.222656 45.582031 79.535156 45.582031 C 79.847656 45.585938 80.160156 45.558594 80.464844 45.503906 C 80.773438 45.445312 81.074219 45.359375 81.363281 45.246094 C 81.65625 45.128906 81.933594 44.988281 82.195312 44.820312 C 82.460938 44.652344 82.703125 44.457031 82.929688 44.242188 L 87.625 39.550781 L 108.386719 60.308594 C 108.601562 60.527344 108.769531 60.777344 108.882812 61.0625 C 109 61.34375 109.058594 61.636719 109.058594 61.945312 C 109.058594 62.25 109 62.542969 108.882812 62.828125 C 108.769531 63.109375 108.601562 63.359375 108.386719 63.578125 Z M 113.066406 51.015625 C 111.679688 53.34375 110.386719 55.511719 109.175781 57.53125 L 88.53125 36.890625 L 88.515625 36.871094 C 88.394531 36.753906 88.257812 36.660156 88.105469 36.597656 C 87.949219 36.535156 87.789062 36.5 87.621094 36.5 C 87.453125 36.5 87.292969 36.535156 87.136719 36.597656 C 86.984375 36.660156 86.847656 36.753906 86.726562 36.871094 L 81.171875 42.433594 C 80.949219 42.632812 80.695312 42.785156 80.414062 42.890625 C 80.132812 42.992188 79.84375 43.039062 79.542969 43.03125 C 79.246094 43.019531 78.957031 42.953125 78.683594 42.832031 C 78.410156 42.710938 78.167969 42.542969 77.960938 42.328125 C 77.75 42.113281 77.589844 41.867188 77.476562 41.589844 C 77.363281 41.3125 77.308594 41.023438 77.308594 40.722656 C 77.308594 40.421875 77.363281 40.132812 77.472656 39.855469 C 77.585938 39.578125 77.746094 39.332031 77.953125 39.117188 L 83.441406 33.632812 C 86.183594 31.238281 90.847656 31.703125 94.960938 32.109375 L 95.039062 32.117188 C 96.234375 32.234375 97.363281 32.34375 98.449219 32.394531 C 99.210938 32.429688 99.972656 32.429688 100.734375 32.386719 C 101.46875 32.347656 102.199219 32.242188 102.914062 32.066406 C 103.609375 31.890625 104.25 31.59375 104.839844 31.183594 C 105.058594 31.023438 105.269531 30.855469 105.46875 30.675781 L 117.273438 43.910156 C 116.089844 45.90625 114.683594 48.289062 113.0625 51.015625 Z M 113.066406 51.015625 " fill-opacity="1" fill-rule="nonzero"/></g><g transform="matrix(1, 0, 0, 1, 39, 99)"><g clip-path="url(#7aff663f86)"><g fill="#050f2a" fill-opacity="1"><g transform="translate(1.430068, 16.132376)"><g><path d="M 1.59375 0 L 1.59375 -12.359375 L 3.8125 -12.359375 L 3.8125 0 Z M 1.59375 0 "/></g></g><g transform="translate(6.836607, 16.132376)"><g><path d="M 1.59375 0 L 1.59375 -12.359375 L 3.796875 -12.359375 L 9 -3.703125 L 9 -12.359375 L 11.125 -12.359375 L 11.125 0 L 8.90625 0 L 3.734375 -8.671875 L 3.734375 0 Z M 1.59375 0 "/></g></g><g transform="translate(19.556848, 16.132376)"><g><path d="M 4.046875 0 L 4.046875 -10.375 L 0.171875 -10.375 L 0.171875 -12.359375 L 10.140625 -12.359375 L 10.140625 -10.375 L 6.28125 -10.375 L 6.28125 0 Z M 4.046875 0 "/></g></g><g transform="translate(29.880014, 16.132376)"><g><path d="M 1.59375 0 L 1.59375 -12.359375 L 9.8125 -12.359375 L 9.8125 -10.328125 L 3.8125 -10.328125 L 3.8125 -7.203125 L 9.40625 -7.203125 L 9.40625 -5.15625 L 3.8125 -5.15625 L 3.8125 -2.09375 L 9.8125 -2.09375 L 9.8125 0 Z M 1.59375 0 "/></g></g><g transform="translate(40.771829, 16.132376)"><g><path d="M 6.703125 0.171875 C 5.890625 0.171875 5.160156 0.0625 4.515625 -0.15625 C 3.867188 -0.375 3.304688 -0.679688 2.828125 -1.078125 C 2.359375 -1.484375 1.96875 -1.953125 1.65625 -2.484375 C 1.34375 -3.015625 1.109375 -3.59375 0.953125 -4.21875 C 0.796875 -4.851562 0.71875 -5.507812 0.71875 -6.1875 C 0.71875 -6.863281 0.789062 -7.515625 0.9375 -8.140625 C 1.09375 -8.773438 1.328125 -9.359375 1.640625 -9.890625 C 1.953125 -10.421875 2.34375 -10.890625 2.8125 -11.296875 C 3.289062 -11.703125 3.847656 -12.015625 4.484375 -12.234375 C 5.128906 -12.453125 5.863281 -12.5625 6.6875 -12.5625 C 7.5 -12.5625 8.25 -12.425781 8.9375 -12.15625 C 9.625 -11.882812 10.234375 -11.484375 10.765625 -10.953125 C 11.304688 -10.429688 11.742188 -9.785156 12.078125 -9.015625 L 10.109375 -8.1875 C 9.921875 -8.75 9.65625 -9.207031 9.3125 -9.5625 C 8.96875 -9.925781 8.570312 -10.191406 8.125 -10.359375 C 7.675781 -10.535156 7.191406 -10.625 6.671875 -10.625 C 6.015625 -10.625 5.445312 -10.503906 4.96875 -10.265625 C 4.5 -10.035156 4.113281 -9.71875 3.8125 -9.3125 C 3.507812 -8.90625 3.285156 -8.4375 3.140625 -7.90625 C 2.992188 -7.382812 2.921875 -6.84375 2.921875 -6.28125 C 2.921875 -5.664062 2.992188 -5.085938 3.140625 -4.546875 C 3.285156 -4.003906 3.507812 -3.523438 3.8125 -3.109375 C 4.125 -2.703125 4.515625 -2.382812 4.984375 -2.15625 C 5.460938 -1.925781 6.035156 -1.8125 6.703125 -1.8125 C 7.296875 -1.8125 7.835938 -1.9375 8.328125 -2.1875 C 8.816406 -2.4375 9.222656 -2.789062 9.546875 -3.25 C 9.867188 -3.71875 10.070312 -4.265625 10.15625 -4.890625 L 7.34375 -4.890625 L 7.34375 -6.6875 L 12.3125 -6.6875 L 12.3125 0 L 10.546875 0 L 10.359375 -1.734375 C 10.140625 -1.347656 9.847656 -1.007812 9.484375 -0.71875 C 9.117188 -0.4375 8.703125 -0.21875 8.234375 -0.0625 C 7.765625 0.09375 7.253906 0.171875 6.703125 0.171875 Z M 6.703125 0.171875 "/></g></g><g transform="translate(54.191945, 16.132376)"><g><path d="M 1.59375 0.015625 L 1.59375 -12.359375 L 5.59375 -12.359375 C 6.164062 -12.359375 6.707031 -12.28125 7.21875 -12.125 C 7.738281 -11.96875 8.195312 -11.734375 8.59375 -11.421875 C 8.988281 -11.109375 9.300781 -10.722656 9.53125 -10.265625 C 9.757812 -9.816406 9.875 -9.300781 9.875 -8.71875 C 9.875 -8.207031 9.769531 -7.738281 9.5625 -7.3125 C 9.351562 -6.882812 9.066406 -6.515625 8.703125 -6.203125 C 8.335938 -5.898438 7.921875 -5.664062 7.453125 -5.5 L 10.890625 0.015625 L 8.34375 0.015625 L 5.296875 -5.28125 L 3.8125 -5.28125 L 3.8125 0.015625 Z M 3.828125 -7.09375 L 5.796875 -7.09375 C 6.378906 -7.125 6.835938 -7.28125 7.171875 -7.5625 C 7.503906 -7.851562 7.671875 -8.226562 7.671875 -8.6875 C 7.671875 -9.195312 7.484375 -9.601562 7.109375 -9.90625 C 6.742188 -10.21875 6.242188 -10.375 5.609375 -10.375 L 3.828125 -10.375 Z M 3.828125 -7.09375 "/></g></g><g transform="translate(65.284975, 16.132376)"><g><path d="M 1.59375 0 L 1.59375 -12.359375 L 3.8125 -12.359375 L 3.8125 0 Z M 1.59375 0 "/></g></g><g transform="translate(70.691514, 16.132376)"><g><path d="M 4.046875 0 L 4.046875 -10.375 L 0.171875 -10.375 L 0.171875 -12.359375 L 10.140625 -12.359375 L 10.140625 -10.375 L 6.28125 -10.375 L 6.28125 0 Z M 4.046875 0 "/></g></g><g transform="translate(81.014681, 16.132376)"><g><path d="M 4.625 0 L 4.625 -4.828125 L -0.015625 -12.359375 L 2.671875 -12.359375 L 5.75 -6.953125 L 8.859375 -12.359375 L 11.5625 -12.359375 L 6.9375 -4.828125 L 6.9375 0 Z M 4.625 0 "/></g></g></g></g></g></svg>